<?xml version="1.0" encoding="utf-8"?>
<svg width="877px" height="743px" viewBox="0 0 877 743" version="1.1" xmlns:xlink="http://www.w3.org/1999/xlink" xmlns="http://www.w3.org/2000/svg">
  <desc>Created with Lunacy</desc>
  <defs>
    <linearGradient x1="0.0220157132" y1="0.8677098" x2="0.9845077" y2="0.5366795" id="gradient_1">
      <stop offset="0" stop-color="#0166FF" />
      <stop offset="1" stop-color="#FEA4D8" />
    </linearGradient>
  </defs>
  <g id="Group-2">
    <path d="M0 46.5C0 20.8188 20.8188 0 46.5 0C72.1812 0 93 20.8188 93 46.5C93 72.1812 72.1812 93 46.5 93C20.8188 93 0 72.1812 0 46.5Z" transform="translate(502.0001 650)" id="Rectangle-2" fill="#8486EB" stroke="none" />
    <path d="M0 28.5C0 12.7599 12.7599 0 28.5 0C44.2401 0 57 12.7599 57 28.5C57 44.2401 44.2401 57 28.5 57C12.7599 57 0 44.2401 0 28.5Z" transform="translate(19.00024 245)" id="Rectangle-3" fill="#2A70F9" stroke="none" />
    <path d="M126 177.5C126 153.342 130.826 130.311 139.567 109.318C140.193 107.417 140.786 106.013 141.333 105.223C169.011 43.2165 231.209 0 303.5 0C368.72 0 425.724 35.175 456.576 87.5889C467.328 100.146 488.05 115.545 505.832 115.545C512.498 115.545 522.849 113.609 528.873 111.544C559.66 97.7013 593.806 90 629.75 90C765.75 90 876 200.25 876 336.25C876 472.25 765.75 582.5 629.75 582.5C602.435 582.5 576.158 578.052 551.605 569.842C545.357 568.697 532.291 565.536 526.507 565.536C495.02 565.536 466.216 585.621 446.658 607.325C415.526 664.33 355.029 703 285.5 703C197.712 703 124.322 641.353 106.259 558.987C106.012 558.225 105.739 557.467 105.5 557C104.464 554.643 104.18 553.368 101.5 551C98.3647 548.229 93.1437 545.685 89.8644 544.27C37.5016 525.699 0 475.729 0 417C0 357.859 38.0292 307.601 90.9677 289.344C95.8844 286.945 101.62 284.193 108.5 281C131.665 271.211 132.103 259.432 131.5 253C130.39 242.951 129.685 226.35 126.5 196.5C126.419 195.231 126.433 193.477 126.531 191.334C126.179 186.769 126 182.155 126 177.5L126 177.5Z" transform="translate(0 28)" id="Vector" fill="url(#gradient_1)" stroke="none" />
    <path d="M0 44.5C0 19.9233 19.9233 0 44.5 0C69.0767 0 89 19.9233 89 44.5C89 69.0767 69.0767 89 44.5 89C19.9233 89 0 69.0767 0 44.5Z" transform="translate(480.0001 0)" id="Rectangle" fill="#B392E4" stroke="none" />
  </g>
</svg>