<?xml version="1.0" standalone="no"?>
<!DOCTYPE svg PUBLIC "-//W3C//DTD SVG 1.1//EN" "http://www.w3.org/Graphics/SVG/1.1/DTD/svg11.dtd" >
<svg xmlns="http://www.w3.org/2000/svg" xmlns:xlink="http://www.w3.org/1999/xlink" version="1.1">
<metadata>
Created by FontForge 20170731 at Fri Sep 28 15:06:45 2018
 By Aleksey,,,
Copyright (c) 2018 by MadeType. All rights reserved.
</metadata>
<defs>
<font id="MADECanvas" horiz-adv-x="591" >
  <font-face 
    font-family="MADE Canvas"
    font-weight="400"
    font-stretch="normal"
    units-per-em="1000"
    panose-1="2 0 5 3 0 0 0 2 0 4"
    ascent="800"
    descent="-200"
    x-height="494"
    cap-height="700"
    bbox="-34 -378 1068 881"
    underline-thickness="50"
    underline-position="-200"
    unicode-range="U+0020-F6C3"
  />
<missing-glyph horiz-adv-x="210" 
 />
    <glyph glyph-name=".notdef" horiz-adv-x="210" 
 />
    <glyph glyph-name=".null" horiz-adv-x="0" 
 />
    <glyph glyph-name="nonmarkingreturn" horiz-adv-x="333" 
 />
    <glyph glyph-name="space" unicode=" " horiz-adv-x="210" 
 />
    <glyph glyph-name="exclam" unicode="!" horiz-adv-x="197" 
d="M98 88q20 0 34.5 -14.5t14.5 -34.5t-14.5 -34t-34.5 -14t-34 14t-14 34t14 34.5t34 14.5zM89 364q-25 248 -27 277q-3 29 4.5 44t31.5 15q42 0 37 -59q-2 -29 -27 -277q-4 -44 -6 -91t-2 -71l1 -25h-3h-2q2 87 -7 187z" />
    <glyph glyph-name="quotedbl" unicode="&#x22;" horiz-adv-x="218" 
d="M76 693q31 0 24 -48q-2 -15 -11 -44t-11 -50h-2h-2q-2 21 -11 50t-11 44q-7 48 24 48zM141 693q32 0 25 -48q-2 -14 -11.5 -43.5t-10.5 -50.5h-3h-2q-1 21 -10.5 50.5t-11.5 43.5q-7 48 24 48z" />
    <glyph glyph-name="numbersign" unicode="#" horiz-adv-x="565" 
d="M515 366h-142v-169h142v-5h-142v-155h-5v155h-172v-155h-5v155h-141v5h141v169h-141v5h141v155h5v-155h172v155h5v-155h142v-5zM368 197v169h-172v-169h172z" />
    <glyph glyph-name="dollar" unicode="$" horiz-adv-x="567" 
d="M517 175q0 -88 -63.5 -135t-167.5 -49v-97h-5v97h-1q-54 0 -141 19q-16 4 -21.5 5t-20.5 1t-22 -4.5t-13.5 -16.5t-6.5 -31h-5v252h5q0 -24 13.5 -59t39 -72t71.5 -63t101 -26h1v309q-105 59 -138 87q-76 63 -76 144q0 84 61 129t147 45h6v97h5v-97q18 -1 37.5 -4.5
t32 -6.5t34 -9.5t30.5 -8.5q29 -8 42.5 4t13.5 52h5v-252h-5q0 90 -53 153t-137 67v-295q9 -5 39.5 -22t42 -24t37 -23.5t37 -26.5t29.5 -28t25.5 -33.5t14 -35.5t6.5 -42zM144 570q0 -48 35.5 -84t101.5 -73v292h-4q-54 0 -93.5 -34t-39.5 -101zM286 -4q66 1 106 40.5
t40 99.5q0 52 -37 88.5t-109 78.5v-307z" />
    <glyph glyph-name="percent" unicode="%" horiz-adv-x="560" 
d="M398 709h5l-252 -709h-4zM155 709q54 0 84.5 -35t30.5 -105t-30.5 -105t-84.5 -35t-84.5 35t-30.5 105t31 105.5t84 34.5zM155 432q65 0 65 137t-65 137q-64 0 -64 -137t64 -137zM405 271q53 0 84 -35.5t31 -105.5t-31 -105t-84 -35q-54 0 -84.5 35t-30.5 106
q0 70 30.5 105t84.5 35zM405 -6q26 0 41 23t19 50.5t4 62.5q0 137 -64 138q-65 0 -65 -137t65 -137z" />
    <glyph glyph-name="ampersand" unicode="&#x26;" horiz-adv-x="590" 
d="M428 353q56 -11 89.5 -55.5t31.5 -106.5q-2 -82 -62.5 -140.5t-172.5 -60.5l5 -109h-14l4 109h-2q-114 0 -189.5 51.5t-76.5 142.5q-1 88 54 137t152 51q-75 17 -119 65t-43 115q0 57 31.5 94t73 50t91.5 13h11l-4 107h14l-4 -107q67 -4 108 -41.5t47.5 -83t-11.5 -89
t-57 -60.5v15q38 22 51.5 65t2.5 85t-50 73.5t-96 31.5t-91.5 -45.5t-34.5 -112.5q0 -70 38 -122.5t102 -52.5h34v-7h-59q-68 0 -109.5 -48.5t-36.5 -135.5q4 -91 58 -138.5t126 -47.5q100 0 160 56.5t60 134.5q0 63 -33.5 105t-78.5 48v14z" />
    <glyph glyph-name="quotesingle" unicode="'" horiz-adv-x="152" 
d="M76 693q31 0 24 -48q-2 -15 -11 -44t-11 -50h-2h-3q-1 21 -10 50t-11 44q-7 48 24 48z" />
    <glyph glyph-name="parenleft" unicode="(" horiz-adv-x="378" 
d="M328 729q-67 0 -118 -64t-75.5 -160t-24.5 -205q0 -108 24.5 -204t75.5 -160t118 -64v-5q-70 0 -125.5 39.5t-87.5 104t-48.5 138.5t-16.5 151t16.5 151t48.5 139t87.5 104.5t125.5 39.5v-5z" />
    <glyph glyph-name="parenright" unicode=")" horiz-adv-x="379" 
d="M50 734q70 0 125.5 -39.5t88 -104.5t49 -139t16.5 -151t-16.5 -151t-49 -138.5t-88 -104t-125.5 -39.5v5q67 0 118 64t75.5 160t24.5 204q0 109 -24.5 205t-75.5 160t-118 64v5z" />
    <glyph glyph-name="asterisk" unicode="*" horiz-adv-x="362" 
d="M310 730q8 -22 -32 -29q-10 -2 -43.5 -6t-50.5 -8q11 -13 37 -36t32 -29q28 -28 10 -42q-19 -13 -38 21q-3 6 -18.5 36.5t-25.5 45.5q-10 -15 -25.5 -45.5t-18.5 -36.5q-19 -34 -37 -21q-19 14 9 42l29 26q28 25 40 39q-17 4 -50.5 8t-43.5 6q-40 7 -32 29q6 22 42 4
q7 -3 38 -20t47 -23q-1 18 -8 55t-7 40q-6 39 17 39q24 0 18 -39q-1 -6 -8 -41.5t-8 -53.5q16 6 45.5 22.5t39.5 20.5q36 18 42 -4z" />
    <glyph glyph-name="plus" unicode="+" horiz-adv-x="381" 
d="M331 284v-5h-138v-138h-5v138h-138v5h138v138h5v-138h138z" />
    <glyph glyph-name="comma" unicode="," horiz-adv-x="198" 
d="M147 37q1 -23 -1.5 -41t-9.5 -37.5t-24.5 -30t-43.5 -9.5v4q23 -2 39.5 7.5t23.5 25.5t9 29t2 25q-14 -23 -47 -19q-20 2 -33 17.5t-11 34.5q1 20 16.5 33t35.5 11q42 -3 44 -50z" />
    <glyph glyph-name="hyphen" unicode="-" horiz-adv-x="323" 
d="M50 277h223v-5h-223v5z" />
    <glyph glyph-name="period" unicode="." horiz-adv-x="197" 
d="M98 88q20 0 34.5 -14.5t14.5 -34.5t-14.5 -34t-34.5 -14t-34 14t-14 34t14 34.5t34 14.5z" />
    <glyph glyph-name="slash" unicode="/" horiz-adv-x="250" 
d="M195 703h5l-145 -710h-5z" />
    <glyph glyph-name="zero" unicode="0" horiz-adv-x="540" 
d="M270 710q110 0 170 -98.5t60 -261.5t-60 -261t-170 -98t-170 98.5t-60 261.5t60 261t170 98zM270 -5q133 0 136 355q0 60 -4.5 112.5t-17.5 112.5t-42 95.5t-72 35.5t-72 -35.5t-42 -95t-17.5 -112t-4.5 -112.5q0 -356 136 -356z" />
    <glyph glyph-name="one" unicode="1" horiz-adv-x="323" 
d="M210 115q0 -61 11.5 -85.5t51.5 -24.5v-5h-209v5q40 0 51.5 24.5t11.5 85.5v484q0 29 -13 33.5t-64 -9.5v5l156 72h4v-585z" />
    <glyph glyph-name="two" unicode="2" horiz-adv-x="509" 
d="M464 143h5l-20 -143h-409v5q27 31 72.5 80.5t74.5 81t64.5 79t56 86.5t35 90.5t14.5 103.5q0 76 -27.5 128t-90.5 52q-57 0 -98 -31t-55.5 -72.5t-4 -85t47.5 -66.5v-15q-31 14 -48.5 47t-14.5 71t21 73.5t61.5 59t102.5 23.5q36 0 70 -9t66 -29t51 -57.5t19 -88.5
q0 -48 -16.5 -90.5t-53 -85.5t-72 -77t-97 -91t-105.5 -102h212q63 1 94 12.5t45 50.5z" />
    <glyph glyph-name="three" unicode="3" horiz-adv-x="515" 
d="M265 373q100 -3 157 -51t52 -138q-6 -96 -74 -144.5t-181 -48.5q-92 0 -179 48v15q30 -25 77 -41.5t90 -16.5q65 0 111 47.5t50 138.5q3 88 -33.5 136t-104.5 48h-59v7h38q124 0 124 175q0 71 -27.5 114.5t-86.5 43.5q-57 0 -96 -31.5t-50 -73.5t2.5 -85t51.5 -65v-15
q-32 13 -51.5 45.5t-19 71t16 74t57.5 59.5t101 24q37 0 69.5 -7t62.5 -23.5t47.5 -48.5t17.5 -76q0 -68 -44 -116.5t-119 -65.5z" />
    <glyph glyph-name="four" unicode="4" horiz-adv-x="510" 
d="M399 165v-50q0 -61 11.5 -85.5t51.5 -24.5v-5h-209v5q40 0 51.5 24.5t11.5 85.5v50h-291v5l369 530h5v-530h106v-5h-106zM30 170h286v412z" />
    <glyph glyph-name="five" unicode="5" horiz-adv-x="471" 
d="M78 379q111 51 190.5 35t123 -76.5t38.5 -140.5q-12 -206 -247 -206q-74 0 -138 36v15q57 -46 126 -46q156 0 159 201q1 35 -5 68t-23.5 64t-45.5 49t-75 17.5t-107 -24.5l19 329h169q59 1 81 11t36 50h5l-10 -141h-281q-10 -176 -15 -241z" />
    <glyph glyph-name="six" unicode="6" horiz-adv-x="511" 
d="M288 -9q-98 -11 -170 51t-77 191q-4 90 26 169.5t82 136.5t111 97t123 64v-5q-107 -85 -155 -157t-71 -158q37 27 79 32q93 11 160 -41.5t74 -145.5q7 -98 -43 -161t-139 -73zM236 407q-63 -7 -85.5 -61t-15.5 -154q8 -97 44.5 -149.5t98.5 -47.5q114 10 103 213
q-4 87 -43 146.5t-102 52.5z" />
    <glyph glyph-name="seven" unicode="7" horiz-adv-x="519" 
d="M65 700h409v-5q-60 -70 -99 -129.5t-74.5 -142t-52 -187t-16.5 -236.5h-99q0 152 69 317.5t202 302.5h-215q-62 0 -93.5 -12t-45.5 -51h-5z" />
    <glyph glyph-name="eight" unicode="8" horiz-adv-x="535" 
d="M494 158q-4 -73 -67.5 -120t-160.5 -47q-99 0 -160 42t-65 115q-2 42 9.5 74t39.5 58t53.5 41.5t71.5 39.5q-69 46 -106 90.5t-34 105.5q2 51 34 87.5t73 51t85 14.5q46 0 86 -12.5t71 -49t31 -93.5q0 -110 -145 -170q9 -6 43.5 -29.5t52.5 -38.5t43 -40.5t36 -55
t9 -63.5zM150 557q2 -25 16 -48.5t40.5 -46.5t46 -37t54.5 -37q73 62 73 167q0 67 -30 109t-83 42q-55 0 -89.5 -39t-27.5 -110zM266 -5q64 0 107.5 38.5t40.5 116.5q-1 35 -25 69.5t-45 51.5t-69.5 49.5t-56.5 38.5q-98 -58 -95 -197q2 -81 41.5 -124t101.5 -43z" />
    <glyph glyph-name="nine" unicode="9" horiz-adv-x="510" 
d="M237 709q99 11 166 -46t67 -183q0 -72 -22.5 -139.5t-56.5 -117.5t-81.5 -95t-91 -74.5t-90.5 -53.5v5q103 92 148.5 160t76.5 155q-45 -29 -78 -32q-93 -8 -160 45.5t-74 146.5q-7 97 47.5 157.5t148.5 71.5zM274 293q62 6 83.5 62t17.5 154q-3 87 -39.5 143t-97.5 51
q-62 -6 -89 -69.5t-20 -148.5q8 -82 45.5 -140t99.5 -52z" />
    <glyph glyph-name="colon" unicode=":" horiz-adv-x="197" 
d="M98 88q20 0 34.5 -14.5t14.5 -34.5t-14.5 -34t-34.5 -14t-34 14t-14 34t14 34.5t34 14.5zM98 323q-20 0 -34 14t-14 34t14 34.5t34 14.5t34.5 -14.5t14.5 -34.5t-14.5 -34t-34.5 -14z" />
    <glyph glyph-name="semicolon" unicode=";" horiz-adv-x="198" 
d="M99 323q-20 0 -34 14t-14 34t14 34.5t34 14.5t34.5 -14.5t14.5 -34.5t-14.5 -34t-34.5 -14zM104 87q41 -3 43 -50q1 -22 -1 -40.5t-9 -38t-24.5 -30t-44.5 -9.5v4q23 -2 39.5 7.5t23.5 25.5t9.5 29t2.5 25q-14 -23 -48 -19q-20 2 -33 17t-11 35t17.5 33t35.5 11z" />
    <glyph glyph-name="less" unicode="&#x3c;" horiz-adv-x="308" 
d="M258 516v-5l-205 -167l205 -167v-5l-208 169v5z" />
    <glyph glyph-name="equal" unicode="=" horiz-adv-x="381" 
d="M50 342h281v-5h-281v5zM50 221v5h281v-5h-281z" />
    <glyph glyph-name="greater" unicode="&#x3e;" horiz-adv-x="308" 
d="M50 516l208 -170v-5l-208 -169v5l205 167l-205 167v5z" />
    <glyph glyph-name="question" unicode="?" horiz-adv-x="421" 
d="M189 710q30 0 56.5 -4.5t54 -16.5t46.5 -31t28 -51t4 -74q-5 -39 -28.5 -74.5t-53 -64.5t-57.5 -60t-47.5 -73.5t-19.5 -92.5h-5q-3 53 11 104.5t34.5 87t41.5 81.5t27 85q12 74 -13.5 127t-90.5 53q-73 0 -105.5 -54.5t-15.5 -118.5t70 -89v-15q-42 15 -65 61t-20.5 95
t41 87t107.5 38zM174 88q20 0 34.5 -14.5t14.5 -34.5t-14.5 -34t-34.5 -14t-34 14t-14 34t14 34.5t34 14.5z" />
    <glyph glyph-name="at" unicode="@" horiz-adv-x="660" 
d="M171 119q3 52 65 81q-41 63 -29 148q6 45 38 78.5t93 33.5q63 0 104 -31.5t41 -91.5v-210q0 -36 1 -50t9.5 -26.5t27.5 -12.5q15 0 30.5 11.5t30.5 35.5t24.5 70.5t9.5 107.5q0 154 -65 227t-202 73q-156 0 -230.5 -78t-74.5 -242q0 -95 25 -162t68 -100.5t88 -47
t98 -13.5q46 0 89 9t70.5 20.5t51 26t31.5 21t11 9.5l3 -2q-3 -3 -11 -9.5t-32.5 -21.5t-52 -26.5t-71 -21t-89.5 -9.5q-132 0 -204 77q-79 85 -79 250q0 170 80 249q76 75 229 75q145 0 213 -84q58 -74 58 -220q0 -38 -5 -75t-16.5 -74t-34 -59.5t-54.5 -22.5
q-94 0 -102 80q-32 -57 -82 -73q-55 -17 -107 3t-48 77zM340 48q43 21 67 68v15v124q-16 -9 -41 -19q-7 -3 -27 -8.5t-33 -11t-29.5 -15t-26 -25.5t-11.5 -38q-7 -62 25.5 -86t75.5 -4zM209 342q-11 -82 30 -141q24 11 71 23t52 14q27 9 45 21v74q0 61 -14.5 92.5
t-56.5 31.5q-47 0 -83.5 -28.5t-43.5 -86.5z" />
    <glyph glyph-name="A" unicode="A" horiz-adv-x="712" 
d="M591 139l16.5 -39t17.5 -35t22.5 -32.5t26 -19t33.5 -8.5v-5h-220v5q36 0 42 18.5t-14 73.5q-8 22 -69 181h-240q-24 -61 -32 -82q-26 -64 -15 -127.5t59 -63.5v-5h-213v5q49 8 85 44.5t65 110.5l211 540h9q189 -497 216 -561zM208 283h236q-102 267 -117 305
q-75 -192 -119 -305z" />
    <glyph glyph-name="B" unicode="B" horiz-adv-x="625" 
d="M379 356q83 0 147 -46t64 -133q0 -88 -65 -132.5t-156 -44.5h-319v5q40 0 51 24.5t12 85.5v470q-1 61 -12 85.5t-51 24.5v5h281q83 0 146.5 -44t63.5 -131q0 -73 -45.5 -115t-116.5 -54zM307 695h-44q-40 0 -51.5 -24.5t-11.5 -85.5v-229h107q62 0 100 40t38 129
q0 86 -43 128t-95 42zM348 5q56 0 100.5 43t44.5 129t-46 130t-99 44h-148v-236q0 -61 11.5 -85.5t51.5 -24.5h85z" />
    <glyph glyph-name="C" unicode="C" horiz-adv-x="731" 
d="M453 -2q125 3 228 96v-15q-98 -78 -227 -86q-161 -10 -277 77t-130 246q-15 160 84 268t259 123q76 6 201 -24q38 -13 55.5 -3.5t17.5 56.5h5v-252h-5q0 47 -37 102t-84 82q-76 40 -153 34q-114 -11 -185.5 -121t-58.5 -256q13 -145 100.5 -237.5t206.5 -89.5z" />
    <glyph glyph-name="D" unicode="D" horiz-adv-x="752" 
d="M384 700q155 0 239 -98.5t84 -251.5q0 -154 -83.5 -252t-239.5 -98h-334v5q40 0 51 24.5t12 85.5v470q-1 61 -12 85.5t-51 24.5v5h334zM340 5q52 0 97 17t84.5 54.5t62.5 107.5t23 166t-23 166t-62.5 107.5t-84.5 54.5t-97 17h-77q-40 0 -51.5 -24.5t-11.5 -85.5v-470
q0 -61 11.5 -85.5t51.5 -24.5h77z" />
    <glyph glyph-name="E" unicode="E" horiz-adv-x="601" 
d="M571 169h5l-41 -169h-485v5q40 0 51.5 24.5t11.5 85.5v470q0 61 -11.5 85.5t-51.5 24.5v5h453l34 -138h-5q-25 57 -71 95t-115 38h-83q-40 0 -51 -24.5t-12 -85.5v-234h73q58 0 99 36t41 87h5v-251h-5q0 51 -41 87t-99 36h-73v-231q1 -61 12 -85.5t51 -24.5h114
q67 0 116 50t78 114z" />
    <glyph glyph-name="F" unicode="F" horiz-adv-x="552" 
d="M503 700l34 -138h-5q-25 57 -71 95t-115 38h-83q-40 0 -51 -24.5t-12 -85.5v-234h73q58 0 99 36.5t41 86.5h5v-251h-5q0 50 -41 86.5t-99 36.5h-73v-231q1 -61 12 -85.5t51 -24.5v-5h-213v5q40 0 51.5 24.5t11.5 85.5v470q0 61 -11.5 85.5t-51.5 24.5v5h453z" />
    <glyph glyph-name="G" unicode="G" horiz-adv-x="769" 
d="M531 317h213v-5q-40 0 -51.5 -24.5t-11.5 -85.5v-212h-5q0 27 -38 29t-103 -11.5t-81 -14.5q-161 -12 -277 76t-130 247q-15 160 84 268t259 123q71 6 209 -26q35 -11 50 -0.5t15 55.5h5v-252h-5q0 47 -37 102t-84 82q-76 40 -153 34q-114 -11 -185.5 -121t-58.5 -256
q14 -146 103.5 -241.5t203.5 -85.5q74 7 141 47v157q-1 62 -12 86t-51 24v5z" />
    <glyph glyph-name="H" unicode="H" horiz-adv-x="785" 
d="M672 585v-470q1 -61 12 -85.5t51 -24.5v-5h-213v5q40 0 51.5 24.5t11.5 85.5v232h-385v-232q0 -61 11.5 -85.5t51.5 -24.5v-5h-213v5q40 0 51 24.5t12 85.5v470q-1 61 -12 85.5t-51 24.5v5h213v-5q-40 0 -51.5 -24.5t-11.5 -85.5v-233h385v233q0 61 -11.5 85.5
t-51.5 24.5v5h213v-5q-40 0 -51 -24.5t-12 -85.5z" />
    <glyph glyph-name="I" unicode="I" horiz-adv-x="313" 
d="M200 585v-470q1 -61 12 -85.5t51 -24.5v-5h-213v5q40 0 51.5 24.5t11.5 85.5v470q0 61 -11.5 85.5t-51.5 24.5v5h213v-5q-40 0 -51 -24.5t-12 -85.5z" />
    <glyph glyph-name="J" unicode="J" horiz-adv-x="315" 
d="M51 700h214v-5q-40 0 -51.5 -24.5t-11.5 -85.5v-563q0 -107 -52 -159t-140 -59v6q104 38 104 200v575q0 61 -11.5 85.5t-51.5 24.5v5z" />
    <glyph glyph-name="K" unicode="K" horiz-adv-x="731" 
d="M531 134q41 -49 95.5 -89t99.5 -40v-5h-206l-272 346q-11 -10 -28 -25.5t-20 -18.5v-187q1 -61 12 -85.5t51 -24.5v-5h-213v5q40 0 51 24.5t12 85.5v470q-1 61 -12 85.5t-51 24.5v5h213v-5q-40 0 -51 -24.5t-12 -85.5v-278q174 162 247 235q36 36 50 71.5t3 58.5t-46 23
v5h213v-5q-61 0 -216 -156l-9 -9q-36 -36 -130 -124q204 -254 219 -272z" />
    <glyph glyph-name="L" unicode="L" 
d="M571 169h5l-42 -169h-484v5q40 0 51.5 24t11.5 85v471q0 61 -11.5 85.5t-51.5 24.5v5h213v-5q-40 0 -51 -24.5t-12 -85.5v-471q1 -61 12 -85t51 -24h114q67 0 116 50t78 114z" />
    <glyph glyph-name="M" unicode="M" horiz-adv-x="894" 
d="M781 585v-470q0 -61 11.5 -85.5t51.5 -24.5v-5h-213v5q40 0 51 24.5t12 85.5v574l-255 -544h-2h-2h-5q-253 466 -276 496v-447q0 -87 35 -138t88 -51v-5h-252v5q53 0 88.5 51t35.5 138v453q-39 48 -80 48v5h155l253 -465l217 465h150v-5q-40 0 -51.5 -24.5t-11.5 -85.5z
" />
    <glyph glyph-name="N" unicode="N" horiz-adv-x="791" 
d="M514 700h252v-5q-52 0 -87.5 -51.5t-35.5 -137.5v-506h-12q-3 3 -234 298t-244 310v-414q0 -87 35.5 -138t88.5 -51v-5h-252v5q53 0 88 51t35 138v420q-66 81 -116 81v5h167l439 -568v374q0 87 -35.5 138t-88.5 51v5z" />
    <glyph glyph-name="O" unicode="O" horiz-adv-x="845" 
d="M391 707q159 15 275.5 -74t131.5 -250q14 -160 -85 -268t-259 -122q-159 -15 -275.5 74t-131.5 249q-14 161 85 269t259 122zM454 -2q114 11 185.5 121t58.5 256t-103 241.5t-204 85.5t-185.5 -120.5t-58.5 -256.5q13 -145 103 -241t204 -86z" />
    <glyph glyph-name="P" unicode="P" horiz-adv-x="573" 
d="M307 700q95 0 163 -53.5t68 -147.5t-68 -147.5t-163 -53.5h-106v-183q0 -61 11.5 -85.5t51.5 -24.5v-5h-214v5q40 0 51.5 24.5t11.5 85.5v470q0 61 -11.5 85.5t-51.5 24.5v5h257zM296 303q56 0 100.5 51.5t44.5 144.5t-44.5 144.5t-100.5 51.5h-32q-40 0 -51.5 -24.5
t-11.5 -85.5v-282h95z" />
    <glyph glyph-name="Q" unicode="Q" horiz-adv-x="845" 
d="M626 -78q103 -33 159 14l2 -4q-37 -30 -71 -58q-50 -41 -100 -33q-34 6 -79 27t-75 37.5t-68 26t-59 -6.5q-11 -7 -21 -12q-19 -11 -26 1q-6 12 13 19q11 5 28 5q33 0 74 20q5 2 17 9t25 14t25 13q-2 0 -7 -0.5t-8 -0.5q-160 -15 -276.5 74t-131.5 249q-14 161 85.5 269
t258.5 122q159 15 276 -74t131 -250q14 -150 -79 -258.5t-232 -127.5q-6 -1 -30 -13.5t-45 -25.5l-21 -12q34 13 70 14t52.5 -2t61 -18.5t51.5 -17.5zM454 -2q75 7 134.5 59.5t89 137t21.5 180.5q-14 146 -103.5 241.5t-204.5 85.5q-114 -10 -185.5 -120.5t-58.5 -256.5
q13 -145 103 -241t204 -86z" />
    <glyph glyph-name="R" unicode="R" horiz-adv-x="719" 
d="M556 109q70 -104 153 -104v-5h-107q-76 0 -113 44q-28 32 -53.5 87.5t-41.5 99.5t-44 78.5t-63 36.5h-87v-232q1 -61 12 -85t51 -24v-5h-213v5q40 0 51 24t12 85v471q-1 62 -12 86t-51 24v5h276q83 0 147 -45t64 -132q0 -74 -46.5 -117.5t-119.5 -54.5q44 -13 73.5 -49
t61 -100.5t50.5 -92.5zM200 351h95q56 0 100.5 43t44.5 129t-46 129t-99 43h-32q-40 0 -51 -24t-12 -86v-234z" />
    <glyph glyph-name="S" unicode="S" horiz-adv-x="567" 
d="M144 569q0 -46 38.5 -85t93 -69t109.5 -61.5t93.5 -77.5t38.5 -102q0 -89 -65.5 -136.5t-171.5 -47.5q-54 0 -141 19q-17 4 -27 5.5t-25.5 0t-23.5 -14.5t-8 -37h-5v252h5q0 -24 13.5 -59t39 -72t71.5 -63t101 -26q68 0 110.5 39t42.5 101q0 41 -27 76.5t-68 59t-88 51.5
t-88 54.5t-68 68t-27 90.5q0 84 61 129.5t147 45.5q25 0 48 -4t58 -14t40 -11q28 -8 41.5 3.5t13.5 51.5h5v-252h-5q0 93 -55.5 157t-142.5 64q-55 0 -94.5 -34t-39.5 -102z" />
    <glyph glyph-name="T" unicode="T" horiz-adv-x="686" 
d="M624 700l22 -150h-5q-13 29 -26 50.5t-33.5 45.5t-49.5 36.5t-65 12.5h-17q-40 0 -51.5 -24.5t-11.5 -85.5v-470q0 -61 11.5 -85.5t51.5 -24.5v-5h-214v5q40 0 51.5 24.5t11.5 85.5v470q0 61 -11.5 85.5t-51.5 24.5h-17q-67 0 -106 -40.5t-68 -104.5h-5l22 150h562z" />
    <glyph glyph-name="U" unicode="U" horiz-adv-x="706" 
d="M525 700h131v-5q-40 0 -51.5 -24.5t-11.5 -85.5v-367q0 -63 -19 -109t-52.5 -71t-72 -36.5t-84.5 -11.5q-44 0 -86 11.5t-80.5 36.5t-62 71.5t-23.5 108.5v367q0 61 -11.5 85.5t-51.5 24.5v5h213v-5q-40 0 -51 -24t-12 -86v-379q0 -95 46.5 -152t118.5 -57
q113 0 168 58.5t55 162.5v367q0 61 -11.5 85.5t-51.5 24.5v5z" />
    <glyph glyph-name="V" unicode="V" horiz-adv-x="758" 
d="M515 700h213v-5q-91 -17 -145 -155l-194 -540h-10q-206 497 -232 561q-13 33 -21 49.5t-23 40t-33 34t-40 10.5v5h221v-5q-25 0 -34.5 -11t-5.5 -33t20 -62l195 -473q128 364 138 388q14 37 14.5 81t-15.5 77t-48 33v5z" />
    <glyph glyph-name="W" unicode="W" horiz-adv-x="1042" 
d="M798 700h214v-5q-49 -9 -87 -49t-59 -106l-160 -540h-10l-187 556l-162 -556h-9q-163 475 -191 561q-24 69 -49 101.5t-68 32.5v5h237v-5q-34 0 -42.5 -17.5t5.5 -63.5q41 -134 156 -467l160 553h12l184 -564q106 360 112 387q8 40 8.5 78.5t-16 66t-48.5 27.5v5z" />
    <glyph glyph-name="X" unicode="X" horiz-adv-x="715" 
d="M680 695q-98 -18 -172 -123q-48 -68 -121 -181q84 -148 123 -217q101 -169 165 -169v-5h-220v5q17 0 24.5 9.5t5.5 25.5t-8.5 33.5t-16.5 35.5q-15 25 -119 211q-98 -149 -117 -177q-34 -48 -29 -93t54 -45v-5h-214v5q96 16 173 123q37 54 131 196q-20 36 -56 100.5
t-46 81.5q-108 189 -177 189v5h220v-5q-59 0 0 -113q52 -95 105 -187q12 19 37 57.5t43 65.5l26 39q35 48 29.5 93t-53.5 45v5h213v-5z" />
    <glyph glyph-name="Y" unicode="Y" horiz-adv-x="676" 
d="M433 700h213v-5q-49 -9 -92 -50t-68 -105q-33 -86 -90 -244v-181q1 -61 12 -85.5t51 -24.5v-5h-213v5q40 0 51.5 24.5t11.5 85.5v180q-18 34 -65.5 126t-60.5 117q-82 157 -153 157v5h221v-5q-14 0 -20.5 -9t-5.5 -22.5t5.5 -28t10.5 -27.5q105 -205 154 -303
q62 175 72 199q29 69 21.5 130t-55.5 61v5z" />
    <glyph glyph-name="Z" unicode="Z" horiz-adv-x="581" 
d="M546 700v-5l-415 -690h211q129 0 187 133h5l-34 -138h-465v5l414 690h-204q-69 0 -115 -38t-71 -95h-5l34 138h458z" />
    <glyph glyph-name="bracketleft" unicode="[" horiz-adv-x="226" 
d="M201 737h-78v-763h78v-5h-151v773h151v-5z" />
    <glyph glyph-name="backslash" unicode="\" horiz-adv-x="250" 
d="M55 703l145 -710h-5l-145 710h5z" />
    <glyph glyph-name="bracketright" unicode="]" horiz-adv-x="225" 
d="M25 742h150v-773h-150v5h78v763h-78v5z" />
    <glyph glyph-name="asciicircum" unicode="^" horiz-adv-x="444" 
d="M394 528h-5l-167 205l-167 -205h-5l169 208h5z" />
    <glyph glyph-name="underscore" unicode="_" horiz-adv-x="381" 
d="M50 -11h281v-5h-281v5z" />
    <glyph glyph-name="grave" unicode="`" horiz-adv-x="194" 
d="M105 680l39 -111h-5l-89 111h55z" />
    <glyph glyph-name="a" unicode="a" horiz-adv-x="502" 
d="M448 -2q19 0 34 10v-5q-20 -12 -47 -12q-50 0 -81 19.5t-36 75.5q-38 -68 -98 -87q-28 -10 -59.5 -8.5t-58 10.5t-42.5 33.5t-14 60.5q2 25 14.5 45.5t29.5 33.5t42.5 24t45.5 16.5t47 12.5t39 11q29 10 53 24v89q0 73 -17 110.5t-68 37.5q-88 0 -111 -53
q-5 -19 -2.5 -26.5t11.5 -22t12 -24.5q5 -20 -9.5 -34.5t-35.5 -9.5t-27.5 28t5.5 50q44 96 160 96q74 0 119 -37.5t45 -109.5v-252q0 -58 8.5 -82t40.5 -24zM237 10q49 23 81 81q-1 6 -1 18v149q-18 -11 -49 -23q-8 -3 -32.5 -10t-40 -13.5t-35 -18t-31 -30.5t-14.5 -45
q-8 -75 31.5 -103.5t90.5 -4.5z" />
    <glyph glyph-name="b" unicode="b" horiz-adv-x="573" 
d="M326 504q87 0 149.5 -69.5t62.5 -187.5q0 -124 -50.5 -190t-152.5 -66q-72 0 -123 63q-12 13 -26.5 12t-29.5 -11.5t-27.5 -22.5t-20.5 -22l-8 -10h-2v622q-1 61 -12 85t-51 24v5h162v-5q-17 -9 -17 -150v-171q47 94 146 94zM310 0q76 0 111 61.5t35 185.5q0 117 -39 183
t-111 66q-35 0 -72.5 -27t-53.5 -71v-151q0 -92 12 -138q13 -46 45.5 -77.5t72.5 -31.5z" />
    <glyph glyph-name="c" unicode="c" horiz-adv-x="500" 
d="M316 -5q36 0 76 20.5t63 45.5v-12q-69 -53 -138 -58q-113 -7 -194.5 55.5t-86.5 183.5t59.5 191.5t173.5 81.5q67 7 120 -23.5t68 -65.5q12 -27 5.5 -50t-27.5 -28q-20 -5 -34.5 10t-9.5 35q2 9 11 23.5t10 20.5t-8 26q-15 23 -53.5 37t-81.5 11q-75 -6 -114.5 -80.5
t-34.5 -186.5q4 -107 59.5 -172.5t136.5 -64.5z" />
    <glyph glyph-name="d" unicode="d" horiz-adv-x="597" 
d="M484 115q1 -61 12 -85.5t51 -24.5v-5h-162v5q16 9 17 138q-28 -152 -155 -152q-102 0 -156 69t-50 187q4 100 55 162.5t134 82.5q44 11 90.5 12t81.5 -2v120q-1 61 -12 85t-51 24v5h162v-5q-17 -9 -17 -150v-466zM272 0q43 0 73.5 31t44.5 78q9 35 12 66v322
q-29 4 -76.5 2.5t-71.5 -9.5q-121 -45 -131 -243q-5 -108 34.5 -177.5t114.5 -69.5z" />
    <glyph glyph-name="e" unicode="e" horiz-adv-x="541" 
d="M36 229zM506 333h-377q-8 -51 -4 -101q10 -111 65 -175t136 -62q86 1 157 70v-11q-66 -57 -157 -63q-112 -7 -196.5 56.5t-93.5 181.5q-7 113 64 189.5t179 84.5q89 7 151 -39t76 -131zM279 499q-56 1 -95.5 -44t-53.5 -118h291q-16 160 -142 162z" />
    <glyph glyph-name="f" unicode="f" horiz-adv-x="296" 
d="M336 724q28 -11 36.5 -32.5t-2.5 -37.5q-11 -18 -32.5 -15.5t-30.5 20.5q-5 9 -5 29.5t-4.5 33t-21.5 12.5q-80 0 -80 -133v-107h77v-5h-77v-374q0 -61 11.5 -85.5t51.5 -24.5v-5h-209v5q40 0 51.5 24.5t11.5 85.5v374h-63v5h63v102q0 143 148 143q45 0 75 -15z" />
    <glyph glyph-name="g" unicode="g" horiz-adv-x="512" 
d="M496 -29q22 -55 -32 -122.5t-144 -92.5q-64 -14 -129.5 -12t-118.5 29t-60 70q-10 63 34 91t110 29q42 2 76 -4v-10q-5 2 -12.5 4t-29 5t-39.5 1q-35 -4 -57 -31t-19 -78q4 -56 52.5 -82.5t111 -22t114.5 31.5q46 24 69 58t21 62.5t-22 44.5q-20 17 -145 28t-165 42
q-18 15 -20 39t8 39q18 31 68 46q-96 41 -104 141q-6 81 47.5 132t126.5 58q69 5 126 -28q6 28 19.5 50.5t26.5 31.5q21 14 41 12t28 -20q9 -19 -2.5 -33t-29.5 -12q-7 1 -16 5t-14.5 6.5t-13.5 1.5t-16 -9q-13 -10 -20 -35q71 -45 74 -127q3 -80 -49.5 -131t-123.5 -58
q-49 -5 -97 14q-46 -16 -40 -41.5t59 -37.5q64 -15 146 -22t114.5 -17.5t46.5 -45.5zM237 463q-49 -5 -77.5 -55.5t-22.5 -124.5q7 -75 43.5 -119t85.5 -39t77.5 55.5t22.5 124.5q-7 74 -43.5 118.5t-85.5 39.5z" />
    <glyph glyph-name="h" unicode="h" horiz-adv-x="628" 
d="M515 115q1 -61 12 -85.5t51 -24.5v-5h-208v5q40 0 51.5 24.5t11.5 85.5v234q0 30 -3.5 52.5t-14 46t-33.5 36.5t-58 13t-73.5 -27.5t-54.5 -71.5v-283q0 -61 11.5 -85.5t51.5 -24.5v-5h-209v5q40 0 51.5 24.5t11.5 85.5v507q0 61 -11.5 85t-51.5 24v5h163v-5
q-17 -9 -17 -150v-171q20 41 58 67.5t90 26.5q171 0 171 -160v-229z" />
    <glyph glyph-name="i" unicode="i" horiz-adv-x="308" 
d="M195 115q0 -61 11.5 -85.5t51.5 -24.5v-5h-208v5q40 0 51 24.5t12 85.5v265q-1 61 -12 85t-51 24v5h162v-5q-17 -9 -17 -151v-223zM154 599q-22 0 -37.5 16t-15.5 39t15.5 39.5t37.5 16.5t37.5 -16.5t15.5 -39.5t-15.5 -39t-37.5 -16z" />
    <glyph glyph-name="j" unicode="j" horiz-adv-x="308" 
d="M50 494h163v-5q-17 -9 -17 -151v-413q0 -201 -187 -218v7q104 36 104 199v467q0 61 -11.5 85t-51.5 24v5zM154 599q-22 0 -37.5 16t-15.5 39t15.5 39.5t37.5 16.5t38 -16.5t16 -39.5t-15.5 -39t-38.5 -16z" />
    <glyph glyph-name="k" unicode="k" horiz-adv-x="622" 
d="M450 119q39 -56 73 -85t79 -29v-5h-181l-176 277l-49 -49v-113q0 -61 11.5 -85.5t51.5 -24.5v-5h-209v5q40 0 51.5 24.5t11.5 85.5v507q0 61 -11.5 85t-51.5 24v5h163v-5q-17 -9 -17 -150v-346q10 10 87 85t101 99q10 10 12 24.5t-5 25.5q-12 20 -62 20v5h213v-5
q-25 0 -70.5 -18.5t-82.5 -53.5q-12 -12 -26.5 -25.5t-31.5 -30t-26 -25.5q92 -143 145 -217z" />
    <glyph glyph-name="l" unicode="l" horiz-adv-x="309" 
d="M196 115q0 -61 11.5 -85.5t51.5 -24.5v-5h-209v5q40 0 51.5 24.5t11.5 85.5v507q0 61 -11.5 85t-51.5 24v5h163v-5q-17 -9 -17 -150v-466z" />
    <glyph glyph-name="m" unicode="m" horiz-adv-x="928" 
d="M815 115q0 -61 11.5 -85.5t51.5 -24.5v-5h-208v5q40 0 51 24.5t12 85.5v234q0 25 -1.5 42t-7.5 39t-16.5 35t-30.5 22.5t-48 9.5q-33 0 -72.5 -29t-56.5 -72q5 -25 5 -52v-229q0 -61 11.5 -85.5t51.5 -24.5v-5h-208v5q40 0 51 24.5t12 85.5v234q0 25 -1.5 42t-7.5 39
t-16.5 35t-30.5 22.5t-48 9.5q-35 0 -71 -26.5t-52 -70.5q-1 -17 -1 -61v-224q0 -61 11.5 -85.5t51.5 -24.5v-5h-208v5q40 0 51 24.5t12 85.5v265q-1 61 -12 85t-51 24v5h162v-5q-12 -7 -15 -76q46 91 141 91q133 0 160 -101q21 42 60.5 71.5t89.5 29.5q167 0 167 -160v-229
z" />
    <glyph glyph-name="n" unicode="n" horiz-adv-x="628" 
d="M515 115q1 -62 12 -86t51 -24v-5h-208v5q40 0 51.5 24.5t11.5 85.5v234q0 30 -3.5 52.5t-14 46t-33.5 36.5t-58 13q-34 0 -72.5 -27t-54.5 -70q-1 -18 -1 -61v-224q0 -61 11.5 -85.5t51.5 -24.5v-5h-209v5q40 0 51.5 24.5t11.5 85.5v264q0 61 -11.5 85.5t-51.5 24.5v5
h163v-5q-12 -5 -16 -77q21 41 59 66.5t88 25.5q171 0 171 -160v-229z" />
    <glyph glyph-name="o" unicode="o" 
d="M284 503q109 8 187.5 -57.5t82.5 -176.5q4 -107 -58.5 -187.5t-166.5 -90.5q-112 -11 -197 54t-92 178q-7 114 62.5 193t181.5 87zM329 -5q68 10 106 88.5t31 181.5q-6 98 -57 169t-125 65q-81 -7 -123 -80.5t-34 -189.5q9 -117 64.5 -181t137.5 -53z" />
    <glyph glyph-name="p" unicode="p" horiz-adv-x="601" 
d="M341 503q90 0 155 -66t65 -190t-65 -190.5t-155 -66.5q-51 0 -88 26.5t-57 68.5v-167q0 -61 11.5 -85t51.5 -24v-5h-209v5q40 0 51.5 24t11.5 85v461q0 61 -11.5 85.5t-51.5 24.5v5h163v-5q-12 -5 -16 -77q20 41 57 66t87 25zM322 -3q74 0 115.5 64t41.5 186
q0 121 -41.5 185t-115.5 64q-35 0 -72 -26.5t-53 -69.5q-1 -18 -1 -61v-242q16 -45 53.5 -72.5t72.5 -27.5z" />
    <glyph glyph-name="q" unicode="q" horiz-adv-x="602" 
d="M489 379v-461q1 -61 12 -85t51 -24v-5h-208v5q40 0 51.5 24t11.5 85v261q-25 -189 -160 -189q-102 0 -156.5 69.5t-49.5 187.5q6 112 83 184t196 72q26 0 58 -4.5t70 -4.5h104v-5q-40 0 -51 -24t-12 -86zM405 247q0 124 1 174q-2 47 -19 62.5t-74 15.5q-177 0 -189 -252
q-5 -109 34.5 -178t114.5 -69q38 0 68.5 31t46.5 78q17 52 17 138z" />
    <glyph glyph-name="r" unicode="r" horiz-adv-x="443" 
d="M337 503q30 4 50.5 -9t19.5 -37t-21.5 -33t-37.5 3q-9 6 -18 18.5t-18.5 18t-25.5 0.5q-26 -7 -52.5 -44.5t-37.5 -79.5l-1 -225q1 -61 12 -85.5t51 -24.5v-5h-208v5q40 0 51.5 24.5t11.5 85.5v264q0 61 -11.5 85.5t-51.5 24.5v5h162v-5q-16 -9 -17 -138q17 62 62.5 105
t79.5 47z" />
    <glyph glyph-name="s" unicode="s" horiz-adv-x="453" 
d="M140 407q0 -33 27.5 -61t67 -49.5t79 -44.5t67 -56t27.5 -73q0 -64 -47.5 -98t-136.5 -34q-61 0 -103 25.5t-62 54.5q-16 25 -13 49t22 32q20 8 36.5 -4.5t14.5 -32.5q-1 -10 -9 -27t-9.5 -25.5t9.5 -26.5q35 -41 114 -41q48 0 78.5 27t30.5 65q0 28 -19.5 52t-49 40.5
t-63.5 37.5t-63.5 41.5t-49 53.5t-19.5 73q0 57 44.5 87.5t122.5 30.5q97 0 145 -70q16 -25 13 -49t-22 -32q-20 -8 -36.5 4.5t-14.5 32.5q1 10 8 26.5t8 24.5t-9 25q-32 34 -92 34q-45 0 -70.5 -27t-25.5 -65z" />
    <glyph glyph-name="t" unicode="t" horiz-adv-x="317" 
d="M253 -3q21 0 39 11v-6q-21 -12 -54 -12q-147 0 -147 143v356h-46v5h46v36q32 4 50.5 20t26.5 55h5v-111h104v-5h-104v-361q0 -131 80 -131z" />
    <glyph glyph-name="u" unicode="u" horiz-adv-x="623" 
d="M510 115v-1q1 -61 12 -85t51 -24v-5h-162v5q11 5 15 76q-20 -40 -58 -65.5t-88 -25.5q-172 0 -172 160v229q0 61 -11.5 85.5t-51.5 24.5v5h162v-5q-16 -9 -16 -150v-194q0 -30 3.5 -52.5t14 -46t33 -36.5t57.5 -13t73.5 27t54.5 70q0 8 0.5 28.5t0.5 32.5v224
q-1 62 -12 86t-51 24v5h162v-5q-17 -9 -17 -150v-224z" />
    <glyph glyph-name="v" unicode="v" horiz-adv-x="554" 
d="M384 494h150v-5q-65 -12 -103 -109l-136 -380h-9q-157 346 -179 395q-1 3 -6.5 14.5t-7 15.5t-6.5 14t-8 14t-8 11t-9.5 10.5t-10.5 7.5t-12.5 5.5t-13.5 1.5v5h171v-5q-26 0 -29 -14.5t13 -52.5q4 -9 145 -327q77 220 93 260q16 38 7.5 86t-41.5 48v5z" />
    <glyph glyph-name="w" unicode="w" horiz-adv-x="795" 
d="M625 494h150v-5q-64 -11 -102 -109q-11 -27 -42 -122t-57 -176l-25 -82h-10l-146 371l-111 -371h-9q-142 336 -166 395q-11 25 -15.5 35t-15.5 27.5t-23 24.5t-28 7v5h181v-5q-18 0 -24.5 -6.5t-4 -20.5t12.5 -40q10 -29 64 -164t58 -146l115 382h7l147 -382
q13 42 32 101t31.5 97t14.5 45q16 39 7.5 86.5t-41.5 47.5v5z" />
    <glyph glyph-name="x" unicode="x" horiz-adv-x="506" 
d="M366 123q70 -118 115 -118v-5h-163v5q42 0 1 72q-10 17 -82 143q-10 -15 -28.5 -43t-31.5 -48t-19 -28q-16 -23 -20 -45t5 -36.5t32 -14.5v-5h-150v5q69 12 121 85q13 18 46 67.5t44 65.5q-50 86 -76 134q-16 27 -24.5 40.5t-27 39.5t-36.5 39t-35 13v5h163v-5
q-13 0 -18.5 -6t-3 -17.5t8 -24.5t15.5 -30q12 -22 37.5 -66t35.5 -62q63 99 71 110q16 23 20.5 45t-5 36.5t-32.5 14.5v5h151v-5q-70 -12 -122 -86q-24 -34 -82 -122q65 -112 90 -158z" />
    <glyph glyph-name="y" unicode="y" horiz-adv-x="555" 
d="M385 494h150v-5q-64 -11 -102 -109q-16 -40 -105 -291q-29 -81 -32 -89q-87 -212 -173 -217q-27 -2 -45 13t-17 39q1 22 20 30.5t36 -3.5q7 -5 14 -19.5t11 -24t14.5 -14.5t25.5 9q23 19 54.5 72.5t54.5 114.5h-4q-158 346 -180 395q-1 3 -6.5 14.5t-7 15.5t-6.5 14
t-8 14t-8 11t-9.5 10.5t-10.5 7.5t-12.5 5.5t-13.5 1.5v5h171v-5q-26 0 -29 -14.5t13 -52.5q8 -21 40.5 -95t67 -153t36.5 -83q19 52 41 114t37.5 105t16.5 45q17 38 8.5 86t-42.5 48v5z" />
    <glyph glyph-name="z" unicode="z" horiz-adv-x="469" 
d="M429 494v-5l-298 -484h146q49 0 84 29.5t52 70.5h4l-29 -105h-343v5l298 484h-141q-49 0 -83.5 -29.5t-52.5 -70.5h-3l28 105h338z" />
    <glyph glyph-name="braceleft" unicode="{" horiz-adv-x="226" 
d="M176 724q-49 -15 -75 -57.5t-14 -107.5q4 -24 21.5 -61t31 -64.5t20.5 -65.5t-10 -63q-17 -31 -61 -31q43 0 61 -32q17 -25 10 -63t-20.5 -65.5t-31 -64.5t-21.5 -61q-12 -65 13.5 -107t75.5 -58v-2q-143 30 -123 179q6 40 31 84t41 81.5t5 76.5q-2 10 -10.5 18.5
t-22.5 8.5l-37 -5v19q17 -5 37 -5q14 0 22.5 8.5t10.5 18.5q11 39 -5 76.5t-41 81.5t-31 84q-20 150 123 179v-2z" />
    <glyph glyph-name="bar" unicode="|" horiz-adv-x="105" 
d="M50 737h5v-780h-5v780z" />
    <glyph glyph-name="braceright" unicode="}" horiz-adv-x="226" 
d="M96 242q-10 -29 0 -62t24.5 -55t31 -57t21.5 -68q20 -149 -123 -179v2q50 16 76 58t13 107q-4 24 -21.5 61t-31 64.5t-20 65.5t10.5 63q16 32 60 32q-45 0 -60 31q-17 25 -10.5 63t20 65.5t31 64.5t21.5 61q13 65 -13 107.5t-76 57.5v2q143 -29 123 -179
q-5 -33 -21.5 -68t-31 -57t-24.5 -55t0 -62q8 -27 34 -27l36 5v-19q-17 5 -36 5q-26 0 -34 -27z" />
    <glyph glyph-name="asciitilde" unicode="~" horiz-adv-x="485" 
d="M352 333q-35 0 -103 36q-68 38 -110 38q-31 0 -52 -18.5t-26.5 -33t-5.5 -19.5l-5 1q0 5 6 20.5t28 35t55 19.5q41 0 113 -39q64 -35 100 -35q42 0 60.5 26t18.5 48h4q0 -12 -5.5 -28.5t-26 -33.5t-51.5 -17z" />
    <glyph glyph-name="exclamdown" unicode="&#xa1;" horiz-adv-x="197" 
d="M98 245q-20 0 -34 14t-14 34t14 34t34 14t34.5 -14t14.5 -34t-14.5 -34t-34.5 -14zM108 -32q25 -241 27 -277q5 -59 -37 -59q-24 0 -31.5 15t-5.5 44q1 7 5.5 53t11.5 116t11 108q4 44 5.5 91t1.5 71v25h2h3q-3 -87 7 -187z" />
    <glyph glyph-name="cent" unicode="&#xa2;" horiz-adv-x="500" 
d="M316 -5q36 1 76 21.5t63 44.5v-12q-70 -52 -138 -57q-21 -1 -40 0v-71h-5v71q-98 6 -165 68t-71 171q-5 121 59.5 191t173.5 82h3v71h5v-71q64 5 114.5 -25.5t65.5 -63.5q12 -27 5.5 -50.5t-27.5 -28.5q-20 -4 -34.5 10.5t-9.5 34.5q2 9 11 23.5t10 21t-8 25.5
q-15 22 -50.5 36.5t-76.5 13.5v-502q26 -4 39 -4zM120 233q4 -92 45.5 -154t106.5 -78v499h-3q-75 -6 -114.5 -81t-34.5 -186z" />
    <glyph glyph-name="sterling" unicode="&#xa3;" horiz-adv-x="529" 
d="M479 138h5l-22 -138h-417v5q47 0 86.5 37.5t51.5 123.5q11 77 -15 187h-91v5h90q-5 21 -21 78.5t-22.5 93t-5.5 66.5q2 44 21 74.5t49.5 44t58 19t57.5 5.5q96 0 143 -44q21 -19 24.5 -40t-9.5 -35q-12 -15 -35.5 -11.5t-32.5 24.5q-4 8 -4.5 28t-2 34.5t-18 26.5
t-50.5 12q-50 0 -77.5 -17t-34 -54.5t1 -86t28.5 -123.5q16 -62 23 -95h151v-5h-150q28 -142 -10.5 -224.5t-163.5 -123.5h118q103 0 168.5 33.5t105.5 99.5z" />
    <glyph glyph-name="currency" unicode="&#xa4;" horiz-adv-x="492" 
d="M396 326q0 -59 -43 -104l89 -80l-10 -10l-82 86q-44 -42 -105 -42q-59 0 -103 41l-82 -85l-10 10l88 79q-43 45 -43 105q0 61 44 105l-89 80l10 10l82 -86q44 41 103 41q60 0 104 -42l83 87l10 -10l-89 -80q43 -45 43 -105zM100 326q0 -60 42.5 -102.5t102.5 -42.5
q61 0 103.5 42.5t42.5 102.5t-42.5 102.5t-103.5 42.5q-60 0 -102.5 -42.5t-42.5 -102.5z" />
    <glyph glyph-name="yen" unicode="&#xa5;" horiz-adv-x="675" 
d="M432 700h213v-5q-49 -8 -92 -49.5t-68 -105.5q-32 -80 -89 -242h128v-5h-129v-63h129v-4h-129v-111q1 -61 12 -85.5t51 -24.5v-5h-213v5q40 0 51.5 24.5t11.5 85.5v111h-128v4h128v63h-128v5h127q-20 37 -66.5 127t-58.5 113q-81 157 -152 157v5h220v-5q-14 0 -20.5 -9
t-5.5 -22.5t5.5 -28t10.5 -27.5q126 -246 154 -302q70 194 71 198q30 69 22.5 130t-55.5 61v5z" />
    <glyph glyph-name="brokenbar" unicode="&#xa6;" horiz-adv-x="105" 
d="M50 -12v271h5v-271h-5zM50 719h5v-271h-5v271z" />
    <glyph glyph-name="section" unicode="&#xa7;" horiz-adv-x="415" 
d="M208 599q0 -44 18.5 -87t44.5 -78t51.5 -69.5t42 -75t14.5 -81.5q-5 -106 -91 -159.5t-218 -53.5h-1v4q58 0 97 30t44 85q4 40 -11.5 79.5t-41.5 74t-52.5 69.5t-46.5 78.5t-22 87.5q-3 57 29 100.5t82 66t99 33.5t92 11v-3q-48 0 -89 -28.5t-41 -83.5zM336 182
q3 40 -13.5 80.5t-42.5 75.5t-51.5 70t-43.5 77.5t-17 85.5q3 91 84 127q-67 -18 -119 -60t-52 -107q0 -44 19 -86.5t45 -77l52 -69t42 -75.5t13 -83q-9 -103 -98 -133q42 8 79.5 27.5t68 58.5t34.5 89z" />
    <glyph glyph-name="dieresis" unicode="&#xa8;" horiz-adv-x="279" 
d="M89 669q16 0 27.5 -11.5t11.5 -27.5t-11.5 -27t-27.5 -11t-27.5 11t-11.5 27t11.5 27.5t27.5 11.5zM191 669q16 0 27 -11.5t11 -27.5t-11 -27t-27 -11t-27.5 11t-11.5 27t11 27.5t28 11.5z" />
    <glyph glyph-name="guillemotleft" unicode="&#xab;" horiz-adv-x="412" 
d="M154 346l208 170v-5l-181 -167l181 -167v-5l-208 169v5zM50 346l208 170v-5l-181 -167l181 -167v-5l-208 169v5z" />
    <glyph glyph-name="macron" unicode="&#xaf;" horiz-adv-x="274" 
d="M50 627h174v-5h-174v5z" />
    <glyph glyph-name="degree" unicode="&#xb0;" horiz-adv-x="241" 
d="M120 571q-29 0 -49.5 20.5t-20.5 49.5t20.5 49.5t49.5 20.5t50 -20.5t21 -49.5t-21 -49.5t-50 -20.5zM120 707q-27 0 -46 -19.5t-19 -46.5t19 -46t46 -19t46.5 19t19.5 46t-19.5 46.5t-46.5 19.5z" />
    <glyph glyph-name="plusminus" unicode="&#xb1;" horiz-adv-x="381" 
d="M193 313h138v-5h-138v-138h-5v138h-138v5h138v138h5v-138zM50 122v5h281v-5h-281z" />
    <glyph glyph-name="acute" unicode="&#xb4;" horiz-adv-x="195" 
d="M50 569l39 111h56l-90 -111h-5z" />
    <glyph glyph-name="paragraph" unicode="&#xb6;" horiz-adv-x="262" 
d="M207 709h5v-709h-5v709zM50 573q0 66 34.5 101t88.5 35v-709h-5v436q-52 2 -85 37.5t-33 99.5z" />
    <glyph glyph-name="middot" unicode="&#xb7;" horiz-adv-x="178" 
d="M89 669q16 0 27.5 -11.5t11.5 -27.5t-11.5 -27t-27.5 -11t-27.5 11t-11.5 27t11.5 27.5t27.5 11.5z" />
    <glyph glyph-name="cedilla" unicode="&#xb8;" horiz-adv-x="222" 
d="M85 -23q51 4 72 -16.5t11 -54.5q-7 -24 -31 -34t-52 -3q-18 5 -35 22v11q15 -21 30 -27q18 -6 31.5 6.5t16.5 32.5q2 15 2 29t-12.5 23t-37.5 8q2 5 9 22l3 -1q-4 -12 -7 -18z" />
    <glyph glyph-name="guillemotright" unicode="&#xbb;" horiz-adv-x="412" 
d="M50 516l208 -170v-5l-208 -169v5l181 167l-181 167v5zM154 516l208 -170v-5l-208 -169v5l181 167l-181 167v5z" />
    <glyph glyph-name="questiondown" unicode="&#xbf;" horiz-adv-x="420" 
d="M294 -97q33 -12 56 -44.5t27.5 -72t-6 -77t-47 -62.5t-92.5 -25q-38 0 -71 7.5t-64 26t-46 55t-8 88.5q5 39 28.5 74.5t52.5 64.5t57 60t47.5 74t19.5 93h5q3 -53 -11 -105t-34.5 -87t-41.5 -81.5t-27 -85.5q-12 -73 14 -126.5t91 -53.5q55 0 88 34t37 78t-15.5 88.5
t-59.5 62.5v14zM246 245q-20 0 -34 14t-14 34t14 34t34 14t34 -14t14 -34t-14 -34t-34 -14z" />
    <glyph glyph-name="Agrave" unicode="&#xc0;" horiz-adv-x="712" 
d="M591 139l16.5 -39t17.5 -35t22.5 -32.5t26 -19t33.5 -8.5v-5h-220v5q36 0 42 18.5t-14 73.5q-8 22 -69 181h-240q-24 -61 -32 -82q-26 -64 -15 -127.5t59 -63.5v-5h-213v5q49 8 85 44.5t65 110.5l211 540h9q189 -497 216 -561zM208 283h236q-102 267 -117 305
q-75 -192 -119 -305zM314 880l39 -111h-5l-89 111h55z" />
    <glyph glyph-name="Aacute" unicode="&#xc1;" horiz-adv-x="712" 
d="M591 139l16.5 -39t17.5 -35t22.5 -32.5t26 -19t33.5 -8.5v-5h-220v5q36 0 42 18.5t-14 73.5q-8 22 -69 181h-240q-24 -61 -32 -82q-26 -64 -15 -127.5t59 -63.5v-5h-213v5q49 8 85 44.5t65 110.5l211 540h9q189 -497 216 -561zM208 283h236q-102 267 -117 305
q-75 -192 -119 -305zM378 769l39 111h56l-90 -111h-5z" />
    <glyph glyph-name="Acircumflex" unicode="&#xc2;" horiz-adv-x="712" 
d="M591 139l16.5 -39t17.5 -35t22.5 -32.5t26 -19t33.5 -8.5v-5h-220v5q36 0 42 18.5t-14 73.5q-8 22 -69 181h-240q-24 -61 -32 -82q-26 -64 -15 -127.5t59 -63.5v-5h-213v5q49 8 85 44.5t65 110.5l211 540h9q189 -497 216 -561zM208 283h236q-102 267 -117 305
q-75 -192 -119 -305zM397 880l97 -111h-4l-119 74l-119 -74h-5l97 111h53z" />
    <glyph glyph-name="Atilde" unicode="&#xc3;" horiz-adv-x="712" 
d="M591 139l16.5 -39t17.5 -35t22.5 -32.5t26 -19t33.5 -8.5v-5h-220v5q36 0 42 18.5t-14 73.5q-8 22 -69 181h-240q-24 -61 -32 -82q-26 -64 -15 -127.5t59 -63.5v-5h-213v5q49 8 85 44.5t65 110.5l211 540h9q189 -497 216 -561zM208 283h236q-102 267 -117 305
q-75 -192 -119 -305zM420 797q-17 1 -51.5 10.5t-45.5 10.5q-29 4 -41 -18h-5q0 4 3 16.5t14.5 29t28.5 18.5q10 1 29.5 -3t41 -9.5t26.5 -6.5q32 -6 39 18h5q0 -11 -2.5 -24.5t-13 -28t-28.5 -13.5z" />
    <glyph glyph-name="Adieresis" unicode="&#xc4;" horiz-adv-x="712" 
d="M591 139l16.5 -39t17.5 -35t22.5 -32.5t26 -19t33.5 -8.5v-5h-220v5q36 0 42 18.5t-14 73.5q-8 22 -69 181h-240q-24 -61 -32 -82q-26 -64 -15 -127.5t59 -63.5v-5h-213v5q49 8 85 44.5t65 110.5l211 540h9q189 -497 216 -561zM208 283h236q-102 267 -117 305
q-75 -192 -119 -305zM321 869q16 0 27.5 -11.5t11.5 -27.5t-11.5 -27t-27.5 -11t-27.5 11t-11.5 27t11.5 27.5t27.5 11.5zM423 869q16 0 27 -11.5t11 -27.5t-11 -27t-27 -11t-27.5 11t-11.5 27t11 27.5t28 11.5z" />
    <glyph glyph-name="Aring" unicode="&#xc5;" horiz-adv-x="712" 
d="M591 139l16.5 -39t17.5 -35t22.5 -32.5t26 -19t33.5 -8.5v-5h-220v5q36 0 42 18.5t-14 73.5q-8 22 -69 181h-240q-24 -61 -32 -82q-26 -64 -15 -127.5t59 -63.5v-5h-213v5q49 8 85 44.5t65 110.5l211 540h9q189 -497 216 -561zM208 283h236q-102 267 -117 305
q-75 -192 -119 -305zM371 757q-24 0 -41 17t-17 41t17 41t41 17t41 -17t17 -41t-17 -41t-41 -17zM371 868q-22 0 -37.5 -15.5t-15.5 -37.5t15.5 -38t37.5 -16q23 0 38.5 15.5t15.5 38.5q0 22 -16 37.5t-38 15.5z" />
    <glyph glyph-name="AE" unicode="&#xc6;" horiz-adv-x="984" 
d="M954 170h5l-41 -170h-485v5q40 0 51.5 24.5t11.5 85.5v164h-238q-11 -19 -22 -38.5t-17.5 -30.5t-7.5 -14q-24 -41 -34.5 -84.5t-0.5 -75t42 -31.5v-5h-213v5q99 19 179 155l312 540h390l34 -138h-5q-25 57 -71 95t-115 38h-82q-40 0 -51.5 -24.5t-11.5 -85.5v-234h72
q58 0 99.5 36.5t41.5 87.5h5v-252h-5q0 51 -41.5 87t-99.5 36h-72v-231q0 -61 11.5 -85.5t51.5 -24.5h113q36 0 68.5 16t56.5 42.5t40.5 52.5t28.5 54zM261 283h235v409q-225 -392 -235 -409z" />
    <glyph glyph-name="Ccedilla" unicode="&#xc7;" horiz-adv-x="732" 
d="M454 -7q-2 0 -8 -0.5t-8 -0.5q-4 -9 -6 -15q50 4 71.5 -17t11.5 -54q-7 -24 -31 -34t-52 -3q-18 5 -35 22v11q15 -21 30 -27q18 -6 31.5 6.5t16.5 32.5q2 15 2 29t-12.5 23t-37.5 8l2 4t2 6t3 8q-155 -3 -264 84t-123 241q-14 160 85 268t259 122q73 7 201 -24
q38 -12 55.5 -3t17.5 56h5v-252h-5q0 47 -37.5 102t-84.5 82q-77 42 -152 34q-114 -10 -185.5 -120.5t-58.5 -256.5q13 -145 100.5 -237.5t206.5 -89.5q124 3 228 97v-16q-98 -78 -228 -86z" />
    <glyph glyph-name="Egrave" unicode="&#xc8;" horiz-adv-x="601" 
d="M571 169h5l-41 -169h-485v5q40 0 51.5 24.5t11.5 85.5v470q0 61 -11.5 85.5t-51.5 24.5v5h453l34 -138h-5q-25 57 -71 95t-115 38h-83q-40 0 -51 -24.5t-12 -85.5v-234h73q58 0 99 36t41 87h5v-251h-5q0 51 -41 87t-99 36h-73v-231q1 -61 12 -85.5t51 -24.5h114
q67 0 116 50t78 114zM301 880l39 -111h-5l-89 111h55z" />
    <glyph glyph-name="Eacute" unicode="&#xc9;" horiz-adv-x="601" 
d="M571 169h5l-41 -169h-485v5q40 0 51.5 24.5t11.5 85.5v470q0 61 -11.5 85.5t-51.5 24.5v5h453l34 -138h-5q-25 57 -71 95t-115 38h-83q-40 0 -51 -24.5t-12 -85.5v-234h73q58 0 99 36t41 87h5v-251h-5q0 51 -41 87t-99 36h-73v-231q1 -61 12 -85.5t51 -24.5h114
q67 0 116 50t78 114zM316 769l39 111h56l-90 -111h-5z" />
    <glyph glyph-name="Ecircumflex" unicode="&#xca;" horiz-adv-x="601" 
d="M571 169h5l-41 -169h-485v5q40 0 51.5 24.5t11.5 85.5v470q0 61 -11.5 85.5t-51.5 24.5v5h453l34 -138h-5q-25 57 -71 95t-115 38h-83q-40 0 -51 -24.5t-12 -85.5v-234h73q58 0 99 36t41 87h5v-251h-5q0 51 -41 87t-99 36h-73v-231q1 -61 12 -85.5t51 -24.5h114
q67 0 116 50t78 114zM350 880l97 -111h-4l-119 74l-119 -74h-5l97 111h53z" />
    <glyph glyph-name="Edieresis" unicode="&#xcb;" horiz-adv-x="601" 
d="M571 169h5l-41 -169h-485v5q40 0 51.5 24.5t11.5 85.5v470q0 61 -11.5 85.5t-51.5 24.5v5h453l34 -138h-5q-25 57 -71 95t-115 38h-83q-40 0 -51 -24.5t-12 -85.5v-234h73q58 0 99 36t41 87h5v-251h-5q0 51 -41 87t-99 36h-73v-231q1 -61 12 -85.5t51 -24.5h114
q67 0 116 50t78 114zM273 869q16 0 27.5 -11.5t11.5 -27.5t-11.5 -27t-27.5 -11t-27.5 11t-11.5 27t11.5 27.5t27.5 11.5zM375 869q16 0 27 -11.5t11 -27.5t-11 -27t-27 -11t-27.5 11t-11.5 27t11 27.5t28 11.5z" />
    <glyph glyph-name="Igrave" unicode="&#xcc;" horiz-adv-x="313" 
d="M200 585v-470q1 -61 12 -85.5t51 -24.5v-5h-213v5q40 0 51.5 24.5t11.5 85.5v470q0 61 -11.5 85.5t-51.5 24.5v5h213v-5q-40 0 -51 -24.5t-12 -85.5zM125 880l39 -111h-5l-89 111h55z" />
    <glyph glyph-name="Iacute" unicode="&#xcd;" horiz-adv-x="313" 
d="M200 585v-470q1 -61 12 -85.5t51 -24.5v-5h-213v5q40 0 51.5 24.5t11.5 85.5v470q0 61 -11.5 85.5t-51.5 24.5v5h213v-5q-40 0 -51 -24.5t-12 -85.5zM149 769l39 111h56l-90 -111h-5z" />
    <glyph glyph-name="Icircumflex" unicode="&#xce;" horiz-adv-x="313" 
d="M200 585v-470q1 -61 12 -85.5t51 -24.5v-5h-213v5q40 0 51.5 24.5t11.5 85.5v470q0 61 -11.5 85.5t-51.5 24.5v5h213v-5q-40 0 -51 -24.5t-12 -85.5zM183 880l97 -111h-4l-119 74l-119 -74h-5l97 111h53z" />
    <glyph glyph-name="Idieresis" unicode="&#xcf;" horiz-adv-x="313" 
d="M200 585v-470q1 -61 12 -85.5t51 -24.5v-5h-213v5q40 0 51.5 24.5t11.5 85.5v470q0 61 -11.5 85.5t-51.5 24.5v5h213v-5q-40 0 -51 -24.5t-12 -85.5zM106 869q16 0 27.5 -11.5t11.5 -27.5t-11.5 -27t-27.5 -11t-27.5 11t-11.5 27t11.5 27.5t27.5 11.5zM208 869
q16 0 27 -11.5t11 -27.5t-11 -27t-27 -11t-27.5 11t-11.5 27t11.5 27.5t27.5 11.5z" />
    <glyph glyph-name="Eth" unicode="&#xd0;" horiz-adv-x="752" 
d="M384 700q156 0 239.5 -98t83.5 -252t-83.5 -252t-239.5 -98h-334v5q40 0 51.5 24.5t11.5 85.5v231h-63v5h63v234q0 61 -11.5 85.5t-51.5 24.5v5h334zM340 5q52 0 97 17t84.5 54.5t62.5 107.5t23 166t-23 166t-62.5 107.5t-84.5 54.5t-97 17h-77q-40 0 -51 -24t-12 -86
v-234h194v-5h-194v-231q1 -62 12 -86t51 -24h77z" />
    <glyph glyph-name="Ntilde" unicode="&#xd1;" horiz-adv-x="791" 
d="M514 700h252v-5q-52 0 -87.5 -51.5t-35.5 -137.5v-506h-12q-3 3 -234 298t-244 310v-414q0 -87 35.5 -138t88.5 -51v-5h-252v5q53 0 88 51t35 138v420q-66 81 -116 81v5h167l439 -568v374q0 87 -35.5 138t-88.5 51v5zM465 797q-17 1 -51.5 10.5t-45.5 10.5q-29 4 -41 -18
h-5q0 4 3 16.5t14.5 29t28.5 18.5q10 1 29.5 -3t41 -9.5t26.5 -6.5q32 -6 39 18h5q0 -11 -2.5 -24.5t-13 -28t-28.5 -13.5z" />
    <glyph glyph-name="Ograve" unicode="&#xd2;" horiz-adv-x="845" 
d="M391 707q159 15 275.5 -74t131.5 -250q14 -160 -85 -268t-259 -122q-159 -15 -275.5 74t-131.5 249q-14 161 85 269t259 122zM454 -2q114 11 185.5 121t58.5 256t-103 241.5t-204 85.5t-185.5 -120.5t-58.5 -256.5q13 -145 103 -241t204 -86zM390 880l39 -111h-5l-89 111
h55z" />
    <glyph glyph-name="Oacute" unicode="&#xd3;" horiz-adv-x="845" 
d="M391 707q159 15 275.5 -74t131.5 -250q14 -160 -85 -268t-259 -122q-159 -15 -275.5 74t-131.5 249q-14 161 85 269t259 122zM454 -2q114 11 185.5 121t58.5 256t-103 241.5t-204 85.5t-185.5 -120.5t-58.5 -256.5q13 -145 103 -241t204 -86zM405 769l39 111h56l-90 -111
h-5z" />
    <glyph glyph-name="Ocircumflex" unicode="&#xd4;" horiz-adv-x="845" 
d="M391 707q159 15 275.5 -74t131.5 -250q14 -160 -85 -268t-259 -122q-159 -15 -275.5 74t-131.5 249q-14 161 85 269t259 122zM454 -2q114 11 185.5 121t58.5 256t-103 241.5t-204 85.5t-185.5 -120.5t-58.5 -256.5q13 -145 103 -241t204 -86zM449 880l97 -111h-4l-119 74
l-119 -74h-5l97 111h53z" />
    <glyph glyph-name="Otilde" unicode="&#xd5;" horiz-adv-x="845" 
d="M391 707q159 15 275.5 -74t131.5 -250q14 -160 -85 -268t-259 -122q-159 -15 -275.5 74t-131.5 249q-14 161 85 269t259 122zM454 -2q114 11 185.5 121t58.5 256t-103 241.5t-204 85.5t-185.5 -120.5t-58.5 -256.5q13 -145 103 -241t204 -86zM472 797q-17 1 -51.5 10.5
t-45.5 10.5q-29 4 -41 -18h-5q0 4 3 16.5t14.5 29t28.5 18.5q10 1 29.5 -3t41 -9.5t26.5 -6.5q32 -6 39 18h5q0 -11 -2.5 -24.5t-13 -28t-28.5 -13.5z" />
    <glyph glyph-name="Odieresis" unicode="&#xd6;" horiz-adv-x="845" 
d="M391 707q159 15 275.5 -74t131.5 -250q14 -160 -85 -268t-259 -122q-159 -15 -275.5 74t-131.5 249q-14 161 85 269t259 122zM454 -2q114 11 185.5 121t58.5 256t-103 241.5t-204 85.5t-185.5 -120.5t-58.5 -256.5q13 -145 103 -241t204 -86zM372 869q16 0 27.5 -11.5
t11.5 -27.5t-11.5 -27t-27.5 -11t-27.5 11t-11.5 27t11.5 27.5t27.5 11.5zM474 869q16 0 27 -11.5t11 -27.5t-11 -27t-27 -11t-27.5 11t-11.5 27t11.5 27.5t27.5 11.5z" />
    <glyph glyph-name="multiply" unicode="&#xd7;" horiz-adv-x="302" 
d="M252 379l-98 -98l98 -97l-3 -4l-98 98l-98 -98l-3 4l98 97l-98 98l3 3l98 -97l98 97z" />
    <glyph glyph-name="Oslash" unicode="&#xd8;" horiz-adv-x="844" 
d="M797 383q14 -160 -85 -268t-258 -122q-65 -6 -124 6l-15 -52h-5l15 53q-115 25 -191 108t-87 208q-15 160 84 268t259 123q62 6 124 -7l14 53h5l-14 -54q115 -24 191 -107t87 -209zM146 325q10 -104 60.5 -185.5t124.5 -117.5l178 658q-57 28 -119 22
q-114 -11 -185.5 -121t-58.5 -256zM453 -2q115 10 186.5 120.5t57.5 256.5q-9 102 -59.5 184t-124.5 119l-178 -658q57 -28 118 -22z" />
    <glyph glyph-name="Ugrave" unicode="&#xd9;" horiz-adv-x="706" 
d="M525 700h131v-5q-40 0 -51.5 -24.5t-11.5 -85.5v-367q0 -63 -19 -109t-52.5 -71t-72 -36.5t-84.5 -11.5q-44 0 -86 11.5t-80.5 36.5t-62 71.5t-23.5 108.5v367q0 61 -11.5 85.5t-51.5 24.5v5h213v-5q-40 0 -51 -24t-12 -86v-379q0 -95 46.5 -152t118.5 -57
q113 0 168 58.5t55 162.5v367q0 61 -11.5 85.5t-51.5 24.5v5zM351 880l39 -111h-5l-89 111h55z" />
    <glyph glyph-name="Uacute" unicode="&#xda;" horiz-adv-x="706" 
d="M525 700h131v-5q-40 0 -51.5 -24.5t-11.5 -85.5v-367q0 -63 -19 -109t-52.5 -71t-72 -36.5t-84.5 -11.5q-44 0 -86 11.5t-80.5 36.5t-62 71.5t-23.5 108.5v367q0 61 -11.5 85.5t-51.5 24.5v5h213v-5q-40 0 -51 -24t-12 -86v-379q0 -95 46.5 -152t118.5 -57
q113 0 168 58.5t55 162.5v367q0 61 -11.5 85.5t-51.5 24.5v5zM375 769l39 111h56l-90 -111h-5z" />
    <glyph glyph-name="Ucircumflex" unicode="&#xdb;" horiz-adv-x="706" 
d="M525 700h131v-5q-40 0 -51.5 -24.5t-11.5 -85.5v-367q0 -63 -19 -109t-52.5 -71t-72 -36.5t-84.5 -11.5q-44 0 -86 11.5t-80.5 36.5t-62 71.5t-23.5 108.5v367q0 61 -11.5 85.5t-51.5 24.5v5h213v-5q-40 0 -51 -24t-12 -86v-379q0 -95 46.5 -152t118.5 -57
q113 0 168 58.5t55 162.5v367q0 61 -11.5 85.5t-51.5 24.5v5zM420 880l97 -111h-4l-119 74l-119 -74h-5l97 111h53z" />
    <glyph glyph-name="Udieresis" unicode="&#xdc;" horiz-adv-x="706" 
d="M525 700h131v-5q-40 0 -51.5 -24.5t-11.5 -85.5v-367q0 -63 -19 -109t-52.5 -71t-72 -36.5t-84.5 -11.5q-44 0 -86 11.5t-80.5 36.5t-62 71.5t-23.5 108.5v367q0 61 -11.5 85.5t-51.5 24.5v5h213v-5q-40 0 -51 -24t-12 -86v-379q0 -95 46.5 -152t118.5 -57
q113 0 168 58.5t55 162.5v367q0 61 -11.5 85.5t-51.5 24.5v5zM343 869q16 0 27.5 -11.5t11.5 -27.5t-11.5 -27t-27.5 -11t-27.5 11t-11.5 27t11.5 27.5t27.5 11.5zM445 869q16 0 27 -11.5t11 -27.5t-11 -27t-27 -11t-27.5 11t-11.5 27t11 27.5t28 11.5z" />
    <glyph glyph-name="Yacute" unicode="&#xdd;" horiz-adv-x="676" 
d="M433 700h213v-5q-49 -9 -92 -50t-68 -105q-33 -86 -90 -244v-181q1 -61 12 -85.5t51 -24.5v-5h-213v5q40 0 51.5 24.5t11.5 85.5v180q-18 34 -65.5 126t-60.5 117q-82 157 -153 157v5h221v-5q-14 0 -20.5 -9t-5.5 -22.5t5.5 -28t10.5 -27.5q105 -205 154 -303
q62 175 72 199q29 69 21.5 130t-55.5 61v5zM350 769l39 111h56l-90 -111h-5z" />
    <glyph glyph-name="Thorn" unicode="&#xde;" horiz-adv-x="572" 
d="M307 551q94 0 162 -53.5t68 -147.5t-68 -147.5t-162 -53.5h-107v-34q0 -61 11.5 -85.5t51.5 -24.5v-5h-213v5q40 0 51 24t12 86v470q-1 62 -12 86t-51 24v5h213v-5q-40 0 -51.5 -24.5t-11.5 -85.5v-34h107zM295 154q56 0 100.5 51.5t44.5 144.5t-44.5 144.5t-100.5 51.5
h-95v-392h95z" />
    <glyph glyph-name="germandbls" unicode="&#xdf;" horiz-adv-x="655" 
d="M607 160q23 -64 -17.5 -116.5t-124.5 -52.5q-44 0 -90 19q-18 8 -35.5 9.5t-33.5 -11.5t-16 -44h-5v252h5q0 -32 18.5 -82.5t56.5 -94.5t80 -44q50 0 72 40.5t-4 109.5q-17 40 -51.5 76t-62.5 60.5t-50 55.5t-18.5 78t37.5 113q33 61 19 111.5t-70 63.5q-66 16 -91 -25
t-25 -143v-420q0 -61 11.5 -85.5t51.5 -24.5v-5h-214v5q40 0 51.5 24.5t11.5 85.5v408q0 123 58 166t146 21q34 -9 53.5 -29t23.5 -46t-1 -53t-18 -54q-28 -50 -24 -90.5t24 -64t55 -49t68.5 -45t64.5 -51.5t44 -68z" />
    <glyph glyph-name="agrave" unicode="&#xe0;" horiz-adv-x="502" 
d="M448 -2q19 0 34 10v-5q-20 -12 -47 -12q-50 0 -81 19.5t-36 75.5q-38 -68 -98 -87q-28 -10 -59.5 -8.5t-58 10.5t-42.5 33.5t-14 60.5q2 25 14.5 45.5t29.5 33.5t42.5 24t45.5 16.5t47 12.5t39 11q29 10 53 24v89q0 73 -17 110.5t-68 37.5q-88 0 -111 -53
q-5 -19 -2.5 -26.5t11.5 -22t12 -24.5q5 -20 -9.5 -34.5t-35.5 -9.5t-27.5 28t5.5 50q44 96 160 96q74 0 119 -37.5t45 -109.5v-252q0 -58 8.5 -82t40.5 -24zM237 10q49 23 81 81q-1 6 -1 18v149q-18 -11 -49 -23q-8 -3 -32.5 -10t-40 -13.5t-35 -18t-31 -30.5t-14.5 -45
q-8 -75 31.5 -103.5t90.5 -4.5zM222 680l39 -111h-5l-89 111h55z" />
    <glyph glyph-name="aacute" unicode="&#xe1;" horiz-adv-x="502" 
d="M448 -2q19 0 34 10v-5q-20 -12 -47 -12q-50 0 -81 19.5t-36 75.5q-38 -68 -98 -87q-28 -10 -59.5 -8.5t-58 10.5t-42.5 33.5t-14 60.5q2 25 14.5 45.5t29.5 33.5t42.5 24t45.5 16.5t47 12.5t39 11q29 10 53 24v89q0 73 -17 110.5t-68 37.5q-88 0 -111 -53
q-5 -19 -2.5 -26.5t11.5 -22t12 -24.5q5 -20 -9.5 -34.5t-35.5 -9.5t-27.5 28t5.5 50q44 96 160 96q74 0 119 -37.5t45 -109.5v-252q0 -58 8.5 -82t40.5 -24zM237 10q49 23 81 81q-1 6 -1 18v149q-18 -11 -49 -23q-8 -3 -32.5 -10t-40 -13.5t-35 -18t-31 -30.5t-14.5 -45
q-8 -75 31.5 -103.5t90.5 -4.5zM236 569l39 111h56l-90 -111h-5z" />
    <glyph glyph-name="acircumflex" unicode="&#xe2;" horiz-adv-x="502" 
d="M448 -2q19 0 34 10v-5q-20 -12 -47 -12q-50 0 -81 19.5t-36 75.5q-38 -68 -98 -87q-28 -10 -59.5 -8.5t-58 10.5t-42.5 33.5t-14 60.5q2 25 14.5 45.5t29.5 33.5t42.5 24t45.5 16.5t47 12.5t39 11q29 10 53 24v89q0 73 -17 110.5t-68 37.5q-88 0 -111 -53
q-5 -19 -2.5 -26.5t11.5 -22t12 -24.5q5 -20 -9.5 -34.5t-35.5 -9.5t-27.5 28t5.5 50q44 96 160 96q74 0 119 -37.5t45 -109.5v-252q0 -58 8.5 -82t40.5 -24zM237 10q49 23 81 81q-1 6 -1 18v149q-18 -11 -49 -23q-8 -3 -32.5 -10t-40 -13.5t-35 -18t-31 -30.5t-14.5 -45
q-8 -75 31.5 -103.5t90.5 -4.5zM260 680l97 -111h-4l-119 74l-119 -74h-5l97 111h53z" />
    <glyph glyph-name="atilde" unicode="&#xe3;" horiz-adv-x="502" 
d="M448 -2q19 0 34 10v-5q-20 -12 -47 -12q-50 0 -81 19.5t-36 75.5q-38 -68 -98 -87q-28 -10 -59.5 -8.5t-58 10.5t-42.5 33.5t-14 60.5q2 25 14.5 45.5t29.5 33.5t42.5 24t45.5 16.5t47 12.5t39 11q29 10 53 24v89q0 73 -17 110.5t-68 37.5q-88 0 -111 -53
q-5 -19 -2.5 -26.5t11.5 -22t12 -24.5q5 -20 -9.5 -34.5t-35.5 -9.5t-27.5 28t5.5 50q44 96 160 96q74 0 119 -37.5t45 -109.5v-252q0 -58 8.5 -82t40.5 -24zM237 10q49 23 81 81q-1 6 -1 18v149q-18 -11 -49 -23q-8 -3 -32.5 -10t-40 -13.5t-35 -18t-31 -30.5t-14.5 -45
q-8 -75 31.5 -103.5t90.5 -4.5zM283 597q-17 1 -51.5 10.5t-45.5 10.5q-29 4 -41 -18h-5q0 4 3 16.5t14.5 29t28.5 18.5q10 1 29.5 -3t41 -9.5t26.5 -6.5q32 -6 39 18h5q0 -11 -2.5 -24.5t-13 -28t-28.5 -13.5z" />
    <glyph glyph-name="adieresis" unicode="&#xe4;" horiz-adv-x="502" 
d="M448 -2q19 0 34 10v-5q-20 -12 -47 -12q-50 0 -81 19.5t-36 75.5q-38 -68 -98 -87q-28 -10 -59.5 -8.5t-58 10.5t-42.5 33.5t-14 60.5q2 25 14.5 45.5t29.5 33.5t42.5 24t45.5 16.5t47 12.5t39 11q29 10 53 24v89q0 73 -17 110.5t-68 37.5q-88 0 -111 -53
q-5 -19 -2.5 -26.5t11.5 -22t12 -24.5q5 -20 -9.5 -34.5t-35.5 -9.5t-27.5 28t5.5 50q44 96 160 96q74 0 119 -37.5t45 -109.5v-252q0 -58 8.5 -82t40.5 -24zM237 10q49 23 81 81q-1 6 -1 18v149q-18 -11 -49 -23q-8 -3 -32.5 -10t-40 -13.5t-35 -18t-31 -30.5t-14.5 -45
q-8 -75 31.5 -103.5t90.5 -4.5zM173 669q16 0 27.5 -11.5t11.5 -27.5t-11.5 -27t-27.5 -11t-27.5 11t-11.5 27t11.5 27.5t27.5 11.5zM275 669q16 0 27 -11.5t11 -27.5t-11 -27t-27 -11t-27.5 11t-11.5 27t11 27.5t28 11.5z" />
    <glyph glyph-name="aring" unicode="&#xe5;" horiz-adv-x="502" 
d="M448 -2q19 0 34 10v-5q-20 -12 -47 -12q-50 0 -81 19.5t-36 75.5q-38 -68 -98 -87q-28 -10 -59.5 -8.5t-58 10.5t-42.5 33.5t-14 60.5q2 25 14.5 45.5t29.5 33.5t42.5 24t45.5 16.5t47 12.5t39 11q29 10 53 24v89q0 73 -17 110.5t-68 37.5q-88 0 -111 -53
q-5 -19 -2.5 -26.5t11.5 -22t12 -24.5q5 -20 -9.5 -34.5t-35.5 -9.5t-27.5 28t5.5 50q44 96 160 96q74 0 119 -37.5t45 -109.5v-252q0 -58 8.5 -82t40.5 -24zM237 10q49 23 81 81q-1 6 -1 18v149q-18 -11 -49 -23q-8 -3 -32.5 -10t-40 -13.5t-35 -18t-31 -30.5t-14.5 -45
q-8 -75 31.5 -103.5t90.5 -4.5zM224 557q-24 0 -41 17t-17 41t17 41t41 17t41 -17t17 -41t-17 -41t-41 -17zM224 668q-22 0 -37.5 -15.5t-15.5 -37.5t15.5 -38t37.5 -16t38 15.5t16 38.5q0 22 -16 37.5t-38 15.5z" />
    <glyph glyph-name="ae" unicode="&#xe6;" horiz-adv-x="825" 
d="M790 333h-377q-8 -53 -4 -102q10 -111 65 -174.5t136 -61.5q87 3 157 69v-11q-65 -56 -157 -62q-87 -6 -161 31t-108 113q-42 -113 -120 -136q-65 -20 -122 3.5t-53 91.5q2 30 18 53t44 37.5t51.5 22.5t58 17t46.5 13q36 12 56 26v88q0 72 -18.5 110t-68.5 38
q-87 0 -112 -54q-8 -18 6.5 -42t15.5 -30q5 -20 -9.5 -34.5t-35.5 -10.5q-21 5 -27.5 28t5.5 51q45 96 159 96q115 0 151 -80q69 72 177 80q89 7 151 -39t76 -131zM563 499q-56 1 -95.5 -44t-53.5 -118h291q-15 161 -142 162zM238 10q68 33 102 129q-17 40 -20 89
q0 1 -0.5 11t-0.5 19q-22 -13 -50 -23q-9 -4 -32.5 -10.5t-40 -13.5t-35.5 -18.5t-30.5 -30.5t-14.5 -45q-8 -74 32 -102.5t90 -4.5z" />
    <glyph glyph-name="ccedilla" unicode="&#xe7;" horiz-adv-x="500" 
d="M316 -5q36 1 76 21.5t63 44.5v-12q-70 -52 -139 -58h-15q-3 -8 -5 -14q51 4 72 -16.5t11 -54.5q-7 -24 -31 -34t-52 -3q-18 5 -35 22v11q15 -21 30 -27q18 -6 31.5 6.5t16.5 32.5q2 15 2 29t-12.5 23t-37.5 8q1 2 7 17q-107 -2 -182 60.5t-80 178.5q-5 121 59.5 191.5
t173.5 81.5q67 7 119.5 -23.5t68.5 -64.5q12 -28 5.5 -51t-27.5 -28q-20 -5 -34.5 10t-9.5 35q2 9 11 23.5t10 20.5t-8 26q-16 23 -54 37t-81 11q-75 -6 -114.5 -81t-34.5 -186q4 -106 59.5 -172t136.5 -65z" />
    <glyph glyph-name="egrave" unicode="&#xe8;" horiz-adv-x="541" 
d="M36 229zM506 333h-377q-8 -51 -4 -101q10 -111 65 -175t136 -62q86 1 157 70v-11q-66 -57 -157 -63q-112 -7 -196.5 56.5t-93.5 181.5q-7 113 64 189.5t179 84.5q89 7 151 -39t76 -131zM279 499q-56 1 -95.5 -44t-53.5 -118h291q-16 160 -142 162zM239 680l39 -111h-5
l-89 111h55z" />
    <glyph glyph-name="eacute" unicode="&#xe9;" horiz-adv-x="541" 
d="M36 229zM506 333h-377q-8 -51 -4 -101q10 -111 65 -175t136 -62q86 1 157 70v-11q-66 -57 -157 -63q-112 -7 -196.5 56.5t-93.5 181.5q-7 113 64 189.5t179 84.5q89 7 151 -39t76 -131zM279 499q-56 1 -95.5 -44t-53.5 -118h291q-16 160 -142 162zM273 569l39 111h56
l-90 -111h-5z" />
    <glyph glyph-name="ecircumflex" unicode="&#xea;" horiz-adv-x="541" 
d="M36 229zM506 333h-377q-8 -51 -4 -101q10 -111 65 -175t136 -62q86 1 157 70v-11q-66 -57 -157 -63q-112 -7 -196.5 56.5t-93.5 181.5q-7 113 64 189.5t179 84.5q89 7 151 -39t76 -131zM279 499q-56 1 -95.5 -44t-53.5 -118h291q-16 160 -142 162zM307 680l97 -111h-4
l-119 74l-119 -74h-5l97 111h53z" />
    <glyph glyph-name="edieresis" unicode="&#xeb;" horiz-adv-x="541" 
d="M36 229zM506 333h-377q-8 -51 -4 -101q10 -111 65 -175t136 -62q86 1 157 70v-11q-66 -57 -157 -63q-112 -7 -196.5 56.5t-93.5 181.5q-7 113 64 189.5t179 84.5q89 7 151 -39t76 -131zM279 499q-56 1 -95.5 -44t-53.5 -118h291q-16 160 -142 162zM230 669
q16 0 27.5 -11.5t11.5 -27.5t-11.5 -27t-27.5 -11t-27.5 11t-11.5 27t11.5 27.5t27.5 11.5zM332 669q16 0 27 -11.5t11 -27.5t-11 -27t-27 -11t-27.5 11t-11.5 27t11.5 27.5t27.5 11.5z" />
    <glyph glyph-name="igrave" unicode="&#xec;" horiz-adv-x="308" 
d="M195 115q0 -61 11.5 -85.5t51.5 -24.5v-5h-208v5q40 0 51 24.5t12 85.5v265q-1 61 -12 85t-51 24v5h162v-5q-17 -9 -17 -151v-223zM122 680l39 -111h-5l-89 111h55z" />
    <glyph glyph-name="iacute" unicode="&#xed;" horiz-adv-x="308" 
d="M195 115q0 -61 11.5 -85.5t51.5 -24.5v-5h-208v5q40 0 51 24.5t12 85.5v265q-1 61 -12 85t-51 24v5h162v-5q-17 -9 -17 -151v-223zM147 569l39 111h56l-90 -111h-5z" />
    <glyph glyph-name="icircumflex" unicode="&#xee;" horiz-adv-x="308" 
d="M195 115q0 -61 11.5 -85.5t51.5 -24.5v-5h-208v5q40 0 51 24.5t12 85.5v265q-1 61 -12 85t-51 24v5h162v-5q-17 -9 -17 -151v-223zM171 680l97 -111h-4l-119 74l-119 -74h-5l97 111h53z" />
    <glyph glyph-name="idieresis" unicode="&#xef;" horiz-adv-x="308" 
d="M195 115q0 -61 11.5 -85.5t51.5 -24.5v-5h-208v5q40 0 51 24.5t12 85.5v265q-1 61 -12 85t-51 24v5h162v-5q-17 -9 -17 -151v-223zM94 669q16 0 27.5 -11.5t11.5 -27.5t-11.5 -27t-27.5 -11t-27.5 11t-11.5 27t11.5 27.5t27.5 11.5zM196 669q16 0 27 -11.5t11 -27.5
t-11 -27t-27 -11t-27.5 11t-11.5 27t11.5 27.5t27.5 11.5z" />
    <glyph glyph-name="eth" unicode="&#xf0;" 
d="M370 622q181 -131 181 -351q0 -118 -59 -193.5t-163 -84.5q-114 -9 -195 53.5t-92 178.5q-10 113 59.5 193t181.5 88q68 4 125 -20q-27 53 -76 109l-73 -52l-3 4l72 51q-37 40 -106 97v5q88 -35 144 -75l57 40l3 -3zM329 -3q71 7 108.5 88.5t28.5 181.5
q-10 102 -58.5 171.5t-123.5 63.5q-83 -7 -125 -79.5t-32 -190.5q11 -118 65.5 -181t136.5 -54z" />
    <glyph glyph-name="ntilde" unicode="&#xf1;" horiz-adv-x="628" 
d="M515 115q1 -62 12 -86t51 -24v-5h-208v5q40 0 51.5 24.5t11.5 85.5v234q0 30 -3.5 52.5t-14 46t-33.5 36.5t-58 13q-34 0 -72.5 -27t-54.5 -70q-1 -18 -1 -61v-224q0 -61 11.5 -85.5t51.5 -24.5v-5h-209v5q40 0 51.5 24.5t11.5 85.5v264q0 61 -11.5 85.5t-51.5 24.5v5
h163v-5q-12 -5 -16 -77q21 41 59 66.5t88 25.5q171 0 171 -160v-229zM383 597q-17 1 -51.5 10.5t-45.5 10.5q-29 4 -41 -18h-5q0 4 3 16.5t14.5 29t28.5 18.5q10 1 29.5 -3t41 -9.5t26.5 -6.5q32 -6 39 18h5q0 -11 -2.5 -24.5t-13 -28t-28.5 -13.5z" />
    <glyph glyph-name="ograve" unicode="&#xf2;" 
d="M284 503q109 8 187.5 -57.5t82.5 -176.5q4 -107 -58.5 -187.5t-166.5 -90.5q-112 -11 -197 54t-92 178q-7 114 62.5 193t181.5 87zM329 -5q68 10 106 88.5t31 181.5q-6 98 -57 169t-125 65q-81 -7 -123 -80.5t-34 -189.5q9 -117 64.5 -181t137.5 -53zM254 680l39 -111h-5
l-89 111h55z" />
    <glyph glyph-name="oacute" unicode="&#xf3;" 
d="M284 503q109 8 187.5 -57.5t82.5 -176.5q4 -107 -58.5 -187.5t-166.5 -90.5q-112 -11 -197 54t-92 178q-7 114 62.5 193t181.5 87zM329 -5q68 10 106 88.5t31 181.5q-6 98 -57 169t-125 65q-81 -7 -123 -80.5t-34 -189.5q9 -117 64.5 -181t137.5 -53zM278 569l39 111h56
l-90 -111h-5z" />
    <glyph glyph-name="ocircumflex" unicode="&#xf4;" 
d="M284 503q109 8 187.5 -57.5t82.5 -176.5q4 -107 -58.5 -187.5t-166.5 -90.5q-112 -11 -197 54t-92 178q-7 114 62.5 193t181.5 87zM329 -5q68 10 106 88.5t31 181.5q-6 98 -57 169t-125 65q-81 -7 -123 -80.5t-34 -189.5q9 -117 64.5 -181t137.5 -53zM322 680l97 -111h-4
l-119 74l-119 -74h-5l97 111h53z" />
    <glyph glyph-name="otilde" unicode="&#xf5;" 
d="M284 503q109 8 187.5 -57.5t82.5 -176.5q4 -107 -58.5 -187.5t-166.5 -90.5q-112 -11 -197 54t-92 178q-7 114 62.5 193t181.5 87zM329 -5q68 10 106 88.5t31 181.5q-6 98 -57 169t-125 65q-81 -7 -123 -80.5t-34 -189.5q9 -117 64.5 -181t137.5 -53zM345 597
q-17 1 -51.5 10.5t-45.5 10.5q-29 4 -41 -18h-5q0 4 3 16.5t14.5 29t28.5 18.5q10 1 29.5 -3t41 -9.5t26.5 -6.5q32 -6 39 18h5q0 -11 -2.5 -24.5t-13 -28t-28.5 -13.5z" />
    <glyph glyph-name="odieresis" unicode="&#xf6;" 
d="M284 503q109 8 187.5 -57.5t82.5 -176.5q4 -107 -58.5 -187.5t-166.5 -90.5q-112 -11 -197 54t-92 178q-7 114 62.5 193t181.5 87zM329 -5q68 10 106 88.5t31 181.5q-6 98 -57 169t-125 65q-81 -7 -123 -80.5t-34 -189.5q9 -117 64.5 -181t137.5 -53zM245 669
q16 0 27.5 -11.5t11.5 -27.5t-11.5 -27t-27.5 -11t-27.5 11t-11.5 27t11.5 27.5t27.5 11.5zM347 669q16 0 27 -11.5t11 -27.5t-11 -27t-27 -11t-27.5 11t-11.5 27t11 27.5t28 11.5z" />
    <glyph glyph-name="divide" unicode="&#xf7;" horiz-adv-x="381" 
d="M50 277h281v-5h-281v5zM191 342q-16 0 -27.5 11.5t-11.5 27.5t11.5 27.5t27.5 11.5t27 -11.5t11 -27.5t-11 -27.5t-27 -11.5zM191 207q16 0 27 -11.5t11 -27.5t-11 -27.5t-27 -11.5q-17 0 -28 11.5t-11 27.5t11.5 27.5t27.5 11.5z" />
    <glyph glyph-name="oslash" unicode="&#xf8;" 
d="M553 269q2 -108 -59.5 -188.5t-165.5 -89.5q-50 -5 -97 6l-15 -55h-5l15 57q-79 20 -130.5 79t-56.5 145q-7 114 62.5 193t181.5 87q39 3 78 -5l15 54h4l-14 -55q81 -19 133 -79.5t54 -148.5zM126 229q12 -160 104 -215l127 468q-34 20 -74 17q-81 -7 -123 -80.5
t-34 -189.5zM328 -5q68 10 106 88.5t31 181.5q-4 68 -32 127t-72 88l-126 -469q40 -22 93 -16z" />
    <glyph glyph-name="ugrave" unicode="&#xf9;" horiz-adv-x="623" 
d="M510 115v-1q1 -61 12 -85t51 -24v-5h-162v5q11 5 15 76q-20 -40 -58 -65.5t-88 -25.5q-172 0 -172 160v229q0 61 -11.5 85.5t-51.5 24.5v5h162v-5q-16 -9 -16 -150v-194q0 -30 3.5 -52.5t14 -46t33 -36.5t57.5 -13t73.5 27t54.5 70q0 8 0.5 28.5t0.5 32.5v224
q-1 62 -12 86t-51 24v5h162v-5q-17 -9 -17 -150v-224zM277 680l39 -111h-5l-89 111h55z" />
    <glyph glyph-name="uacute" unicode="&#xfa;" horiz-adv-x="623" 
d="M510 115v-1q1 -61 12 -85t51 -24v-5h-162v5q11 5 15 76q-20 -40 -58 -65.5t-88 -25.5q-172 0 -172 160v229q0 61 -11.5 85.5t-51.5 24.5v5h162v-5q-16 -9 -16 -150v-194q0 -30 3.5 -52.5t14 -46t33 -36.5t57.5 -13t73.5 27t54.5 70q0 8 0.5 28.5t0.5 32.5v224
q-1 62 -12 86t-51 24v5h162v-5q-17 -9 -17 -150v-224zM292 569l39 111h56l-90 -111h-5z" />
    <glyph glyph-name="ucircumflex" unicode="&#xfb;" horiz-adv-x="623" 
d="M510 115v-1q1 -61 12 -85t51 -24v-5h-162v5q11 5 15 76q-20 -40 -58 -65.5t-88 -25.5q-172 0 -172 160v229q0 61 -11.5 85.5t-51.5 24.5v5h162v-5q-16 -9 -16 -150v-194q0 -30 3.5 -52.5t14 -46t33 -36.5t57.5 -13t73.5 27t54.5 70q0 8 0.5 28.5t0.5 32.5v224
q-1 62 -12 86t-51 24v5h162v-5q-17 -9 -17 -150v-224zM326 680l97 -111h-4l-119 74l-119 -74h-5l97 111h53z" />
    <glyph glyph-name="udieresis" unicode="&#xfc;" horiz-adv-x="623" 
d="M510 115v-1q1 -61 12 -85t51 -24v-5h-162v5q11 5 15 76q-20 -40 -58 -65.5t-88 -25.5q-172 0 -172 160v229q0 61 -11.5 85.5t-51.5 24.5v5h162v-5q-16 -9 -16 -150v-194q0 -30 3.5 -52.5t14 -46t33 -36.5t57.5 -13t73.5 27t54.5 70q0 8 0.5 28.5t0.5 32.5v224
q-1 62 -12 86t-51 24v5h162v-5q-17 -9 -17 -150v-224zM249 669q16 0 27.5 -11.5t11.5 -27.5t-11.5 -27t-27.5 -11t-27.5 11t-11.5 27t11.5 27.5t27.5 11.5zM351 669q16 0 27 -11.5t11 -27.5t-11 -27t-27 -11t-27.5 11t-11.5 27t11 27.5t28 11.5z" />
    <glyph glyph-name="yacute" unicode="&#xfd;" horiz-adv-x="555" 
d="M385 494h150v-5q-64 -11 -102 -109q-16 -40 -105 -291q-29 -81 -32 -89q-87 -212 -173 -217q-27 -2 -45 13t-17 39q1 22 20 30.5t36 -3.5q7 -5 14 -19.5t11 -24t14.5 -14.5t25.5 9q23 19 54.5 72.5t54.5 114.5h-4q-158 346 -180 395q-1 3 -6.5 14.5t-7 15.5t-6.5 14
t-8 14t-8 11t-9.5 10.5t-10.5 7.5t-12.5 5.5t-13.5 1.5v5h171v-5q-26 0 -29 -14.5t13 -52.5q8 -21 40.5 -95t67 -153t36.5 -83q19 52 41 114t37.5 105t16.5 45q17 38 8.5 86t-42.5 48v5zM293 569l39 111h56l-90 -111h-5z" />
    <glyph glyph-name="thorn" unicode="&#xfe;" horiz-adv-x="601" 
d="M341 405q90 0 155 -66.5t65 -190.5t-65 -190t-155 -66q-52 0 -88.5 26t-56.5 68v-68q0 -61 11.5 -85.5t50.5 -24.5v-5h-208v5q40 0 51.5 24.5t11.5 85.5v461q0 61 -11.5 85.5t-51.5 24.5v5h162v-5q-16 -9 -16 -150v-28q20 42 56.5 68t88.5 26zM322 -101q74 0 115.5 64
t41.5 185q0 122 -41.5 186t-115.5 64q-36 0 -73 -27t-53 -72v-301q16 -45 53 -72t73 -27z" />
    <glyph glyph-name="ydieresis" unicode="&#xff;" horiz-adv-x="555" 
d="M385 494h150v-5q-64 -11 -102 -109q-16 -40 -105 -291q-29 -81 -32 -89q-87 -212 -173 -217q-27 -2 -45 13t-17 39q1 22 20 30.5t36 -3.5q7 -5 14 -19.5t11 -24t14.5 -14.5t25.5 9q23 19 54.5 72.5t54.5 114.5h-4q-158 346 -180 395q-1 3 -6.5 14.5t-7 15.5t-6.5 14
t-8 14t-8 11t-9.5 10.5t-10.5 7.5t-12.5 5.5t-13.5 1.5v5h171v-5q-26 0 -29 -14.5t13 -52.5q8 -21 40.5 -95t67 -153t36.5 -83q19 52 41 114t37.5 105t16.5 45q17 38 8.5 86t-42.5 48v5zM250 669q16 0 27.5 -11.5t11.5 -27.5t-11.5 -27t-27.5 -11t-27.5 11t-11.5 27
t11.5 27.5t27.5 11.5zM352 669q16 0 27 -11.5t11 -27.5t-11 -27t-27 -11t-27.5 11t-11.5 27t11.5 27.5t27.5 11.5z" />
    <glyph glyph-name="Amacron" unicode="&#x100;" horiz-adv-x="712" 
d="M591 139l16.5 -39t17.5 -35t22.5 -32.5t26 -19t33.5 -8.5v-5h-220v5q36 0 42 18.5t-14 73.5q-8 22 -69 181h-240q-24 -61 -32 -82q-26 -64 -15 -127.5t59 -63.5v-5h-213v5q49 8 85 44.5t65 110.5l211 540h9q189 -497 216 -561zM208 283h236q-102 267 -117 305
q-75 -192 -119 -305zM284 827h174v-5h-174v5z" />
    <glyph glyph-name="amacron" unicode="&#x101;" horiz-adv-x="502" 
d="M448 -2q19 0 34 10v-5q-20 -12 -47 -12q-50 0 -81 19.5t-36 75.5q-38 -68 -98 -87q-28 -10 -59.5 -8.5t-58 10.5t-42.5 33.5t-14 60.5q2 25 14.5 45.5t29.5 33.5t42.5 24t45.5 16.5t47 12.5t39 11q29 10 53 24v89q0 73 -17 110.5t-68 37.5q-88 0 -111 -53
q-5 -19 -2.5 -26.5t11.5 -22t12 -24.5q5 -20 -9.5 -34.5t-35.5 -9.5t-27.5 28t5.5 50q44 96 160 96q74 0 119 -37.5t45 -109.5v-252q0 -58 8.5 -82t40.5 -24zM237 10q49 23 81 81q-1 6 -1 18v149q-18 -11 -49 -23q-8 -3 -32.5 -10t-40 -13.5t-35 -18t-31 -30.5t-14.5 -45
q-8 -75 31.5 -103.5t90.5 -4.5zM137 627h174v-5h-174v5z" />
    <glyph glyph-name="Abreve" unicode="&#x102;" horiz-adv-x="712" 
d="M591 139l16.5 -39t17.5 -35t22.5 -32.5t26 -19t33.5 -8.5v-5h-220v5q36 0 42 18.5t-14 73.5q-8 22 -69 181h-240q-24 -61 -32 -82q-26 -64 -15 -127.5t59 -63.5v-5h-213v5q49 8 85 44.5t65 110.5l211 540h9q189 -497 216 -561zM208 283h236q-102 267 -117 305
q-75 -192 -119 -305zM412 850h55q-8 -91 -97 -91q-40 0 -66 22t-30 69h55q7 -88 41 -88q35 0 42 88z" />
    <glyph glyph-name="abreve" unicode="&#x103;" horiz-adv-x="502" 
d="M448 -2q19 0 34 10v-5q-20 -12 -47 -12q-50 0 -81 19.5t-36 75.5q-38 -68 -98 -87q-28 -10 -59.5 -8.5t-58 10.5t-42.5 33.5t-14 60.5q2 25 14.5 45.5t29.5 33.5t42.5 24t45.5 16.5t47 12.5t39 11q29 10 53 24v89q0 73 -17 110.5t-68 37.5q-88 0 -111 -53
q-5 -19 -2.5 -26.5t11.5 -22t12 -24.5q5 -20 -9.5 -34.5t-35.5 -9.5t-27.5 28t5.5 50q44 96 160 96q74 0 119 -37.5t45 -109.5v-252q0 -58 8.5 -82t40.5 -24zM237 10q49 23 81 81q-1 6 -1 18v149q-18 -11 -49 -23q-8 -3 -32.5 -10t-40 -13.5t-35 -18t-31 -30.5t-14.5 -45
q-8 -75 31.5 -103.5t90.5 -4.5zM285 650h55q-8 -91 -97 -91q-40 0 -66 22t-30 69h55q7 -88 41 -88q35 0 42 88z" />
    <glyph glyph-name="Aogonek" unicode="&#x104;" horiz-adv-x="712" 
d="M707 0q-42 -3 -68 -23t-22 -54q2 -24 26 -31t57 9v-5q-42 -36 -82 -28t-35 50q4 29 29.5 51t64.5 31h-191v5q37 0 43 18.5t-14 73.5q-19 52 -70 182h-239q-30 -77 -32 -83q-26 -63 -15 -127t59 -64v-5h-213v5q96 18 150 155l210 540h10q189 -496 215 -560q11 -27 14 -33
t14 -29t17.5 -30.5t18.5 -20.5t25 -17.5t28 -4.5v-5zM208 283h236q-21 54 -52 135t-48 125t-17 46q-26 -65 -119 -306z" />
    <glyph glyph-name="aogonek" unicode="&#x105;" horiz-adv-x="502" 
d="M445 -9q-52 -20 -48 -68q2 -24 26 -31t56 9v-5q-41 -36 -81 -28t-35 50q6 47 65 73q-47 1 -75.5 21t-34.5 74q-38 -68 -98 -87q-28 -10 -59.5 -8.5t-58 10.5t-42.5 33.5t-14 60.5q2 25 14.5 45.5t29.5 33.5t42.5 24t45.5 16.5t47 12.5t39 11q29 10 53 24v90
q0 72 -17.5 110t-67.5 38q-87 0 -111 -54q-5 -19 -2.5 -26.5t11.5 -22t12 -24.5q5 -20 -9.5 -34t-35.5 -10q-20 5 -27 28t5 50q44 96 160 96q74 0 119 -37.5t45 -109.5v-251q0 -59 8.5 -83t40.5 -24q17 0 34 10v-5q-18 -11 -37 -12zM237 10q49 23 81 81q-1 6 -1 18v149
q-14 -10 -48 -23q-8 -3 -33 -10t-40.5 -13.5t-35 -18t-31 -30.5t-14.5 -45q-8 -75 31.5 -103.5t90.5 -4.5z" />
    <glyph glyph-name="Cacute" unicode="&#x106;" horiz-adv-x="731" 
d="M453 -2q125 3 228 96v-15q-98 -78 -227 -86q-161 -10 -277 77t-130 246q-15 160 84 268t259 123q76 6 201 -24q38 -13 55.5 -3.5t17.5 56.5h5v-252h-5q0 47 -37 102t-84 82q-76 40 -153 34q-114 -11 -185.5 -121t-58.5 -256q13 -145 100.5 -237.5t206.5 -89.5zM405 769
l39 111h56l-90 -111h-5z" />
    <glyph glyph-name="cacute" unicode="&#x107;" horiz-adv-x="500" 
d="M316 -5q36 0 76 20.5t63 45.5v-12q-69 -53 -138 -58q-113 -7 -194.5 55.5t-86.5 183.5t59.5 191.5t173.5 81.5q67 7 120 -23.5t68 -65.5q12 -27 5.5 -50t-27.5 -28q-20 -5 -34.5 10t-9.5 35q2 9 11 23.5t10 20.5t-8 26q-15 23 -53.5 37t-81.5 11q-75 -6 -114.5 -80.5
t-34.5 -186.5q4 -107 59.5 -172.5t136.5 -64.5zM283 569l39 111h56l-90 -111h-5z" />
    <glyph glyph-name="Ccircumflex" unicode="&#x108;" horiz-adv-x="731" 
d="M453 -2q125 3 228 96v-15q-98 -78 -227 -86q-161 -10 -277 77t-130 246q-15 160 84 268t259 123q76 6 201 -24q38 -13 55.5 -3.5t17.5 56.5h5v-252h-5q0 47 -37 102t-84 82q-76 40 -153 34q-114 -11 -185.5 -121t-58.5 -256q13 -145 100.5 -237.5t206.5 -89.5zM440 880
l97 -111h-4l-119 74l-119 -74h-5l97 111h53z" />
    <glyph glyph-name="ccircumflex" unicode="&#x109;" horiz-adv-x="500" 
d="M316 -5q36 0 76 20.5t63 45.5v-12q-69 -53 -138 -58q-113 -7 -194.5 55.5t-86.5 183.5t59.5 191.5t173.5 81.5q67 7 120 -23.5t68 -65.5q12 -27 5.5 -50t-27.5 -28q-20 -5 -34.5 10t-9.5 35q2 9 11 23.5t10 20.5t-8 26q-15 23 -53.5 37t-81.5 11q-75 -6 -114.5 -80.5
t-34.5 -186.5q4 -107 59.5 -172.5t136.5 -64.5zM307 680l97 -111h-4l-119 74l-119 -74h-5l97 111h53z" />
    <glyph glyph-name="Cdotaccent" unicode="&#x10a;" horiz-adv-x="731" 
d="M453 -2q125 3 228 96v-15q-98 -78 -227 -86q-161 -10 -277 77t-130 246q-15 160 84 268t259 123q76 6 201 -24q38 -13 55.5 -3.5t17.5 56.5h5v-252h-5q0 47 -37 102t-84 82q-76 40 -153 34q-114 -11 -185.5 -121t-58.5 -256q13 -145 100.5 -237.5t206.5 -89.5zM413 869
q16 0 27.5 -11.5t11.5 -27.5t-11.5 -27t-27.5 -11t-27.5 11t-11.5 27t11.5 27.5t27.5 11.5z" />
    <glyph glyph-name="cdotaccent" unicode="&#x10b;" horiz-adv-x="500" 
d="M316 -5q36 0 76 20.5t63 45.5v-12q-69 -53 -138 -58q-113 -7 -194.5 55.5t-86.5 183.5t59.5 191.5t173.5 81.5q67 7 120 -23.5t68 -65.5q12 -27 5.5 -50t-27.5 -28q-20 -5 -34.5 10t-9.5 35q2 9 11 23.5t10 20.5t-8 26q-15 23 -53.5 37t-81.5 11q-75 -6 -114.5 -80.5
t-34.5 -186.5q4 -107 59.5 -172.5t136.5 -64.5zM290 669q16 0 27.5 -11.5t11.5 -27.5t-11.5 -27t-27.5 -11t-27.5 11t-11.5 27t11.5 27.5t27.5 11.5z" />
    <glyph glyph-name="Ccaron" unicode="&#x10c;" horiz-adv-x="731" 
d="M453 -2q125 3 228 96v-15q-98 -78 -227 -86q-161 -10 -277 77t-130 246q-15 160 84 268t259 123q76 6 201 -24q38 -13 55.5 -3.5t17.5 56.5h5v-252h-5q0 47 -37 102t-84 82q-76 40 -153 34q-114 -11 -185.5 -121t-58.5 -256q13 -145 100.5 -237.5t206.5 -89.5zM536 873
l-97 -112h-53l-97 112h5l119 -74l118 74h5z" />
    <glyph glyph-name="ccaron" unicode="&#x10d;" horiz-adv-x="500" 
d="M316 -5q36 0 76 20.5t63 45.5v-12q-69 -53 -138 -58q-113 -7 -194.5 55.5t-86.5 183.5t59.5 191.5t173.5 81.5q67 7 120 -23.5t68 -65.5q12 -27 5.5 -50t-27.5 -28q-20 -5 -34.5 10t-9.5 35q2 9 11 23.5t10 20.5t-8 26q-15 23 -53.5 37t-81.5 11q-75 -6 -114.5 -80.5
t-34.5 -186.5q4 -107 59.5 -172.5t136.5 -64.5zM414 673l-97 -112h-53l-97 112h5l119 -74l118 74h5z" />
    <glyph glyph-name="Dcaron" unicode="&#x10e;" horiz-adv-x="752" 
d="M384 700q155 0 239 -98.5t84 -251.5q0 -154 -83.5 -252t-239.5 -98h-334v5q40 0 51 24.5t12 85.5v470q-1 61 -12 85.5t-51 24.5v5h334zM340 5q52 0 97 17t84.5 54.5t62.5 107.5t23 166t-23 166t-62.5 107.5t-84.5 54.5t-97 17h-77q-40 0 -51.5 -24.5t-11.5 -85.5v-470
q0 -61 11.5 -85.5t51.5 -24.5h77zM452 873l-97 -112h-53l-97 112h5l119 -74l118 74h5z" />
    <glyph glyph-name="dcaron" unicode="&#x10f;" horiz-adv-x="652" 
d="M484 115q1 -61 12 -85.5t51 -24.5v-5h-162v5q16 9 17 138q-28 -152 -155 -152q-102 0 -156 69t-50 187q4 100 55 162.5t134 82.5q44 11 90.5 12t81.5 -2v120q-1 61 -12 85t-51 24v5h162v-5q-17 -9 -17 -150v-466zM272 0q43 0 73.5 31t44.5 78q9 35 12 66v322
q-29 4 -76.5 2.5t-71.5 -9.5q-121 -45 -131 -243q-5 -108 34.5 -177.5t114.5 -69.5zM676 700q1 -18 -1 -32.5t-7.5 -29.5t-19.5 -23.5t-35 -7.5v4q34 -3 47 21t12 47q-10 -17 -37 -15q-16 2 -26 14t-9 28q2 16 13.5 25.5t27.5 8.5q33 -3 35 -40z" />
    <glyph glyph-name="Dcroat" unicode="&#x110;" horiz-adv-x="752" 
d="M384 700q156 0 239.5 -98t83.5 -252t-83.5 -252t-239.5 -98h-334v5q40 0 51.5 24.5t11.5 85.5v231h-63v5h63v234q0 61 -11.5 85.5t-51.5 24.5v5h334zM340 5q52 0 97 17t84.5 54.5t62.5 107.5t23 166t-23 166t-62.5 107.5t-84.5 54.5t-97 17h-77q-40 0 -51 -24t-12 -86
v-234h194v-5h-194v-231q1 -62 12 -86t51 -24h77z" />
    <glyph glyph-name="dcroat" unicode="&#x111;" horiz-adv-x="597" 
d="M484 591v-10v-467q1 -61 12 -85t51 -24v-5h-162v5q16 7 17 137q-28 -152 -155 -152q-102 0 -156 69.5t-50 187.5q4 100 55 162t134 82q44 11 90.5 12t81.5 -2v90h-199v5h199v25q-1 62 -12 86t-51 24v5h162v-5q-16 -7 -17 -135h63v-5h-63zM402 174v322q-29 4 -76.5 2.5
t-71.5 -9.5q-57 -20 -91.5 -81.5t-39.5 -160.5q-5 -109 34.5 -178t114.5 -69q43 0 73.5 31t44.5 78q9 34 12 65z" />
    <glyph glyph-name="Emacron" unicode="&#x112;" horiz-adv-x="601" 
d="M571 169h5l-41 -169h-485v5q40 0 51.5 24.5t11.5 85.5v470q0 61 -11.5 85.5t-51.5 24.5v5h453l34 -138h-5q-25 57 -71 95t-115 38h-83q-40 0 -51 -24.5t-12 -85.5v-234h73q58 0 99 36t41 87h5v-251h-5q0 51 -41 87t-99 36h-73v-231q1 -61 12 -85.5t51 -24.5h114
q67 0 116 50t78 114zM231 827h174v-5h-174v5z" />
    <glyph glyph-name="emacron" unicode="&#x113;" horiz-adv-x="541" 
d="M36 229zM506 333h-377q-8 -51 -4 -101q10 -111 65 -175t136 -62q86 1 157 70v-11q-66 -57 -157 -63q-112 -7 -196.5 56.5t-93.5 181.5q-7 113 64 189.5t179 84.5q89 7 151 -39t76 -131zM279 499q-56 1 -95.5 -44t-53.5 -118h291q-16 160 -142 162zM184 627h174v-5h-174v5
z" />
    <glyph glyph-name="Ebreve" unicode="&#x114;" horiz-adv-x="601" 
d="M571 169h5l-41 -169h-485v5q40 0 51.5 24.5t11.5 85.5v470q0 61 -11.5 85.5t-51.5 24.5v5h453l34 -138h-5q-25 57 -71 95t-115 38h-83q-40 0 -51 -24.5t-12 -85.5v-234h73q58 0 99 36t41 87h5v-251h-5q0 51 -41 87t-99 36h-73v-231q1 -61 12 -85.5t51 -24.5h114
q67 0 116 50t78 114zM365 850h55q-8 -91 -97 -91q-40 0 -66 22t-30 69h55q7 -88 41 -88q35 0 42 88z" />
    <glyph glyph-name="ebreve" unicode="&#x115;" horiz-adv-x="541" 
d="M36 229zM506 333h-377q-8 -51 -4 -101q10 -111 65 -175t136 -62q86 1 157 70v-11q-66 -57 -157 -63q-112 -7 -196.5 56.5t-93.5 181.5q-7 113 64 189.5t179 84.5q89 7 151 -39t76 -131zM279 499q-56 1 -95.5 -44t-53.5 -118h291q-16 160 -142 162zM322 650h55
q-8 -91 -97 -91q-40 0 -66 22t-30 69h55q7 -88 41 -88q35 0 42 88z" />
    <glyph glyph-name="Edotaccent" unicode="&#x116;" horiz-adv-x="601" 
d="M571 169h5l-41 -169h-485v5q40 0 51.5 24.5t11.5 85.5v470q0 61 -11.5 85.5t-51.5 24.5v5h453l34 -138h-5q-25 57 -71 95t-115 38h-83q-40 0 -51 -24.5t-12 -85.5v-234h73q58 0 99 36t41 87h5v-251h-5q0 51 -41 87t-99 36h-73v-231q1 -61 12 -85.5t51 -24.5h114
q67 0 116 50t78 114zM323 869q16 0 27.5 -11.5t11.5 -27.5t-11.5 -27t-27.5 -11t-27.5 11t-11.5 27t11.5 27.5t27.5 11.5z" />
    <glyph glyph-name="edotaccent" unicode="&#x117;" horiz-adv-x="541" 
d="M36 229zM506 333h-377q-8 -51 -4 -101q10 -111 65 -175t136 -62q86 1 157 70v-11q-66 -57 -157 -63q-112 -7 -196.5 56.5t-93.5 181.5q-7 113 64 189.5t179 84.5q89 7 151 -39t76 -131zM279 499q-56 1 -95.5 -44t-53.5 -118h291q-16 160 -142 162zM281 669
q16 0 27.5 -11.5t11.5 -27.5t-11.5 -27t-27.5 -11t-27.5 11t-11.5 27t11.5 27.5t27.5 11.5z" />
    <glyph glyph-name="Eogonek" unicode="&#x118;" horiz-adv-x="601" 
d="M535 0q-42 -3 -68 -23t-22 -54q2 -24 26 -31t56 9v-5q-41 -36 -81 -28t-35 50q4 29 29.5 51t64.5 31h-455v5q40 0 51.5 24.5t11.5 85.5v470q0 61 -11.5 85.5t-51.5 24.5v5h453l34 -138h-5q-25 57 -71 95t-115 38h-83q-40 0 -51 -24t-12 -86v-234h73q58 0 99.5 36.5
t41.5 87.5h4v-252h-4q0 51 -41.5 87t-99.5 36h-73v-231q1 -62 12 -86t51 -24h114q36 0 68.5 16t56.5 42.5t40.5 52.5t28.5 54h5z" />
    <glyph glyph-name="eogonek" unicode="&#x119;" horiz-adv-x="541" 
d="M36 229zM506 333h-377q-8 -51 -4 -101q10 -111 65 -175t136 -62q86 1 157 70v-11q-65 -56 -156 -63q-53 -19 -49 -68q2 -24 26 -31t57 9v-5q-42 -36 -82 -28t-35 50q6 47 66 73q-107 -2 -186 61t-88 177q-7 113 64 189.5t179 84.5q89 7 151 -39t76 -131zM279 499
q-56 1 -95.5 -44t-53.5 -118h291q-16 160 -142 162z" />
    <glyph glyph-name="Ecaron" unicode="&#x11a;" horiz-adv-x="601" 
d="M571 169h5l-41 -169h-485v5q40 0 51.5 24.5t11.5 85.5v470q0 61 -11.5 85.5t-51.5 24.5v5h453l34 -138h-5q-25 57 -71 95t-115 38h-83q-40 0 -51 -24.5t-12 -85.5v-234h73q58 0 99 36t41 87h5v-251h-5q0 51 -41 87t-99 36h-73v-231q1 -61 12 -85.5t51 -24.5h114
q67 0 116 50t78 114zM446 873l-97 -112h-53l-97 112h5l119 -74l118 74h5z" />
    <glyph glyph-name="ecaron" unicode="&#x11b;" horiz-adv-x="541" 
d="M36 229zM506 333h-377q-8 -51 -4 -101q10 -111 65 -175t136 -62q86 1 157 70v-11q-66 -57 -157 -63q-112 -7 -196.5 56.5t-93.5 181.5q-7 113 64 189.5t179 84.5q89 7 151 -39t76 -131zM279 499q-56 1 -95.5 -44t-53.5 -118h291q-16 160 -142 162zM404 673l-97 -112h-53
l-97 112h5l119 -74l118 74h5z" />
    <glyph glyph-name="Gcircumflex" unicode="&#x11c;" horiz-adv-x="769" 
d="M531 317h213v-5q-40 0 -51.5 -24.5t-11.5 -85.5v-212h-5q0 27 -38 29t-103 -11.5t-81 -14.5q-161 -12 -277 76t-130 247q-15 160 84 268t259 123q71 6 209 -26q35 -11 50 -0.5t15 55.5h5v-252h-5q0 47 -37 102t-84 82q-76 40 -153 34q-114 -11 -185.5 -121t-58.5 -256
q14 -146 103.5 -241.5t203.5 -85.5q74 7 141 47v157q-1 62 -12 86t-51 24v5zM441 880l97 -111h-4l-119 74l-119 -74h-5l97 111h53z" />
    <glyph glyph-name="gcircumflex" unicode="&#x11d;" horiz-adv-x="512" 
d="M496 -29q22 -55 -32 -122.5t-144 -92.5q-64 -14 -129.5 -12t-118.5 29t-60 70q-10 63 34 91t110 29q42 2 76 -4v-10q-5 2 -12.5 4t-29 5t-39.5 1q-35 -4 -57 -31t-19 -78q4 -56 52.5 -82.5t111 -22t114.5 31.5q46 24 69 58t21 62.5t-22 44.5q-20 17 -145 28t-165 42
q-18 15 -20 39t8 39q18 31 68 46q-96 41 -104 141q-6 81 47.5 132t126.5 58q69 5 126 -28q6 28 19.5 50.5t26.5 31.5q21 14 41 12t28 -20q9 -19 -2.5 -33t-29.5 -12q-7 1 -16 5t-14.5 6.5t-13.5 1.5t-16 -9q-13 -10 -20 -35q71 -45 74 -127q3 -80 -49.5 -131t-123.5 -58
q-49 -5 -97 14q-46 -16 -40 -41.5t59 -37.5q64 -15 146 -22t114.5 -17.5t46.5 -45.5zM237 463q-49 -5 -77.5 -55.5t-22.5 -124.5q7 -75 43.5 -119t85.5 -39t77.5 55.5t22.5 124.5q-7 74 -43.5 118.5t-85.5 39.5zM273 680l97 -111h-4l-119 74l-119 -74h-5l97 111h53z" />
    <glyph glyph-name="Gbreve" unicode="&#x11e;" horiz-adv-x="769" 
d="M531 317h213v-5q-40 0 -51.5 -24.5t-11.5 -85.5v-212h-5q0 27 -38 29t-103 -11.5t-81 -14.5q-161 -12 -277 76t-130 247q-15 160 84 268t259 123q71 6 209 -26q35 -11 50 -0.5t15 55.5h5v-252h-5q0 47 -37 102t-84 82q-76 40 -153 34q-114 -11 -185.5 -121t-58.5 -256
q14 -146 103.5 -241.5t203.5 -85.5q74 7 141 47v157q-1 62 -12 86t-51 24v5zM466 850h55q-8 -91 -97 -91q-40 0 -66 22t-30 69h55q7 -88 41 -88q35 0 42 88z" />
    <glyph glyph-name="gbreve" unicode="&#x11f;" horiz-adv-x="512" 
d="M496 -29q22 -55 -32 -122.5t-144 -92.5q-64 -14 -129.5 -12t-118.5 29t-60 70q-10 63 34 91t110 29q42 2 76 -4v-10q-5 2 -12.5 4t-29 5t-39.5 1q-35 -4 -57 -31t-19 -78q4 -56 52.5 -82.5t111 -22t114.5 31.5q46 24 69 58t21 62.5t-22 44.5q-20 17 -145 28t-165 42
q-18 15 -20 39t8 39q18 31 68 46q-96 41 -104 141q-6 81 47.5 132t126.5 58q69 5 126 -28q6 28 19.5 50.5t26.5 31.5q21 14 41 12t28 -20q9 -19 -2.5 -33t-29.5 -12q-7 1 -16 5t-14.5 6.5t-13.5 1.5t-16 -9q-13 -10 -20 -35q71 -45 74 -127q3 -80 -49.5 -131t-123.5 -58
q-49 -5 -97 14q-46 -16 -40 -41.5t59 -37.5q64 -15 146 -22t114.5 -17.5t46.5 -45.5zM237 463q-49 -5 -77.5 -55.5t-22.5 -124.5q7 -75 43.5 -119t85.5 -39t77.5 55.5t22.5 124.5q-7 74 -43.5 118.5t-85.5 39.5zM288 650h55q-8 -91 -97 -91q-40 0 -66 22t-30 69h55
q7 -88 41 -88q35 0 42 88z" />
    <glyph glyph-name="Gdotaccent" unicode="&#x120;" horiz-adv-x="769" 
d="M531 317h213v-5q-40 0 -51.5 -24.5t-11.5 -85.5v-212h-5q0 27 -38 29t-103 -11.5t-81 -14.5q-161 -12 -277 76t-130 247q-15 160 84 268t259 123q71 6 209 -26q35 -11 50 -0.5t15 55.5h5v-252h-5q0 47 -37 102t-84 82q-76 40 -153 34q-114 -11 -185.5 -121t-58.5 -256
q14 -146 103.5 -241.5t203.5 -85.5q74 7 141 47v157q-1 62 -12 86t-51 24v5zM415 869q16 0 27.5 -11.5t11.5 -27.5t-11.5 -27t-27.5 -11t-27.5 11t-11.5 27t11.5 27.5t27.5 11.5z" />
    <glyph glyph-name="gdotaccent" unicode="&#x121;" horiz-adv-x="512" 
d="M496 -29q22 -55 -32 -122.5t-144 -92.5q-64 -14 -129.5 -12t-118.5 29t-60 70q-10 63 34 91t110 29q42 2 76 -4v-10q-5 2 -12.5 4t-29 5t-39.5 1q-35 -4 -57 -31t-19 -78q4 -56 52.5 -82.5t111 -22t114.5 31.5q46 24 69 58t21 62.5t-22 44.5q-20 17 -145 28t-165 42
q-18 15 -20 39t8 39q18 31 68 46q-96 41 -104 141q-6 81 47.5 132t126.5 58q69 5 126 -28q6 28 19.5 50.5t26.5 31.5q21 14 41 12t28 -20q9 -19 -2.5 -33t-29.5 -12q-7 1 -16 5t-14.5 6.5t-13.5 1.5t-16 -9q-13 -10 -20 -35q71 -45 74 -127q3 -80 -49.5 -131t-123.5 -58
q-49 -5 -97 14q-46 -16 -40 -41.5t59 -37.5q64 -15 146 -22t114.5 -17.5t46.5 -45.5zM237 463q-49 -5 -77.5 -55.5t-22.5 -124.5q7 -75 43.5 -119t85.5 -39t77.5 55.5t22.5 124.5q-7 74 -43.5 118.5t-85.5 39.5zM246 669q16 0 27.5 -11.5t11.5 -27.5t-11.5 -27t-27.5 -11
t-27.5 11t-11.5 27t11.5 27.5t27.5 11.5z" />
    <glyph glyph-name="Gcommaaccent" unicode="&#x122;" horiz-adv-x="769" 
d="M531 317h213v-5q-40 0 -51.5 -24.5t-11.5 -85.5v-212h-5q0 27 -38 29t-103 -11.5t-81 -14.5q-161 -12 -277 76t-130 247q-15 160 84 268t259 123q71 6 209 -26q35 -11 50 -0.5t15 55.5h5v-252h-5q0 47 -37 102t-84 82q-76 40 -153 34q-114 -11 -185.5 -121t-58.5 -256
q14 -146 103.5 -241.5t203.5 -85.5q74 7 141 47v157q-1 62 -12 86t-51 24v5zM473 -132q1 -23 -1.5 -41t-9.5 -37.5t-24.5 -30t-43.5 -9.5v4q23 -2 39.5 7.5t23.5 25.5t9 29t2 25q-14 -23 -47 -19q-20 2 -33 17.5t-11 34.5q1 20 16.5 33t35.5 11q42 -3 44 -50z" />
    <glyph glyph-name="gcommaaccent" unicode="&#x123;" horiz-adv-x="512" 
d="M496 -29q22 -55 -32 -122.5t-144 -92.5q-64 -14 -129.5 -12t-118.5 29t-60 70q-10 63 34 91t110 29q42 2 76 -4v-10q-5 2 -12.5 4t-29 5t-39.5 1q-35 -4 -57 -31t-19 -78q4 -56 52.5 -82.5t111 -22t114.5 31.5q46 24 69 58t21 62.5t-22 44.5q-20 17 -145 28t-165 42
q-18 15 -20 39t8 39q18 31 68 46q-96 41 -104 141q-6 81 47.5 132t126.5 58q69 5 126 -28q6 28 19.5 50.5t26.5 31.5q21 14 41 12t28 -20q9 -19 -2.5 -33t-29.5 -12q-7 1 -16 5t-14.5 6.5t-13.5 1.5t-16 -9q-13 -10 -20 -35q71 -45 74 -127q3 -80 -49.5 -131t-123.5 -58
q-49 -5 -97 14q-46 -16 -40 -41.5t59 -37.5q64 -15 146 -22t114.5 -17.5t46.5 -45.5zM237 463q-49 -5 -77.5 -55.5t-22.5 -124.5q7 -75 43.5 -119t85.5 -39t77.5 55.5t22.5 124.5q-7 74 -43.5 118.5t-85.5 39.5zM218 597q-2 40 10.5 67.5t51.5 25.5v-3q-24 2 -38.5 -12.5
t-17.5 -29t-2 -27.5q11 18 37 16q16 -2 26 -14t9 -28q-2 -16 -14 -26t-28 -9q-32 3 -34 40z" />
    <glyph glyph-name="Hcircumflex" unicode="&#x124;" horiz-adv-x="785" 
d="M672 585v-470q1 -61 12 -85.5t51 -24.5v-5h-213v5q40 0 51.5 24.5t11.5 85.5v232h-385v-232q0 -61 11.5 -85.5t51.5 -24.5v-5h-213v5q40 0 51 24.5t12 85.5v470q-1 61 -12 85.5t-51 24.5v5h213v-5q-40 0 -51.5 -24.5t-11.5 -85.5v-233h385v233q0 61 -11.5 85.5
t-51.5 24.5v5h213v-5q-40 0 -51 -24.5t-12 -85.5zM419 880l97 -111h-4l-119 74l-119 -74h-5l97 111h53z" />
    <glyph glyph-name="hcircumflex" unicode="&#x125;" horiz-adv-x="628" 
d="M515 115q1 -61 12 -85.5t51 -24.5v-5h-208v5q40 0 51.5 24.5t11.5 85.5v234q0 30 -3.5 52.5t-14 46t-33.5 36.5t-58 13t-73.5 -27.5t-54.5 -71.5v-283q0 -61 11.5 -85.5t51.5 -24.5v-5h-209v5q40 0 51.5 24.5t11.5 85.5v507q0 61 -11.5 85t-51.5 24v5h163v-5
q-17 -9 -17 -150v-171q20 41 58 67.5t90 26.5q171 0 171 -160v-229zM202 881l97 -111h-4l-119 74l-119 -74h-5l97 111h53z" />
    <glyph glyph-name="Hbar" unicode="&#x126;" horiz-adv-x="785" 
d="M672 465v-350q1 -62 12 -86t51 -24v-5h-213v5q40 0 51.5 24.5t11.5 85.5v231h-385v-231q1 -62 12 -86t51 -24v-5h-213v5q40 0 51.5 24.5t11.5 85.5v350h-74v5h74v115q0 61 -11.5 85.5t-51.5 24.5v5h213v-5q-40 0 -51 -24t-12 -86v-115h385v115q0 61 -11.5 85.5
t-51.5 24.5v5h213v-5q-40 0 -51 -24t-12 -86v-115h74v-5h-74zM200 351h385v114h-385v-114z" />
    <glyph glyph-name="hbar" unicode="&#x127;" horiz-adv-x="628" 
d="M515 115q0 -61 11.5 -85.5t51.5 -24.5v-5h-209v5q40 0 51.5 24.5t11.5 85.5v234q0 29 -3.5 51.5t-14 46t-33.5 36.5t-57 13q-36 0 -74.5 -27t-54.5 -72v-282q0 -61 11.5 -85.5t51.5 -24.5v-5h-208v5q40 0 51 24t12 86v478h-63v5h63v24q-1 61 -12 85t-51 24v5h162v-5
q-16 -7 -17 -133h199v-5h-199v-12v-172q19 41 57.5 68t90.5 27q172 0 172 -160v-229z" />
    <glyph glyph-name="Itilde" unicode="&#x128;" horiz-adv-x="313" 
d="M200 585v-470q1 -61 12 -85.5t51 -24.5v-5h-213v5q40 0 51.5 24.5t11.5 85.5v470q0 61 -11.5 85.5t-51.5 24.5v5h213v-5q-40 0 -51 -24.5t-12 -85.5zM206 797q-17 1 -51.5 10.5t-45.5 10.5q-29 4 -41 -18h-5q0 4 3 16.5t14.5 29t28.5 18.5q10 1 29.5 -3t41 -9.5
t26.5 -6.5q32 -6 39 18h5q0 -11 -2.5 -24.5t-13 -28t-28.5 -13.5z" />
    <glyph glyph-name="itilde" unicode="&#x129;" horiz-adv-x="308" 
d="M195 115q0 -61 11.5 -85.5t51.5 -24.5v-5h-208v5q40 0 51 24.5t12 85.5v265q-1 61 -12 85t-51 24v5h162v-5q-17 -9 -17 -151v-223zM194 597q-17 1 -51.5 10.5t-45.5 10.5q-29 4 -41 -18h-5q0 4 3 16.5t14.5 29t28.5 18.5q10 1 29.5 -3t41 -9.5t26.5 -6.5q32 -6 39 18h5
q0 -11 -2.5 -24.5t-13 -28t-28.5 -13.5z" />
    <glyph glyph-name="Imacron" unicode="&#x12a;" horiz-adv-x="313" 
d="M200 585v-470q1 -61 12 -85.5t51 -24.5v-5h-213v5q40 0 51.5 24.5t11.5 85.5v470q0 61 -11.5 85.5t-51.5 24.5v5h213v-5q-40 0 -51 -24.5t-12 -85.5zM70 827h174v-5h-174v5z" />
    <glyph glyph-name="imacron" unicode="&#x12b;" horiz-adv-x="308" 
d="M195 115q0 -61 11.5 -85.5t51.5 -24.5v-5h-208v5q40 0 51 24.5t12 85.5v265q-1 61 -12 85t-51 24v5h162v-5q-17 -9 -17 -151v-223zM47 627h174v-5h-174v5z" />
    <glyph glyph-name="Ibreve" unicode="&#x12c;" horiz-adv-x="313" 
d="M200 585v-470q1 -61 12 -85.5t51 -24.5v-5h-213v5q40 0 51.5 24.5t11.5 85.5v470q0 61 -11.5 85.5t-51.5 24.5v5h213v-5q-40 0 -51 -24.5t-12 -85.5zM198 850h55q-8 -91 -97 -91q-40 0 -66 22t-30 69h55q7 -88 41 -88q35 0 42 88z" />
    <glyph glyph-name="ibreve" unicode="&#x12d;" horiz-adv-x="308" 
d="M195 115q0 -61 11.5 -85.5t51.5 -24.5v-5h-208v5q40 0 51 24.5t12 85.5v265q-1 61 -12 85t-51 24v5h162v-5q-17 -9 -17 -151v-223zM196 650h55q-8 -91 -97 -91q-40 0 -66 22t-30 69h55q7 -88 41 -88q35 0 42 88z" />
    <glyph glyph-name="Iogonek" unicode="&#x12e;" horiz-adv-x="313" 
d="M263 695q-40 0 -51.5 -24.5t-11.5 -85.5v-470q0 -61 11.5 -85.5t51.5 -24.5v-5q-42 -3 -68 -23t-22 -54q2 -24 26 -31t57 9v-5q-42 -36 -82 -28t-35 50q4 29 29.5 51t64.5 31h-183v5q40 0 51 24t12 86v470q-1 62 -12 86t-51 24v5h213v-5z" />
    <glyph glyph-name="iogonek" unicode="&#x12f;" horiz-adv-x="308" 
d="M196 115q0 -61 11.5 -85.5t51.5 -24.5v-5q-42 -3 -68 -23t-22 -54q2 -24 26 -31t56 9v-5q-41 -36 -81 -28t-35 50q4 29 29.5 51t65.5 31h-180v5q40 0 51.5 24.5t11.5 85.5v265q0 61 -11.5 85t-51.5 24v5h162v-5q-16 -9 -16 -151v-223zM154 599q-22 0 -37.5 16t-15.5 39
t15.5 39.5t37.5 16.5t38 -16.5t16 -39.5t-15.5 -39t-38.5 -16z" />
    <glyph glyph-name="Idotaccent" unicode="&#x130;" horiz-adv-x="313" 
d="M200 585v-470q1 -61 12 -85.5t51 -24.5v-5h-213v5q40 0 51.5 24.5t11.5 85.5v470q0 61 -11.5 85.5t-51.5 24.5v5h213v-5q-40 0 -51 -24.5t-12 -85.5zM157 869q16 0 27.5 -11.5t11.5 -27.5t-11.5 -27t-27.5 -11t-27.5 11t-11.5 27t11.5 27.5t27.5 11.5z" />
    <glyph glyph-name="dotlessi" unicode="&#x131;" horiz-adv-x="308" 
d="M195 115q0 -61 11.5 -85.5t51.5 -24.5v-5h-208v5q40 0 51 24.5t12 85.5v265q-1 61 -12 85t-51 24v5h162v-5q-17 -9 -17 -151v-223z" />
    <glyph glyph-name="IJ" unicode="&#x132;" horiz-adv-x="618" 
d="M200 585v-470q1 -61 12 -85.5t51 -24.5v-5h-213v5q40 0 51.5 24.5t11.5 85.5v470q0 61 -11.5 85.5t-51.5 24.5v5h213v-5q-40 0 -51 -24.5t-12 -85.5zM354 700h214v-5q-40 0 -51.5 -24.5t-11.5 -85.5v-563q0 -107 -52 -159t-140 -59v6q104 38 104 200v575q0 61 -11.5 85.5
t-51.5 24.5v5z" />
    <glyph glyph-name="ij" unicode="&#x133;" horiz-adv-x="597" 
d="M195 115q0 -61 11.5 -85.5t51.5 -24.5v-5h-208v5q40 0 51 24.5t12 85.5v265q-1 61 -12 85t-51 24v5h162v-5q-17 -9 -17 -151v-223zM154 599q-22 0 -37.5 16t-15.5 39t15.5 39.5t37.5 16.5t37.5 -16.5t15.5 -39.5t-15.5 -39t-37.5 -16zM339 494h163v-5q-17 -9 -17 -151
v-413q0 -201 -187 -218v7q104 36 104 199v467q0 61 -11.5 85t-51.5 24v5zM443 599q-22 0 -37.5 16t-15.5 39t15.5 39.5t37.5 16.5t38 -16.5t16 -39.5t-15.5 -39t-38.5 -16z" />
    <glyph glyph-name="Jcircumflex" unicode="&#x134;" horiz-adv-x="315" 
d="M51 700h214v-5q-40 0 -51.5 -24.5t-11.5 -85.5v-563q0 -107 -52 -159t-140 -59v6q104 38 104 200v575q0 61 -11.5 85.5t-51.5 24.5v5zM164 880l97 -111h-4l-119 74l-119 -74h-5l97 111h53z" />
    <glyph glyph-name="jcircumflex" unicode="&#x135;" horiz-adv-x="308" 
d="M48 494h163v-5q-17 -9 -17 -151v-413q0 -201 -187 -218v7q104 36 104 199v467q0 61 -11.5 85t-51.5 24v5zM116 680l97 -111h-4l-119 74l-119 -74h-5l97 111h53z" />
    <glyph glyph-name="Kcommaaccent" unicode="&#x136;" horiz-adv-x="731" 
d="M531 134q41 -49 95.5 -89t99.5 -40v-5h-206l-272 346q-11 -10 -28 -25.5t-20 -18.5v-187q1 -61 12 -85.5t51 -24.5v-5h-213v5q40 0 51 24.5t12 85.5v470q-1 61 -12 85.5t-51 24.5v5h213v-5q-40 0 -51 -24.5t-12 -85.5v-278q174 162 247 235q36 36 50 71.5t3 58.5t-46 23
v5h213v-5q-61 0 -216 -156l-9 -9q-36 -36 -130 -124q204 -254 219 -272zM406 -132q1 -23 -1.5 -41t-9.5 -37.5t-24.5 -30t-43.5 -9.5v4q23 -2 39.5 7.5t23.5 25.5t9 29t2 25q-14 -23 -47 -19q-20 2 -33 17.5t-11 34.5q1 20 16.5 33t35.5 11q42 -3 44 -50z" />
    <glyph glyph-name="kcommaaccent" unicode="&#x137;" horiz-adv-x="622" 
d="M450 119q39 -56 73 -85t79 -29v-5h-181l-176 277l-49 -49v-113q0 -61 11.5 -85.5t51.5 -24.5v-5h-209v5q40 0 51.5 24.5t11.5 85.5v507q0 61 -11.5 85t-51.5 24v5h163v-5q-17 -9 -17 -150v-346q10 10 87 85t101 99q10 10 12 24.5t-5 25.5q-12 20 -62 20v5h213v-5
q-25 0 -70.5 -18.5t-82.5 -53.5q-12 -12 -26.5 -25.5t-31.5 -30t-26 -25.5q92 -143 145 -217zM374 -132q1 -23 -1.5 -41t-9.5 -37.5t-24.5 -30t-43.5 -9.5v4q23 -2 39.5 7.5t23.5 25.5t9 29t2 25q-14 -23 -47 -19q-20 2 -33 17.5t-11 34.5q1 20 16.5 33t35.5 11
q42 -3 44 -50z" />
    <glyph glyph-name="kgreenlandic" unicode="&#x138;" horiz-adv-x="622" 
d="M450 119q39 -56 73 -85t79 -29v-5h-181l-176 277l-49 -49v-113q0 -61 11.5 -85.5t51.5 -24.5v-5h-209v5q40 0 51.5 24.5t11.5 85.5v265q0 61 -11.5 85t-51.5 24v5h163v-5q-17 -9 -17 -150v-104q10 10 87 85t101 99q10 10 12 24.5t-5 25.5q-12 20 -62 20v5h213v-5
q-25 0 -70.5 -18.5t-82.5 -53.5q-12 -12 -26.5 -25.5t-31.5 -30t-26 -25.5q92 -143 145 -217z" />
    <glyph glyph-name="Lacute" unicode="&#x139;" 
d="M571 169h5l-42 -169h-484v5q40 0 51.5 24t11.5 85v471q0 61 -11.5 85.5t-51.5 24.5v5h213v-5q-40 0 -51 -24.5t-12 -85.5v-471q1 -61 12 -85t51 -24h114q67 0 116 50t78 114zM156 769l39 111h56l-90 -111h-5z" />
    <glyph glyph-name="lacute" unicode="&#x13a;" horiz-adv-x="309" 
d="M196 115q0 -61 11.5 -85.5t51.5 -24.5v-5h-209v5q40 0 51.5 24.5t11.5 85.5v507q0 61 -11.5 85t-51.5 24v5h163v-5q-17 -9 -17 -150v-466zM137 770l39 111h56l-90 -111h-5z" />
    <glyph glyph-name="Lcommaaccent" unicode="&#x13b;" 
d="M571 169h5l-42 -169h-484v5q40 0 51.5 24t11.5 85v471q0 61 -11.5 85.5t-51.5 24.5v5h213v-5q-40 0 -51 -24.5t-12 -85.5v-471q1 -61 12 -85t51 -24h114q67 0 116 50t78 114zM384 -132q1 -23 -1.5 -41t-9.5 -37.5t-24.5 -30t-43.5 -9.5v4q23 -2 39.5 7.5t23.5 25.5t9 29
t2 25q-14 -23 -47 -19q-20 2 -33 17.5t-11 34.5q1 20 16.5 33t35.5 11q42 -3 44 -50z" />
    <glyph glyph-name="lcommaaccent" unicode="&#x13c;" horiz-adv-x="309" 
d="M196 115q0 -61 11.5 -85.5t51.5 -24.5v-5h-209v5q40 0 51.5 24.5t11.5 85.5v507q0 61 -11.5 85t-51.5 24v5h163v-5q-17 -9 -17 -150v-466zM203 -132q1 -23 -1.5 -41t-9.5 -37.5t-24.5 -30t-43.5 -9.5v4q23 -2 39.5 7.5t23.5 25.5t9 29t2 25q-14 -23 -47 -19
q-20 2 -33 17.5t-11 34.5q1 20 16.5 33t35.5 11q42 -3 44 -50z" />
    <glyph glyph-name="Lcaron" unicode="&#x13d;" 
d="M571 169h5l-42 -169h-484v5q40 0 51.5 24t11.5 85v471q0 61 -11.5 85.5t-51.5 24.5v5h213v-5q-40 0 -51 -24.5t-12 -85.5v-471q1 -61 12 -85t51 -24h114q67 0 116 50t78 114zM433 663q1 -18 -1 -32.5t-7.5 -29.5t-19.5 -23.5t-35 -7.5v4q34 -3 47 21t12 47
q-10 -17 -37 -15q-16 2 -26 14t-9 28q2 16 13.5 25.5t27.5 8.5q33 -3 35 -40z" />
    <glyph glyph-name="lcaron" unicode="&#x13e;" horiz-adv-x="339" 
d="M196 115q0 -61 11.5 -85.5t51.5 -24.5v-5h-209v5q40 0 51.5 24.5t11.5 85.5v507q0 61 -11.5 85t-51.5 24v5h163v-5q-17 -9 -17 -150v-466zM388 700q1 -18 -1 -32.5t-7.5 -29.5t-19.5 -23.5t-35 -7.5v4q34 -3 47 21t12 47q-10 -17 -37 -15q-16 2 -26 14t-9 28
q2 16 13.5 25.5t27.5 8.5q33 -3 35 -40z" />
    <glyph glyph-name="Ldot" unicode="&#x13f;" 
d="M571 169h5l-42 -169h-484v5q40 0 51.5 24t11.5 85v471q0 61 -11.5 85.5t-51.5 24.5v5h213v-5q-40 0 -51 -24.5t-12 -85.5v-471q1 -61 12 -85t51 -24h114q67 0 116 50t78 114zM552 335q16 0 27.5 -11.5t11.5 -27.5t-11.5 -27t-27.5 -11t-27.5 11t-11.5 27t11.5 27.5
t27.5 11.5z" />
    <glyph glyph-name="ldot" unicode="&#x140;" horiz-adv-x="331" 
d="M196 115q0 -61 11.5 -85.5t51.5 -24.5v-5h-209v5q40 0 51.5 24.5t11.5 85.5v507q0 61 -11.5 85t-51.5 24v5h163v-5q-17 -9 -17 -150v-466zM307 373q16 0 27.5 -11.5t11.5 -27.5t-11.5 -27t-27.5 -11t-27.5 11t-11.5 27t11.5 27.5t27.5 11.5z" />
    <glyph glyph-name="Lslash" unicode="&#x141;" 
d="M571 170h4l-41 -170h-484v5q40 0 51 24t12 86v55l-60 -36l-3 3l63 39v409q-1 62 -12 86t-51 24v5h213v-5q-40 0 -51.5 -24.5t-11.5 -85.5v-356l97 59l3 -4l-100 -61v-108q0 -61 11.5 -85.5t51.5 -24.5h114q67 0 116.5 50.5t77.5 114.5z" />
    <glyph glyph-name="lslash" unicode="&#x142;" horiz-adv-x="309" 
d="M196 115q0 -61 11.5 -85.5t51.5 -24.5v-5h-209v5q40 0 51.5 24.5t11.5 85.5v59l-59 -40l-4 3l63 43v442q0 61 -11.5 85t-51.5 24v5h163v-5q-17 -9 -17 -150v-346l77 52l4 -3l-81 -55v-114z" />
    <glyph glyph-name="Nacute" unicode="&#x143;" horiz-adv-x="791" 
d="M514 700h252v-5q-52 0 -87.5 -51.5t-35.5 -137.5v-506h-12q-3 3 -234 298t-244 310v-414q0 -87 35.5 -138t88.5 -51v-5h-252v5q53 0 88 51t35 138v420q-66 81 -116 81v5h167l439 -568v374q0 87 -35.5 138t-88.5 51v5zM408 769l39 111h56l-90 -111h-5z" />
    <glyph glyph-name="nacute" unicode="&#x144;" horiz-adv-x="628" 
d="M515 115q1 -62 12 -86t51 -24v-5h-208v5q40 0 51.5 24.5t11.5 85.5v234q0 30 -3.5 52.5t-14 46t-33.5 36.5t-58 13q-34 0 -72.5 -27t-54.5 -70q-1 -18 -1 -61v-224q0 -61 11.5 -85.5t51.5 -24.5v-5h-209v5q40 0 51.5 24.5t11.5 85.5v264q0 61 -11.5 85.5t-51.5 24.5v5
h163v-5q-12 -5 -16 -77q21 41 59 66.5t88 25.5q171 0 171 -160v-229zM327 569l39 111h56l-90 -111h-5z" />
    <glyph glyph-name="Ncommaaccent" unicode="&#x145;" horiz-adv-x="791" 
d="M514 700h252v-5q-52 0 -87.5 -51.5t-35.5 -137.5v-506h-12q-3 3 -234 298t-244 310v-414q0 -87 35.5 -138t88.5 -51v-5h-252v5q53 0 88 51t35 138v420q-66 81 -116 81v5h167l439 -568v374q0 87 -35.5 138t-88.5 51v5zM474 -132q1 -23 -1.5 -41t-9.5 -37.5t-24.5 -30
t-43.5 -9.5v4q23 -2 39.5 7.5t23.5 25.5t9 29t2 25q-14 -23 -47 -19q-20 2 -33 17.5t-11 34.5q1 20 16.5 33t35.5 11q42 -3 44 -50z" />
    <glyph glyph-name="ncommaaccent" unicode="&#x146;" horiz-adv-x="628" 
d="M515 115q1 -62 12 -86t51 -24v-5h-208v5q40 0 51.5 24.5t11.5 85.5v234q0 30 -3.5 52.5t-14 46t-33.5 36.5t-58 13q-34 0 -72.5 -27t-54.5 -70q-1 -18 -1 -61v-224q0 -61 11.5 -85.5t51.5 -24.5v-5h-209v5q40 0 51.5 24.5t11.5 85.5v264q0 61 -11.5 85.5t-51.5 24.5v5
h163v-5q-12 -5 -16 -77q21 41 59 66.5t88 25.5q171 0 171 -160v-229zM362 -132q1 -23 -1.5 -41t-9.5 -37.5t-24.5 -30t-43.5 -9.5v4q23 -2 39.5 7.5t23.5 25.5t9 29t2 25q-14 -23 -47 -19q-20 2 -33 17.5t-11 34.5q1 20 16.5 33t35.5 11q42 -3 44 -50z" />
    <glyph glyph-name="Ncaron" unicode="&#x147;" horiz-adv-x="791" 
d="M514 700h252v-5q-52 0 -87.5 -51.5t-35.5 -137.5v-506h-12q-3 3 -234 298t-244 310v-414q0 -87 35.5 -138t88.5 -51v-5h-252v5q53 0 88 51t35 138v420q-66 81 -116 81v5h167l439 -568v374q0 87 -35.5 138t-88.5 51v5zM539 873l-97 -112h-53l-97 112h5l119 -74l118 74h5z
" />
    <glyph glyph-name="ncaron" unicode="&#x148;" horiz-adv-x="628" 
d="M515 115q1 -62 12 -86t51 -24v-5h-208v5q40 0 51.5 24.5t11.5 85.5v234q0 30 -3.5 52.5t-14 46t-33.5 36.5t-58 13q-34 0 -72.5 -27t-54.5 -70q-1 -18 -1 -61v-224q0 -61 11.5 -85.5t51.5 -24.5v-5h-209v5q40 0 51.5 24.5t11.5 85.5v264q0 61 -11.5 85.5t-51.5 24.5v5
h163v-5q-12 -5 -16 -77q21 41 59 66.5t88 25.5q171 0 171 -160v-229zM457 673l-97 -112h-53l-97 112h5l119 -74l118 74h5z" />
    <glyph glyph-name="napostrophe" unicode="&#x149;" horiz-adv-x="784" 
d="M671 115q1 -62 12 -86t51 -24v-5h-208v5q40 0 51.5 24.5t11.5 85.5v234q0 30 -3.5 52.5t-14 46t-33.5 36.5t-58 13q-34 0 -72.5 -27t-54.5 -70q-1 -18 -1 -61v-224q0 -61 11.5 -85.5t51.5 -24.5v-5h-209v5q40 0 51.5 24.5t11.5 85.5v264q0 61 -11.5 85.5t-51.5 24.5v5
h163v-5q-12 -5 -16 -77q21 41 59 66.5t88 25.5q171 0 171 -160v-229zM147 450q1 -23 -1.5 -41t-9.5 -37.5t-24.5 -30t-43.5 -9.5v4q23 -2 39.5 7.5t23.5 25.5t9 29t2 25q-14 -23 -47 -19q-20 2 -33 17.5t-11 34.5q1 20 16.5 33t35.5 11q42 -3 44 -50z" />
    <glyph glyph-name="Eng" unicode="&#x14a;" horiz-adv-x="791" 
d="M514 700h252v-5q-53 0 -88 -51t-35 -138v-499q0 -31 -17 -65.5t-33 -47.5q-21 -16 -43 -14t-27 21q-4 19 5.5 33t26.5 12q8 -1 17 -4.5t14.5 -6.5t13.5 -2t16 9q19 18 24 58h-9q-1 1 -117.5 149.5t-233.5 297.5t-127 161v-414q0 -87 35.5 -138t88.5 -51v-5h-252v5
q53 0 88.5 51t35.5 138v420q-68 81 -117 81v5h167l439 -568v374q0 87 -35.5 138t-88.5 51v5z" />
    <glyph glyph-name="eng" unicode="&#x14b;" horiz-adv-x="600" 
d="M344 504q171 0 171 -160v-337q0 -32 -17 -66.5t-33 -46.5q-20 -16 -42 -14t-27 21t5 33t27 12q8 -1 21 -7t19 -6t21 9q19 19 24 58h-143v5q40 0 51.5 24.5t11.5 85.5v234q0 30 -3.5 52t-14 45.5t-33.5 36.5t-58 13t-73 -26.5t-54 -69.5q-1 -17 -1 -61v-224
q0 -61 11.5 -85.5t51.5 -24.5v-5h-209v5q40 0 51.5 24.5t11.5 85.5v264q0 61 -11.5 85.5t-51.5 24.5v5h163v-5q-12 -5 -16 -76q21 40 59 65.5t88 25.5z" />
    <glyph glyph-name="Omacron" unicode="&#x14c;" horiz-adv-x="845" 
d="M391 707q159 15 275.5 -74t131.5 -250q14 -160 -85 -268t-259 -122q-159 -15 -275.5 74t-131.5 249q-14 161 85 269t259 122zM454 -2q114 11 185.5 121t58.5 256t-103 241.5t-204 85.5t-185.5 -120.5t-58.5 -256.5q13 -145 103 -241t204 -86zM335 827h174v-5h-174v5z" />
    <glyph glyph-name="omacron" unicode="&#x14d;" 
d="M284 503q109 8 187.5 -57.5t82.5 -176.5q4 -107 -58.5 -187.5t-166.5 -90.5q-112 -11 -197 54t-92 178q-7 114 62.5 193t181.5 87zM329 -5q68 10 106 88.5t31 181.5q-6 98 -57 169t-125 65q-81 -7 -123 -80.5t-34 -189.5q9 -117 64.5 -181t137.5 -53zM209 627h174v-5
h-174v5z" />
    <glyph glyph-name="Obreve" unicode="&#x14e;" horiz-adv-x="845" 
d="M391 707q159 15 275.5 -74t131.5 -250q14 -160 -85 -268t-259 -122q-159 -15 -275.5 74t-131.5 249q-14 161 85 269t259 122zM454 -2q114 11 185.5 121t58.5 256t-103 241.5t-204 85.5t-185.5 -120.5t-58.5 -256.5q13 -145 103 -241t204 -86zM464 850h55q-8 -91 -97 -91
q-40 0 -66 22t-30 69h55q7 -88 41 -88q35 0 42 88z" />
    <glyph glyph-name="obreve" unicode="&#x14f;" 
d="M284 503q109 8 187.5 -57.5t82.5 -176.5q4 -107 -58.5 -187.5t-166.5 -90.5q-112 -11 -197 54t-92 178q-7 114 62.5 193t181.5 87zM329 -5q68 10 106 88.5t31 181.5q-6 98 -57 169t-125 65q-81 -7 -123 -80.5t-34 -189.5q9 -117 64.5 -181t137.5 -53zM337 650h55
q-8 -91 -97 -91q-40 0 -66 22t-30 69h55q7 -88 41 -88q35 0 42 88z" />
    <glyph glyph-name="Ohungarumlaut" unicode="&#x150;" horiz-adv-x="845" 
d="M391 707q159 15 275.5 -74t131.5 -250q14 -160 -85 -268t-259 -122q-159 -15 -275.5 74t-131.5 249q-14 161 85 269t259 122zM454 -2q114 11 185.5 121t58.5 256t-103 241.5t-204 85.5t-185.5 -120.5t-58.5 -256.5q13 -145 103 -241t204 -86zM453 769l39 111h56l-90 -111
h-5zM378 769l39 111h56l-90 -111h-5z" />
    <glyph glyph-name="ohungarumlaut" unicode="&#x151;" 
d="M284 503q109 8 187.5 -57.5t82.5 -176.5q4 -107 -58.5 -187.5t-166.5 -90.5q-112 -11 -197 54t-92 178q-7 114 62.5 193t181.5 87zM329 -5q68 10 106 88.5t31 181.5q-6 98 -57 169t-125 65q-81 -7 -123 -80.5t-34 -189.5q9 -117 64.5 -181t137.5 -53zM326 569l39 111h56
l-90 -111h-5zM251 569l39 111h56l-90 -111h-5z" />
    <glyph glyph-name="OE" unicode="&#x152;" horiz-adv-x="974" 
d="M944 170h5l-41 -170h-540q-156 0 -239.5 98t-83.5 252q0 153 84 251.5t239 98.5h508l34 -138h-5q-25 57 -71 95t-115 38h-83q-40 0 -51 -24t-12 -86v-234h73q58 0 99 36.5t41 87.5h5v-252h-5q0 51 -41 87t-99 36h-73v-231q1 -62 12 -86t51 -24h114q36 0 68.5 16
t56.5 42.5t40.5 52.5t28.5 54zM412 5h11q40 0 51.5 24.5t11.5 85.5v470q0 61 -11.5 85.5t-51.5 24.5h-11q-52 0 -97 -17t-84.5 -54.5t-62.5 -107.5t-23 -166t23 -166t62.5 -107.5t84.5 -54.5t97 -17z" />
    <glyph glyph-name="oe" unicode="&#x153;" horiz-adv-x="978" 
d="M942 332h-377q-8 -52 -4 -101v-1q10 -110 65 -173.5t136 -61.5q88 1 157 69v-11q-66 -57 -157 -63q-76 -5 -143.5 24t-106.5 88q-65 -99 -181 -111q-112 -11 -197 54t-92 178q-7 114 62.5 193t181.5 87q71 5 133 -23.5t99 -82.5q33 46 84.5 74t112.5 32q89 7 151 -39.5
t76 -131.5zM715 499q-56 1 -95.5 -44.5t-53.5 -118.5h291q-16 161 -142 163zM331 -5q68 10 106 88.5t31 181.5q-6 98 -57 169t-125 65q-81 -7 -123 -80.5t-34 -189.5q9 -117 64.5 -181t137.5 -53z" />
    <glyph glyph-name="Racute" unicode="&#x154;" horiz-adv-x="719" 
d="M556 109q70 -104 153 -104v-5h-107q-76 0 -113 44q-28 32 -53.5 87.5t-41.5 99.5t-44 78.5t-63 36.5h-87v-232q1 -61 12 -85t51 -24v-5h-213v5q40 0 51 24t12 85v471q-1 62 -12 86t-51 24v5h276q83 0 147 -45t64 -132q0 -74 -46.5 -117.5t-119.5 -54.5q44 -13 73.5 -49
t61 -100.5t50.5 -92.5zM200 351h95q56 0 100.5 43t44.5 129t-46 129t-99 43h-32q-40 0 -51 -24t-12 -86v-234zM282 769l39 111h56l-90 -111h-5z" />
    <glyph glyph-name="racute" unicode="&#x155;" horiz-adv-x="443" 
d="M337 503q30 4 50.5 -9t19.5 -37t-21.5 -33t-37.5 3q-9 6 -18 18.5t-18.5 18t-25.5 0.5q-26 -7 -52.5 -44.5t-37.5 -79.5l-1 -225q1 -61 12 -85.5t51 -24.5v-5h-208v5q40 0 51.5 24.5t11.5 85.5v264q0 61 -11.5 85.5t-51.5 24.5v5h162v-5q-16 -9 -17 -138q17 62 62.5 105
t79.5 47zM222 569l39 111h56l-90 -111h-5z" />
    <glyph glyph-name="Rcommaaccent" unicode="&#x156;" horiz-adv-x="719" 
d="M556 109q70 -104 153 -104v-5h-107q-76 0 -113 44q-28 32 -53.5 87.5t-41.5 99.5t-44 78.5t-63 36.5h-87v-232q1 -61 12 -85t51 -24v-5h-213v5q40 0 51 24t12 85v471q-1 62 -12 86t-51 24v5h276q83 0 147 -45t64 -132q0 -74 -46.5 -117.5t-119.5 -54.5q44 -13 73.5 -49
t61 -100.5t50.5 -92.5zM200 351h95q56 0 100.5 43t44.5 129t-46 129t-99 43h-32q-40 0 -51 -24t-12 -86v-234zM418 -132q1 -23 -1.5 -41t-9.5 -37.5t-24.5 -30t-43.5 -9.5v4q23 -2 39.5 7.5t23.5 25.5t9 29t2 25q-14 -23 -47 -19q-20 2 -33 17.5t-11 34.5q1 20 16.5 33
t35.5 11q42 -3 44 -50z" />
    <glyph glyph-name="rcommaaccent" unicode="&#x157;" horiz-adv-x="443" 
d="M337 503q30 4 50.5 -9t19.5 -37t-21.5 -33t-37.5 3q-9 6 -18 18.5t-18.5 18t-25.5 0.5q-26 -7 -52.5 -44.5t-37.5 -79.5l-1 -225q1 -61 12 -85.5t51 -24.5v-5h-208v5q40 0 51.5 24.5t11.5 85.5v264q0 61 -11.5 85.5t-51.5 24.5v5h162v-5q-16 -9 -17 -138q17 62 62.5 105
t79.5 47zM204 -132q1 -23 -1.5 -41t-9.5 -37.5t-24.5 -30t-43.5 -9.5v4q23 -2 39.5 7.5t23.5 25.5t9 29t2 25q-14 -23 -47 -19q-20 2 -33 17.5t-11 34.5q1 20 16.5 33t35.5 11q42 -3 44 -50z" />
    <glyph glyph-name="Rcaron" unicode="&#x158;" horiz-adv-x="719" 
d="M556 109q70 -104 153 -104v-5h-107q-76 0 -113 44q-28 32 -53.5 87.5t-41.5 99.5t-44 78.5t-63 36.5h-87v-232q1 -61 12 -85t51 -24v-5h-213v5q40 0 51 24t12 85v471q-1 62 -12 86t-51 24v5h276q83 0 147 -45t64 -132q0 -74 -46.5 -117.5t-119.5 -54.5q44 -13 73.5 -49
t61 -100.5t50.5 -92.5zM200 351h95q56 0 100.5 43t44.5 129t-46 129t-99 43h-32q-40 0 -51 -24t-12 -86v-234zM403 873l-97 -112h-53l-97 112h5l119 -74l118 74h5z" />
    <glyph glyph-name="rcaron" unicode="&#x159;" horiz-adv-x="443" 
d="M337 503q30 4 50.5 -9t19.5 -37t-21.5 -33t-37.5 3q-9 6 -18 18.5t-18.5 18t-25.5 0.5q-26 -7 -52.5 -44.5t-37.5 -79.5l-1 -225q1 -61 12 -85.5t51 -24.5v-5h-208v5q40 0 51.5 24.5t11.5 85.5v264q0 61 -11.5 85.5t-51.5 24.5v5h162v-5q-16 -9 -17 -138q17 62 62.5 105
t79.5 47zM363 673l-97 -112h-53l-97 112h5l119 -74l118 74h5z" />
    <glyph glyph-name="Sacute" unicode="&#x15a;" horiz-adv-x="567" 
d="M144 569q0 -46 38.5 -85t93 -69t109.5 -61.5t93.5 -77.5t38.5 -102q0 -89 -65.5 -136.5t-171.5 -47.5q-54 0 -141 19q-17 4 -27 5.5t-25.5 0t-23.5 -14.5t-8 -37h-5v252h5q0 -24 13.5 -59t39 -72t71.5 -63t101 -26q68 0 110.5 39t42.5 101q0 41 -27 76.5t-68 59t-88 51.5
t-88 54.5t-68 68t-27 90.5q0 84 61 129.5t147 45.5q25 0 48 -4t58 -14t40 -11q28 -8 41.5 3.5t13.5 51.5h5v-252h-5q0 93 -55.5 157t-142.5 64q-55 0 -94.5 -34t-39.5 -102zM276 769l39 111h56l-90 -111h-5z" />
    <glyph glyph-name="sacute" unicode="&#x15b;" horiz-adv-x="453" 
d="M140 407q0 -33 27.5 -61t67 -49.5t79 -44.5t67 -56t27.5 -73q0 -64 -47.5 -98t-136.5 -34q-61 0 -103 25.5t-62 54.5q-16 25 -13 49t22 32q20 8 36.5 -4.5t14.5 -32.5q-1 -10 -9 -27t-9.5 -25.5t9.5 -26.5q35 -41 114 -41q48 0 78.5 27t30.5 65q0 28 -19.5 52t-49 40.5
t-63.5 37.5t-63.5 41.5t-49 53.5t-19.5 73q0 57 44.5 87.5t122.5 30.5q97 0 145 -70q16 -25 13 -49t-22 -32q-20 -8 -36.5 4.5t-14.5 32.5q1 10 8 26.5t8 24.5t-9 25q-32 34 -92 34q-45 0 -70.5 -27t-25.5 -65zM239 569l39 111h56l-90 -111h-5z" />
    <glyph glyph-name="Scircumflex" unicode="&#x15c;" horiz-adv-x="567" 
d="M144 569q0 -46 38.5 -85t93 -69t109.5 -61.5t93.5 -77.5t38.5 -102q0 -89 -65.5 -136.5t-171.5 -47.5q-54 0 -141 19q-17 4 -27 5.5t-25.5 0t-23.5 -14.5t-8 -37h-5v252h5q0 -24 13.5 -59t39 -72t71.5 -63t101 -26q68 0 110.5 39t42.5 101q0 41 -27 76.5t-68 59t-88 51.5
t-88 54.5t-68 68t-27 90.5q0 84 61 129.5t147 45.5q25 0 48 -4t58 -14t40 -11q28 -8 41.5 3.5t13.5 51.5h5v-252h-5q0 93 -55.5 157t-142.5 64q-55 0 -94.5 -34t-39.5 -102zM310 880l97 -111h-4l-119 74l-119 -74h-5l97 111h53z" />
    <glyph glyph-name="scircumflex" unicode="&#x15d;" horiz-adv-x="453" 
d="M140 407q0 -33 27.5 -61t67 -49.5t79 -44.5t67 -56t27.5 -73q0 -64 -47.5 -98t-136.5 -34q-61 0 -103 25.5t-62 54.5q-16 25 -13 49t22 32q20 8 36.5 -4.5t14.5 -32.5q-1 -10 -9 -27t-9.5 -25.5t9.5 -26.5q35 -41 114 -41q48 0 78.5 27t30.5 65q0 28 -19.5 52t-49 40.5
t-63.5 37.5t-63.5 41.5t-49 53.5t-19.5 73q0 57 44.5 87.5t122.5 30.5q97 0 145 -70q16 -25 13 -49t-22 -32q-20 -8 -36.5 4.5t-14.5 32.5q1 10 8 26.5t8 24.5t-9 25q-32 34 -92 34q-45 0 -70.5 -27t-25.5 -65zM263 680l97 -111h-4l-119 74l-119 -74h-5l97 111h53z" />
    <glyph glyph-name="Scedilla" unicode="&#x15e;" horiz-adv-x="567" 
d="M281 -9h-2q-3 -8 -5 -14q50 4 71.5 -17t11.5 -54q-7 -24 -31 -34t-52 -3q-18 5 -35 22v11q15 -21 30 -27q18 -6 31.5 6.5t16.5 32.5q2 15 2 29t-12.5 23t-37.5 8q0 2 2 6.5t4 10.5q-54 0 -135 19q-51 11 -67 0q-18 -12 -18 -46h-5v252h5q0 -24 13.5 -59.5t39.5 -72.5
t71.5 -63t100.5 -26q69 0 111 39t42 102q0 49 -37.5 88.5t-91.5 69t-108 60.5t-91.5 77t-37.5 104q0 84 61 129t147 45q20 0 41.5 -3t35 -6.5t37 -10t32.5 -8.5q28 -8 41.5 3.5t13.5 51.5h5v-252h-5q0 93 -55.5 157t-142.5 64q-55 0 -94.5 -34t-39.5 -102q0 -46 38.5 -85
t93 -69t109.5 -61.5t93.5 -77.5t38.5 -102q0 -89 -65 -136t-171 -47z" />
    <glyph glyph-name="scedilla" unicode="&#x15f;" horiz-adv-x="453" 
d="M408 124q0 -63 -46.5 -97.5t-133.5 -35.5q-3 -8 -5 -14q50 4 71 -17t11 -54q-7 -24 -30.5 -34t-51.5 -3q-19 5 -36 22v11q15 -21 30 -27q18 -6 31.5 6.5t17.5 32.5q1 15 1 29t-12 23t-37 8q0 2 2 6.5t4 10.5q-58 -1 -102 25t-63 55q-16 25 -13 49t22 32q20 8 37 -4
t15 -33q-1 -9 -6.5 -20.5t-9.5 -19t-3.5 -18t9.5 -20.5q35 -41 114 -41q48 0 78.5 27t30.5 65q0 28 -19.5 52t-49 40.5t-63.5 37t-63.5 41t-49 53.5t-19.5 73q0 58 44.5 88.5t122.5 30.5q97 0 145 -70q17 -25 13.5 -49t-22.5 -32t-36 4.5t-15 32.5q1 9 5.5 20t8 18.5
t2.5 17.5t-9 19q-16 18 -35 26t-57 8q-45 0 -70.5 -26.5t-25.5 -64.5q0 -33 27.5 -61.5t67 -50t79 -44t67 -55.5t27.5 -73z" />
    <glyph glyph-name="Scaron" unicode="&#x160;" horiz-adv-x="567" 
d="M144 569q0 -46 38.5 -85t93 -69t109.5 -61.5t93.5 -77.5t38.5 -102q0 -89 -65.5 -136.5t-171.5 -47.5q-54 0 -141 19q-17 4 -27 5.5t-25.5 0t-23.5 -14.5t-8 -37h-5v252h5q0 -24 13.5 -59t39 -72t71.5 -63t101 -26q68 0 110.5 39t42.5 101q0 41 -27 76.5t-68 59t-88 51.5
t-88 54.5t-68 68t-27 90.5q0 84 61 129.5t147 45.5q25 0 48 -4t58 -14t40 -11q28 -8 41.5 3.5t13.5 51.5h5v-252h-5q0 93 -55.5 157t-142.5 64q-55 0 -94.5 -34t-39.5 -102zM407 873l-97 -112h-53l-97 112h5l119 -74l118 74h5z" />
    <glyph glyph-name="scaron" unicode="&#x161;" horiz-adv-x="453" 
d="M140 407q0 -33 27.5 -61t67 -49.5t79 -44.5t67 -56t27.5 -73q0 -64 -47.5 -98t-136.5 -34q-61 0 -103 25.5t-62 54.5q-16 25 -13 49t22 32q20 8 36.5 -4.5t14.5 -32.5q-1 -10 -9 -27t-9.5 -25.5t9.5 -26.5q35 -41 114 -41q48 0 78.5 27t30.5 65q0 28 -19.5 52t-49 40.5
t-63.5 37.5t-63.5 41.5t-49 53.5t-19.5 73q0 57 44.5 87.5t122.5 30.5q97 0 145 -70q16 -25 13 -49t-22 -32q-20 -8 -36.5 4.5t-14.5 32.5q1 10 8 26.5t8 24.5t-9 25q-32 34 -92 34q-45 0 -70.5 -27t-25.5 -65zM360 673l-97 -112h-53l-97 112h5l119 -74l118 74h5z" />
    <glyph glyph-name="Tcommaaccent" unicode="&#x162;" horiz-adv-x="686" 
d="M624 700l22 -150h-5q-13 29 -26 50.5t-33.5 45.5t-49.5 36.5t-65 12.5h-17q-40 0 -51.5 -24.5t-11.5 -85.5v-470q0 -61 11.5 -85.5t51.5 -24.5v-5h-214v5q40 0 51.5 24.5t11.5 85.5v470q0 61 -11.5 85.5t-51.5 24.5h-17q-67 0 -106 -40.5t-68 -104.5h-5l22 150h562z
M391 -132q1 -23 -1.5 -41t-9.5 -37.5t-24.5 -30t-43.5 -9.5v4q23 -2 39.5 7.5t23.5 25.5t9 29t2 25q-14 -23 -47 -19q-20 2 -33 17.5t-11 34.5q1 20 16.5 33t35.5 11q42 -3 44 -50z" />
    <glyph glyph-name="tcommaaccent" unicode="&#x163;" horiz-adv-x="317" 
d="M253 -3q21 0 39 11v-6q-21 -12 -54 -12q-147 0 -147 143v356h-46v5h46v36q32 4 50.5 20t26.5 55h5v-111h104v-5h-104v-361q0 -131 80 -131zM236 -132q1 -23 -1.5 -41t-9.5 -37.5t-24.5 -30t-43.5 -9.5v4q23 -2 39.5 7.5t23.5 25.5t9 29t2 25q-14 -23 -47 -19
q-20 2 -33 17.5t-11 34.5q1 20 16.5 33t35.5 11q42 -3 44 -50z" />
    <glyph glyph-name="Tcaron" unicode="&#x164;" horiz-adv-x="686" 
d="M624 700l22 -150h-5q-13 29 -26 50.5t-33.5 45.5t-49.5 36.5t-65 12.5h-17q-40 0 -51.5 -24.5t-11.5 -85.5v-470q0 -61 11.5 -85.5t51.5 -24.5v-5h-214v5q40 0 51.5 24.5t11.5 85.5v470q0 61 -11.5 85.5t-51.5 24.5h-17q-67 0 -106 -40.5t-68 -104.5h-5l22 150h562z
M466 873l-97 -112h-53l-97 112h5l119 -74l118 74h5z" />
    <glyph glyph-name="tcaron" unicode="&#x165;" horiz-adv-x="438" 
d="M253 -3q21 0 39 11v-6q-21 -12 -54 -12q-147 0 -147 143v356h-46v5h46v36q32 4 50.5 20t26.5 55h5v-111h104v-5h-104v-361q0 -131 80 -131zM412 567q1 -18 -1 -32.5t-7.5 -29.5t-19.5 -23.5t-35 -7.5v4q34 -3 47 21t12 47q-10 -17 -37 -15q-16 2 -26 14t-9 28
q2 16 13.5 25.5t27.5 8.5q33 -3 35 -40z" />
    <glyph glyph-name="Tbar" unicode="&#x166;" horiz-adv-x="685" 
d="M623 700l22 -150h-5q-13 29 -26 50.5t-33.5 45.5t-49.5 36.5t-65 12.5h-17q-40 0 -51.5 -24.5t-11.5 -85.5v-234h128v-5h-128v-231q0 -61 11.5 -85.5t51.5 -24.5v-5h-213v5q40 0 51 24t12 86v231h-129v5h129v234q-1 62 -12 86t-51 24h-17q-36 0 -65 -12.5t-50 -36.5
t-33.5 -45t-26.5 -51h-4l21 150h562z" />
    <glyph glyph-name="tbar" unicode="&#x167;" horiz-adv-x="317" 
d="M254 -2q25 0 38 10v-5q-20 -13 -53 -13q-148 0 -148 143v286h-46v5h46v65h-46v5h46v36q32 4 51 20t27 55h5v-111h104v-5h-104v-65h79v-5h-79v-291q0 -130 80 -130z" />
    <glyph glyph-name="Utilde" unicode="&#x168;" horiz-adv-x="706" 
d="M525 700h131v-5q-40 0 -51.5 -24.5t-11.5 -85.5v-367q0 -63 -19 -109t-52.5 -71t-72 -36.5t-84.5 -11.5q-44 0 -86 11.5t-80.5 36.5t-62 71.5t-23.5 108.5v367q0 61 -11.5 85.5t-51.5 24.5v5h213v-5q-40 0 -51 -24t-12 -86v-379q0 -95 46.5 -152t118.5 -57
q113 0 168 58.5t55 162.5v367q0 61 -11.5 85.5t-51.5 24.5v5zM452 797q-17 1 -51.5 10.5t-45.5 10.5q-29 4 -41 -18h-5q0 4 3 16.5t14.5 29t28.5 18.5q10 1 29.5 -3t41 -9.5t26.5 -6.5q32 -6 39 18h5q0 -11 -2.5 -24.5t-13 -28t-28.5 -13.5z" />
    <glyph glyph-name="utilde" unicode="&#x169;" horiz-adv-x="623" 
d="M510 115v-1q1 -61 12 -85t51 -24v-5h-162v5q11 5 15 76q-20 -40 -58 -65.5t-88 -25.5q-172 0 -172 160v229q0 61 -11.5 85.5t-51.5 24.5v5h162v-5q-16 -9 -16 -150v-194q0 -30 3.5 -52.5t14 -46t33 -36.5t57.5 -13t73.5 27t54.5 70q0 8 0.5 28.5t0.5 32.5v224
q-1 62 -12 86t-51 24v5h162v-5q-17 -9 -17 -150v-224zM348 597q-17 1 -51.5 10.5t-45.5 10.5q-29 4 -41 -18h-5q0 4 3 16.5t14.5 29t28.5 18.5q10 1 29.5 -3t41 -9.5t26.5 -6.5q32 -6 39 18h5q0 -11 -2.5 -24.5t-13 -28t-28.5 -13.5z" />
    <glyph glyph-name="Umacron" unicode="&#x16a;" horiz-adv-x="706" 
d="M525 700h131v-5q-40 0 -51.5 -24.5t-11.5 -85.5v-367q0 -63 -19 -109t-52.5 -71t-72 -36.5t-84.5 -11.5q-44 0 -86 11.5t-80.5 36.5t-62 71.5t-23.5 108.5v367q0 61 -11.5 85.5t-51.5 24.5v5h213v-5q-40 0 -51 -24t-12 -86v-379q0 -95 46.5 -152t118.5 -57
q113 0 168 58.5t55 162.5v367q0 61 -11.5 85.5t-51.5 24.5v5zM306 827h174v-5h-174v5z" />
    <glyph glyph-name="umacron" unicode="&#x16b;" horiz-adv-x="623" 
d="M510 115v-1q1 -61 12 -85t51 -24v-5h-162v5q11 5 15 76q-20 -40 -58 -65.5t-88 -25.5q-172 0 -172 160v229q0 61 -11.5 85.5t-51.5 24.5v5h162v-5q-16 -9 -16 -150v-194q0 -30 3.5 -52.5t14 -46t33 -36.5t57.5 -13t73.5 27t54.5 70q0 8 0.5 28.5t0.5 32.5v224
q-1 62 -12 86t-51 24v5h162v-5q-17 -9 -17 -150v-224zM212 627h174v-5h-174v5z" />
    <glyph glyph-name="Ubreve" unicode="&#x16c;" horiz-adv-x="706" 
d="M525 700h131v-5q-40 0 -51.5 -24.5t-11.5 -85.5v-367q0 -63 -19 -109t-52.5 -71t-72 -36.5t-84.5 -11.5q-44 0 -86 11.5t-80.5 36.5t-62 71.5t-23.5 108.5v367q0 61 -11.5 85.5t-51.5 24.5v5h213v-5q-40 0 -51 -24t-12 -86v-379q0 -95 46.5 -152t118.5 -57
q113 0 168 58.5t55 162.5v367q0 61 -11.5 85.5t-51.5 24.5v5zM435 850h55q-8 -91 -97 -91q-40 0 -66 22t-30 69h55q7 -88 41 -88q35 0 42 88z" />
    <glyph glyph-name="ubreve" unicode="&#x16d;" horiz-adv-x="623" 
d="M510 115v-1q1 -61 12 -85t51 -24v-5h-162v5q11 5 15 76q-20 -40 -58 -65.5t-88 -25.5q-172 0 -172 160v229q0 61 -11.5 85.5t-51.5 24.5v5h162v-5q-16 -9 -16 -150v-194q0 -30 3.5 -52.5t14 -46t33 -36.5t57.5 -13t73.5 27t54.5 70q0 8 0.5 28.5t0.5 32.5v224
q-1 62 -12 86t-51 24v5h162v-5q-17 -9 -17 -150v-224zM341 650h55q-8 -91 -97 -91q-40 0 -66 22t-30 69h55q7 -88 41 -88q35 0 42 88z" />
    <glyph glyph-name="Uring" unicode="&#x16e;" horiz-adv-x="706" 
d="M525 700h131v-5q-40 0 -51.5 -24.5t-11.5 -85.5v-367q0 -63 -19 -109t-52.5 -71t-72 -36.5t-84.5 -11.5q-44 0 -86 11.5t-80.5 36.5t-62 71.5t-23.5 108.5v367q0 61 -11.5 85.5t-51.5 24.5v5h213v-5q-40 0 -51 -24t-12 -86v-379q0 -95 46.5 -152t118.5 -57
q113 0 168 58.5t55 162.5v367q0 61 -11.5 85.5t-51.5 24.5v5zM403 757q-24 0 -41 17t-17 41t17 41t41 17t41 -17t17 -41t-17 -41t-41 -17zM403 868q-22 0 -37.5 -15.5t-15.5 -37.5t15.5 -38t37.5 -16q23 0 38.5 15.5t15.5 38.5q0 22 -16 37.5t-38 15.5z" />
    <glyph glyph-name="uring" unicode="&#x16f;" horiz-adv-x="623" 
d="M510 115v-1q1 -61 12 -85t51 -24v-5h-162v5q11 5 15 76q-20 -40 -58 -65.5t-88 -25.5q-172 0 -172 160v229q0 61 -11.5 85.5t-51.5 24.5v5h162v-5q-16 -9 -16 -150v-194q0 -30 3.5 -52.5t14 -46t33 -36.5t57.5 -13t73.5 27t54.5 70q0 8 0.5 28.5t0.5 32.5v224
q-1 62 -12 86t-51 24v5h162v-5q-17 -9 -17 -150v-224zM299 557q-24 0 -41 17t-17 41t17 41t41 17t41 -17t17 -41t-17 -41t-41 -17zM299 668q-22 0 -37.5 -15.5t-15.5 -37.5t15.5 -38t37.5 -16q23 0 38.5 15.5t15.5 38.5q0 22 -16 37.5t-38 15.5z" />
    <glyph glyph-name="Uhungarumlaut" unicode="&#x170;" horiz-adv-x="706" 
d="M525 700h131v-5q-40 0 -51.5 -24.5t-11.5 -85.5v-367q0 -63 -19 -109t-52.5 -71t-72 -36.5t-84.5 -11.5q-44 0 -86 11.5t-80.5 36.5t-62 71.5t-23.5 108.5v367q0 61 -11.5 85.5t-51.5 24.5v5h213v-5q-40 0 -51 -24t-12 -86v-379q0 -95 46.5 -152t118.5 -57
q113 0 168 58.5t55 162.5v367q0 61 -11.5 85.5t-51.5 24.5v5zM403 769l39 111h56l-90 -111h-5zM328 769l39 111h56l-90 -111h-5z" />
    <glyph glyph-name="uhungarumlaut" unicode="&#x171;" horiz-adv-x="623" 
d="M510 115v-1q1 -61 12 -85t51 -24v-5h-162v5q11 5 15 76q-20 -40 -58 -65.5t-88 -25.5q-172 0 -172 160v229q0 61 -11.5 85.5t-51.5 24.5v5h162v-5q-16 -9 -16 -150v-194q0 -30 3.5 -52.5t14 -46t33 -36.5t57.5 -13t73.5 27t54.5 70q0 8 0.5 28.5t0.5 32.5v224
q-1 62 -12 86t-51 24v5h162v-5q-17 -9 -17 -150v-224zM329 569l39 111h56l-90 -111h-5zM254 569l39 111h56l-90 -111h-5z" />
    <glyph glyph-name="Uogonek" unicode="&#x172;" horiz-adv-x="706" 
d="M525 700h131v-5q-40 0 -51.5 -24.5t-11.5 -85.5v-367q0 -108 -53.5 -162.5t-137.5 -63.5q-57 -19 -51 -69q2 -24 25.5 -31t56.5 9v-5q-42 -36 -82 -28t-34 50q6 47 65 73q-2 0 -8 -0.5t-9 -0.5q-44 0 -86 11.5t-80.5 36.5t-62 71.5t-23.5 108.5v367q0 61 -11.5 85.5
t-51.5 24.5v5h213v-5q-39 0 -50.5 -24.5t-11.5 -85.5v-379q0 -95 46 -152t118 -57q113 0 168 58.5t55 162.5v367q0 61 -11.5 85.5t-51.5 24.5v5z" />
    <glyph glyph-name="uogonek" unicode="&#x173;" horiz-adv-x="623" 
d="M510 115q0 -61 11.5 -85.5t51.5 -24.5v-5q-41 -3 -67 -23t-23 -54q3 -24 26.5 -31t56.5 9v-5q-42 -36 -82 -28t-35 50q4 29 30 51t65 31h-133v5q11 6 15 77q-20 -40 -57.5 -65.5t-88.5 -25.5q-172 0 -172 160v229q0 61 -11.5 85t-51.5 24v5h162v-5q-17 -9 -17 -151v-192
q0 -30 3.5 -52.5t14 -46t33.5 -36.5t58 -13t73.5 26.5t54.5 69.5q0 8 0.5 28.5t0.5 32.5v225q-1 61 -12 85t-51 24v5h162v-5q-17 -9 -17 -151v-223z" />
    <glyph glyph-name="Wcircumflex" unicode="&#x174;" horiz-adv-x="1042" 
d="M798 700h214v-5q-49 -9 -87 -49t-59 -106l-160 -540h-10l-187 556l-162 -556h-9q-163 475 -191 561q-24 69 -49 101.5t-68 32.5v5h237v-5q-34 0 -42.5 -17.5t5.5 -63.5q41 -134 156 -467l160 553h12l184 -564q106 360 112 387q8 40 8.5 78.5t-16 66t-48.5 27.5v5z
M579 880l97 -111h-4l-119 74l-119 -74h-5l97 111h53z" />
    <glyph glyph-name="wcircumflex" unicode="&#x175;" horiz-adv-x="795" 
d="M625 494h150v-5q-64 -11 -102 -109q-11 -27 -42 -122t-57 -176l-25 -82h-10l-146 371l-111 -371h-9q-142 336 -166 395q-11 25 -15.5 35t-15.5 27.5t-23 24.5t-28 7v5h181v-5q-18 0 -24.5 -6.5t-4 -20.5t12.5 -40q10 -29 64 -164t58 -146l115 382h7l147 -382
q13 42 32 101t31.5 97t14.5 45q16 39 7.5 86.5t-41.5 47.5v5zM456 680l97 -111h-4l-119 74l-119 -74h-5l97 111h53z" />
    <glyph glyph-name="Ycircumflex" unicode="&#x176;" horiz-adv-x="676" 
d="M433 700h213v-5q-49 -9 -92 -50t-68 -105q-33 -86 -90 -244v-181q1 -61 12 -85.5t51 -24.5v-5h-213v5q40 0 51.5 24.5t11.5 85.5v180q-18 34 -65.5 126t-60.5 117q-82 157 -153 157v5h221v-5q-14 0 -20.5 -9t-5.5 -22.5t5.5 -28t10.5 -27.5q105 -205 154 -303
q62 175 72 199q29 69 21.5 130t-55.5 61v5zM380 880l97 -111h-4l-119 74l-119 -74h-5l97 111h53z" />
    <glyph glyph-name="ycircumflex" unicode="&#x177;" horiz-adv-x="555" 
d="M385 494h150v-5q-64 -11 -102 -109q-16 -40 -105 -291q-29 -81 -32 -89q-87 -212 -173 -217q-27 -2 -45 13t-17 39q1 22 20 30.5t36 -3.5q7 -5 14 -19.5t11 -24t14.5 -14.5t25.5 9q23 19 54.5 72.5t54.5 114.5h-4q-158 346 -180 395q-1 3 -6.5 14.5t-7 15.5t-6.5 14
t-8 14t-8 11t-9.5 10.5t-10.5 7.5t-12.5 5.5t-13.5 1.5v5h171v-5q-26 0 -29 -14.5t13 -52.5q8 -21 40.5 -95t67 -153t36.5 -83q19 52 41 114t37.5 105t16.5 45q17 38 8.5 86t-42.5 48v5zM322 680l97 -111h-4l-119 74l-119 -74h-5l97 111h53z" />
    <glyph glyph-name="Ydieresis" unicode="&#x178;" horiz-adv-x="676" 
d="M433 700h213v-5q-49 -9 -92 -50t-68 -105q-33 -86 -90 -244v-181q1 -61 12 -85.5t51 -24.5v-5h-213v5q40 0 51.5 24.5t11.5 85.5v180q-18 34 -65.5 126t-60.5 117q-82 157 -153 157v5h221v-5q-14 0 -20.5 -9t-5.5 -22.5t5.5 -28t10.5 -27.5q105 -205 154 -303
q62 175 72 199q29 69 21.5 130t-55.5 61v5zM304 869q16 0 27.5 -11.5t11.5 -27.5t-11.5 -27t-27.5 -11t-27.5 11t-11.5 27t11.5 27.5t27.5 11.5zM406 869q16 0 27 -11.5t11 -27.5t-11 -27t-27 -11t-27.5 11t-11.5 27t11.5 27.5t27.5 11.5z" />
    <glyph glyph-name="Zacute" unicode="&#x179;" horiz-adv-x="581" 
d="M546 700v-5l-415 -690h211q129 0 187 133h5l-34 -138h-465v5l414 690h-204q-69 0 -115 -38t-71 -95h-5l34 138h458zM313 769l39 111h56l-90 -111h-5z" />
    <glyph glyph-name="zacute" unicode="&#x17a;" horiz-adv-x="469" 
d="M429 494v-5l-298 -484h146q49 0 84 29.5t52 70.5h4l-29 -105h-343v5l298 484h-141q-49 0 -83.5 -29.5t-52.5 -70.5h-3l28 105h338zM260 569l39 111h56l-90 -111h-5z" />
    <glyph glyph-name="Zdotaccent" unicode="&#x17b;" horiz-adv-x="581" 
d="M546 700v-5l-415 -690h211q129 0 187 133h5l-34 -138h-465v5l414 690h-204q-69 0 -115 -38t-71 -95h-5l34 138h458zM331 869q16 0 27.5 -11.5t11.5 -27.5t-11.5 -27t-27.5 -11t-27.5 11t-11.5 27t11.5 27.5t27.5 11.5z" />
    <glyph glyph-name="zdotaccent" unicode="&#x17c;" horiz-adv-x="469" 
d="M429 494v-5l-298 -484h146q49 0 84 29.5t52 70.5h4l-29 -105h-343v5l298 484h-141q-49 0 -83.5 -29.5t-52.5 -70.5h-3l28 105h338zM267 669q16 0 27.5 -11.5t11.5 -27.5t-11.5 -27t-27.5 -11t-27.5 11t-11.5 27t11.5 27.5t27.5 11.5z" />
    <glyph glyph-name="Zcaron" unicode="&#x17d;" horiz-adv-x="581" 
d="M546 700v-5l-415 -690h211q129 0 187 133h5l-34 -138h-465v5l414 690h-204q-69 0 -115 -38t-71 -95h-5l34 138h458zM454 873l-97 -112h-53l-97 112h5l119 -74l118 74h5z" />
    <glyph glyph-name="zcaron" unicode="&#x17e;" horiz-adv-x="469" 
d="M429 494v-5l-298 -484h146q49 0 84 29.5t52 70.5h4l-29 -105h-343v5l298 484h-141q-49 0 -83.5 -29.5t-52.5 -70.5h-3l28 105h338zM391 673l-97 -112h-53l-97 112h5l119 -74l118 74h5z" />
    <glyph glyph-name="longs" unicode="&#x17f;" horiz-adv-x="296" 
d="M336 724q28 -11 36.5 -32.5t-2.5 -37.5q-11 -18 -32.5 -15.5t-30.5 20.5q-5 9 -5 29.5t-4.5 33t-21.5 12.5q-80 0 -80 -133v-486q0 -61 11.5 -85.5t51.5 -24.5v-5h-209v5q40 0 51.5 24.5t11.5 85.5v374h-63v5h63v102q0 143 148 143q45 0 75 -15z" />
    <glyph glyph-name="AEacute" unicode="&#x1fc;" horiz-adv-x="984" 
d="M954 170h5l-41 -170h-485v5q40 0 51.5 24.5t11.5 85.5v164h-238q-11 -19 -22 -38.5t-17.5 -30.5t-7.5 -14q-24 -41 -34.5 -84.5t-0.5 -75t42 -31.5v-5h-213v5q99 19 179 155l312 540h390l34 -138h-5q-25 57 -71 95t-115 38h-82q-40 0 -51.5 -24.5t-11.5 -85.5v-234h72
q58 0 99.5 36.5t41.5 87.5h5v-252h-5q0 51 -41.5 87t-99.5 36h-72v-231q0 -61 11.5 -85.5t51.5 -24.5h113q36 0 68.5 16t56.5 42.5t40.5 52.5t28.5 54zM261 283h235v409q-225 -392 -235 -409zM522 769l39 111h56l-90 -111h-5z" />
    <glyph glyph-name="aeacute" unicode="&#x1fd;" horiz-adv-x="825" 
d="M790 333h-377q-8 -53 -4 -102q10 -111 65 -174.5t136 -61.5q87 3 157 69v-11q-65 -56 -157 -62q-87 -6 -161 31t-108 113q-42 -113 -120 -136q-65 -20 -122 3.5t-53 91.5q2 30 18 53t44 37.5t51.5 22.5t58 17t46.5 13q36 12 56 26v88q0 72 -18.5 110t-68.5 38
q-87 0 -112 -54q-8 -18 6.5 -42t15.5 -30q5 -20 -9.5 -34.5t-35.5 -10.5q-21 5 -27.5 28t5.5 51q45 96 159 96q115 0 151 -80q69 72 177 80q89 7 151 -39t76 -131zM563 499q-56 1 -95.5 -44t-53.5 -118h291q-15 161 -142 162zM238 10q68 33 102 129q-17 40 -20 89
q0 1 -0.5 11t-0.5 19q-22 -13 -50 -23q-9 -4 -32.5 -10.5t-40 -13.5t-35.5 -18.5t-30.5 -30.5t-14.5 -45q-8 -74 32 -102.5t90 -4.5zM448 680l-39 -111h5l90 111h-56z" />
    <glyph glyph-name="Oslashacute" unicode="&#x1fe;" horiz-adv-x="844" 
d="M797 383q14 -160 -85 -268t-258 -122q-65 -6 -124 6l-15 -52h-5l15 53q-115 25 -191 108t-87 208q-15 160 84 268t259 123q62 6 124 -7l14 53h5l-14 -54q115 -24 191 -107t87 -209zM146 325q10 -104 60.5 -185.5t124.5 -117.5l178 658q-57 28 -119 22
q-114 -11 -185.5 -121t-58.5 -256zM453 -2q115 10 186.5 120.5t57.5 256.5q-9 102 -59.5 184t-124.5 119l-178 -658q57 -28 118 -22zM401 769l39 111h56l-90 -111h-5z" />
    <glyph glyph-name="oslashacute" unicode="&#x1ff;" 
d="M284 503q109 8 187.5 -57.5t82.5 -176.5q4 -107 -58.5 -187.5t-166.5 -90.5q-112 -11 -197 54t-92 178q-7 114 62.5 193t181.5 87zM329 -5q68 10 106 88.5t31 181.5q-6 98 -57 169t-125 65q-81 -7 -123 -80.5t-34 -189.5q9 -117 64.5 -181t137.5 -53zM366 703h5
l-145 -710h-5zM287 680l-39 -111h5l90 111h-56z" />
    <glyph glyph-name="Scommaaccent" unicode="&#x218;" horiz-adv-x="567" 
d="M144 569q0 -46 38.5 -85t93 -69t109.5 -61.5t93.5 -77.5t38.5 -102q0 -89 -65.5 -136.5t-171.5 -47.5q-54 0 -141 19q-17 4 -27 5.5t-25.5 0t-23.5 -14.5t-8 -37h-5v252h5q0 -24 13.5 -59t39 -72t71.5 -63t101 -26q68 0 110.5 39t42.5 101q0 41 -27 76.5t-68 59t-88 51.5
t-88 54.5t-68 68t-27 90.5q0 84 61 129.5t147 45.5q25 0 48 -4t58 -14t40 -11q28 -8 41.5 3.5t13.5 51.5h5v-252h-5q0 93 -55.5 157t-142.5 64q-55 0 -94.5 -34t-39.5 -102zM328 -132q1 -23 -1.5 -41t-9.5 -37.5t-24.5 -30t-43.5 -9.5v4q23 -2 39.5 7.5t23.5 25.5t9 29t2 25
q-14 -23 -47 -19q-20 2 -33 17.5t-11 34.5q1 20 16.5 33t35.5 11q42 -3 44 -50z" />
    <glyph glyph-name="scommaaccent" unicode="&#x219;" horiz-adv-x="453" 
d="M140 407q0 -33 27.5 -61t67 -49.5t79 -44.5t67 -56t27.5 -73q0 -64 -47.5 -98t-136.5 -34q-61 0 -103 25.5t-62 54.5q-16 25 -13 49t22 32q20 8 36.5 -4.5t14.5 -32.5q-1 -10 -9 -27t-9.5 -25.5t9.5 -26.5q35 -41 114 -41q48 0 78.5 27t30.5 65q0 28 -19.5 52t-49 40.5
t-63.5 37.5t-63.5 41.5t-49 53.5t-19.5 73q0 57 44.5 87.5t122.5 30.5q97 0 145 -70q16 -25 13 -49t-22 -32q-20 -8 -36.5 4.5t-14.5 32.5q1 10 8 26.5t8 24.5t-9 25q-32 34 -92 34q-45 0 -70.5 -27t-25.5 -65zM285 -132q1 -23 -1.5 -41t-9.5 -37.5t-24.5 -30t-43.5 -9.5v4
q23 -2 39.5 7.5t23.5 25.5t9 29t2 25q-14 -23 -47 -19q-20 2 -33 17.5t-11 34.5q1 20 16.5 33t35.5 11q42 -3 44 -50z" />
    <glyph glyph-name="circumflex" unicode="&#x2c6;" horiz-adv-x="347" 
d="M200 680l97 -111h-4l-119 74l-119 -74h-5l97 111h53z" />
    <glyph glyph-name="caron" unicode="&#x2c7;" horiz-adv-x="347" 
d="M297 673l-97 -112h-53l-97 112h5l119 -74l118 74h5z" />
    <glyph glyph-name="breve" unicode="&#x2d8;" horiz-adv-x="293" 
d="M188 650h55q-8 -91 -97 -91q-40 0 -66 22t-30 69h55q7 -88 41 -88q35 0 42 88z" />
    <glyph glyph-name="dotaccent" unicode="&#x2d9;" horiz-adv-x="178" 
d="M89 669q16 0 27.5 -11.5t11.5 -27.5t-11.5 -27t-27.5 -11t-27.5 11t-11.5 27t11.5 27.5t27.5 11.5z" />
    <glyph glyph-name="ring" unicode="&#x2da;" horiz-adv-x="216" 
d="M108 557q-24 0 -41 17t-17 41t17 41t41 17t41 -17t17 -41t-17 -41t-41 -17zM108 668q-22 0 -37.5 -15.5t-15.5 -37.5t15.5 -38t37.5 -16t38 15.5t16 38.5q0 22 -16 37.5t-38 15.5z" />
    <glyph glyph-name="ogonek" unicode="&#x2db;" horiz-adv-x="224" 
d="M174 0q-41 -3 -67 -23t-22 -54q2 -24 25.5 -31t56.5 9v-5q-42 -36 -82 -28t-34 50q4 34 38.5 58t84.5 29v-5z" />
    <glyph glyph-name="tilde" unicode="&#x2dc;" horiz-adv-x="287" 
d="M193 597q-17 1 -51.5 10.5t-45.5 10.5q-29 4 -41 -18h-5q0 4 3 16.5t14.5 29t28.5 18.5q10 1 29.5 -3t41 -9.5t26.5 -6.5q32 -6 39 18h5q0 -11 -2.5 -24.5t-13 -28t-28.5 -13.5z" />
    <glyph glyph-name="hungarumlaut" unicode="&#x2dd;" horiz-adv-x="270" 
d="M125 569l39 111h56l-90 -111h-5zM50 569l39 111h56l-90 -111h-5z" />
    <glyph glyph-name="Wgrave" unicode="&#x1e80;" horiz-adv-x="1042" 
d="M798 700h214v-5q-49 -9 -87 -49t-59 -106l-160 -540h-10l-187 556l-162 -556h-9q-163 475 -191 561q-24 69 -49 101.5t-68 32.5v5h237v-5q-34 0 -42.5 -17.5t5.5 -63.5q41 -134 156 -467l160 553h12l184 -564q106 360 112 387q8 40 8.5 78.5t-16 66t-48.5 27.5v5z
M499 880l39 -111h-5l-89 111h55z" />
    <glyph glyph-name="wgrave" unicode="&#x1e81;" horiz-adv-x="795" 
d="M625 494h150v-5q-64 -11 -102 -109q-11 -27 -42 -122t-57 -176l-25 -82h-10l-146 371l-111 -371h-9q-142 336 -166 395q-11 25 -15.5 35t-15.5 27.5t-23 24.5t-28 7v5h181v-5q-18 0 -24.5 -6.5t-4 -20.5t12.5 -40q10 -29 64 -164t58 -146l115 382h7l147 -382
q13 42 32 101t31.5 97t14.5 45q16 39 7.5 86.5t-41.5 47.5v5zM378 680l39 -111h-5l-89 111h55z" />
    <glyph glyph-name="Wacute" unicode="&#x1e82;" horiz-adv-x="1042" 
d="M798 700h214v-5q-49 -9 -87 -49t-59 -106l-160 -540h-10l-187 556l-162 -556h-9q-163 475 -191 561q-24 69 -49 101.5t-68 32.5v5h237v-5q-34 0 -42.5 -17.5t5.5 -63.5q41 -134 156 -467l160 553h12l184 -564q106 360 112 387q8 40 8.5 78.5t-16 66t-48.5 27.5v5z
M563 769l39 111h56l-90 -111h-5z" />
    <glyph glyph-name="wacute" unicode="&#x1e83;" horiz-adv-x="795" 
d="M625 494h150v-5q-64 -11 -102 -109q-11 -27 -42 -122t-57 -176l-25 -82h-10l-146 371l-111 -371h-9q-142 336 -166 395q-11 25 -15.5 35t-15.5 27.5t-23 24.5t-28 7v5h181v-5q-18 0 -24.5 -6.5t-4 -20.5t12.5 -40q10 -29 64 -164t58 -146l115 382h7l147 -382
q13 42 32 101t31.5 97t14.5 45q16 39 7.5 86.5t-41.5 47.5v5zM442 569l39 111h56l-90 -111h-5z" />
    <glyph glyph-name="Wdieresis" unicode="&#x1e84;" horiz-adv-x="1042" 
d="M798 700h214v-5q-49 -9 -87 -49t-59 -106l-160 -540h-10l-187 556l-162 -556h-9q-163 475 -191 561q-24 69 -49 101.5t-68 32.5v5h237v-5q-34 0 -42.5 -17.5t5.5 -63.5q41 -134 156 -467l160 553h12l184 -564q106 360 112 387q8 40 8.5 78.5t-16 66t-48.5 27.5v5z
M502 869q16 0 27.5 -11.5t11.5 -27.5t-11.5 -27t-27.5 -11t-27.5 11t-11.5 27t11.5 27.5t27.5 11.5zM604 869q16 0 27 -11.5t11 -27.5t-11 -27t-27 -11t-27.5 11t-11.5 27t11.5 27.5t27.5 11.5z" />
    <glyph glyph-name="wdieresis" unicode="&#x1e85;" horiz-adv-x="795" 
d="M625 494h150v-5q-64 -11 -102 -109q-11 -27 -42 -122t-57 -176l-25 -82h-10l-146 371l-111 -371h-9q-142 336 -166 395q-11 25 -15.5 35t-15.5 27.5t-23 24.5t-28 7v5h181v-5q-18 0 -24.5 -6.5t-4 -20.5t12.5 -40q10 -29 64 -164t58 -146l115 382h7l147 -382
q13 42 32 101t31.5 97t14.5 45q16 39 7.5 86.5t-41.5 47.5v5zM379 669q16 0 27.5 -11.5t11.5 -27.5t-11.5 -27t-27.5 -11t-27.5 11t-11.5 27t11.5 27.5t27.5 11.5zM481 669q16 0 27 -11.5t11 -27.5t-11 -27t-27 -11t-27.5 11t-11.5 27t11 27.5t28 11.5z" />
    <glyph glyph-name="Ygrave" unicode="&#x1ef2;" horiz-adv-x="676" 
d="M433 700h213v-5q-49 -9 -92 -50t-68 -105q-33 -86 -90 -244v-181q1 -61 12 -85.5t51 -24.5v-5h-213v5q40 0 51.5 24.5t11.5 85.5v180q-18 34 -65.5 126t-60.5 117q-82 157 -153 157v5h221v-5q-14 0 -20.5 -9t-5.5 -22.5t5.5 -28t10.5 -27.5q105 -205 154 -303
q62 175 72 199q29 69 21.5 130t-55.5 61v5zM316 880l39 -111h-5l-89 111h55z" />
    <glyph glyph-name="ygrave" unicode="&#x1ef3;" horiz-adv-x="555" 
d="M385 494h150v-5q-64 -11 -102 -109q-16 -40 -105 -291q-29 -81 -32 -89q-87 -212 -173 -217q-27 -2 -45 13t-17 39q1 22 20 30.5t36 -3.5q7 -5 14 -19.5t11 -24t14.5 -14.5t25.5 9q23 19 54.5 72.5t54.5 114.5h-4q-158 346 -180 395q-1 3 -6.5 14.5t-7 15.5t-6.5 14
t-8 14t-8 11t-9.5 10.5t-10.5 7.5t-12.5 5.5t-13.5 1.5v5h171v-5q-26 0 -29 -14.5t13 -52.5q8 -21 40.5 -95t67 -153t36.5 -83q19 52 41 114t37.5 105t16.5 45q17 38 8.5 86t-42.5 48v5zM268 680l39 -111h-5l-89 111h55z" />
    <glyph glyph-name="endash" unicode="&#x2013;" horiz-adv-x="395" 
d="M50 277h295v-5h-295v5z" />
    <glyph glyph-name="emdash" unicode="&#x2014;" horiz-adv-x="471" 
d="M50 284h371v-5h-371v5z" />
    <glyph glyph-name="quoteleft" unicode="&#x2018;" horiz-adv-x="178" 
d="M51 639q-2 40 10.5 67.5t51.5 25.5v-3q-24 2 -38.5 -12.5t-17.5 -29t-2 -27.5q11 18 37 16q16 -2 26 -14t9 -28q-2 -16 -14 -26t-28 -9q-32 3 -34 40z" />
    <glyph glyph-name="quoteright" unicode="&#x2019;" horiz-adv-x="178" 
d="M127 692q1 -18 -1 -32.5t-7.5 -29.5t-19.5 -23.5t-35 -7.5v4q34 -3 47 21t12 47q-10 -17 -37 -15q-16 2 -26 14t-9 28q2 16 13.5 25.5t27.5 8.5q33 -3 35 -40z" />
    <glyph glyph-name="quotesinglbase" unicode="&#x201a;" horiz-adv-x="179" 
d="M128 31q1 -25 -2 -43.5t-18.5 -34.5t-42.5 -15v3q24 -2 38.5 12.5t17.5 28.5t3 28q-11 -19 -38 -15q-16 2 -26 13.5t-9 27.5q2 16 14 26t28 9q33 -3 35 -40z" />
    <glyph glyph-name="quotedblleft" unicode="&#x201c;" horiz-adv-x="267" 
d="M140 639q-1 18 0.5 32.5t7.5 30t19.5 23.5t34.5 7v-3q-24 2 -38.5 -12.5t-17.5 -28.5t-3 -28q12 18 38 16q16 -2 26 -14t9 -28q-2 -16 -14 -26t-28 -9q-32 3 -34 40zM51 639q-1 25 2 44t18.5 34.5t42.5 14.5v-3q-24 2 -38.5 -12.5t-17.5 -28.5t-3 -28q11 18 38 16
q16 -2 26 -14t9 -28q-2 -16 -14 -26t-28 -9q-33 3 -35 40z" />
    <glyph glyph-name="quotedblright" unicode="&#x201d;" horiz-adv-x="267" 
d="M128 692q1 -18 -1 -32.5t-7.5 -29.5t-19.5 -23.5t-35 -7.5v4q24 -2 38.5 12t17.5 28t3 28q-10 -17 -38 -15q-16 2 -26 14t-9 28t13.5 26t28.5 8q33 -3 35 -40zM216 692q1 -18 -1 -32.5t-7.5 -29.5t-19.5 -23.5t-35 -7.5v4q34 -3 47 20.5t12 47.5q-10 -17 -37 -15
q-17 2 -27 14t-8 28t13.5 25.5t27.5 8.5q33 -3 35 -40z" />
    <glyph glyph-name="quotedblbase" unicode="&#x201e;" horiz-adv-x="267" 
d="M127 31q1 -18 -0.5 -32.5t-7.5 -30t-19.5 -23.5t-34.5 -7v3q24 -2 38.5 12.5t17.5 28.5t3 28q-11 -19 -38 -15q-16 2 -26 13.5t-9 27.5q2 16 14 26t28 9q32 -3 34 -40zM216 31q1 -18 -1 -32.5t-7.5 -29.5t-19.5 -23.5t-35 -7.5v3q24 -2 38.5 12.5t17.5 28.5t3 28
q-11 -19 -38 -15q-16 2 -25.5 13.5t-8.5 27.5t13 26.5t28 8.5q33 -3 35 -40z" />
    <glyph glyph-name="bullet" unicode="&#x2022;" horiz-adv-x="197" 
d="M98 429q20 0 34.5 -14.5t14.5 -34.5t-14.5 -34t-34.5 -14t-34 14t-14 34t14 34.5t34 14.5z" />
    <glyph glyph-name="ellipsis" unicode="&#x2026;" horiz-adv-x="499" 
d="M98 88q20 0 34.5 -14.5t14.5 -34.5t-14.5 -34t-34.5 -14t-34 14t-14 34t14 34.5t34 14.5zM248 88q20 0 34.5 -14.5t14.5 -34.5t-14.5 -34t-34.5 -14t-34 14t-14 34t14 34.5t34 14.5zM400 88q20 0 34.5 -14.5t14.5 -34.5t-14.5 -34t-34.5 -14t-34 14t-14 34t14 34.5
t34 14.5z" />
    <glyph glyph-name="perthousand" unicode="&#x2030;" horiz-adv-x="834" 
d="M398 709h5l-252 -709h-4zM155 709q54 0 84.5 -35t30.5 -105t-30.5 -105t-84.5 -35t-84.5 35t-30.5 105t31 105.5t84 34.5zM155 432q65 0 65 137t-65 137q-64 0 -64 -137t64 -137zM405 271q53 0 84 -35.5t31 -105.5t-31 -105t-84 -35q-54 0 -84.5 35t-30.5 106
q0 70 30.5 105t84.5 35zM405 -6q26 0 41 23t19 50.5t4 62.5q0 137 -64 138q-65 0 -65 -137t65 -137zM679 271q53 0 84 -35.5t31 -105.5t-31 -105t-84 -35q-54 0 -84.5 35t-30.5 106q0 70 30.5 105t84.5 35zM679 -6q26 0 41 23t19 50.5t4 62.5q0 137 -64 138q-65 0 -65 -137
t65 -137z" />
    <glyph glyph-name="guilsinglleft" unicode="&#x2039;" horiz-adv-x="308" 
d="M50 346l208 170v-5l-181 -167l181 -167v-5l-208 169v5z" />
    <glyph glyph-name="guilsinglright" unicode="&#x203a;" horiz-adv-x="309" 
d="M50 516l209 -170v-5l-209 -169v5l182 167l-182 167v5z" />
    <glyph glyph-name="fraction" unicode="&#x2044;" horiz-adv-x="250" 
d="M195 703h5l-145 -710h-5z" />
    <glyph glyph-name="Euro" unicode="&#x20ac;" horiz-adv-x="788" 
d="M510 -2q124 3 228 97v-15q-97 -79 -227 -87q-155 -9 -269.5 72t-135.5 231h-71v5h70q0 2 -0.5 7.5t-0.5 8.5q-3 40 -1 66h-68v5h68q13 133 108.5 220t235.5 99q73 7 201 -24q38 -13 55.5 -3t17.5 57h5v-252h-5q0 47 -37 101.5t-84 81.5q-77 41 -153 35
q-101 -10 -170 -99.5t-75 -215.5h274v-5h-274q-2 -32 1 -57q1 -9 3 -25h246v-5h-245q20 -134 105.5 -217t197.5 -81z" />
    <glyph glyph-name="ruble" unicode="&#x20bd;" horiz-adv-x="578" 
d="M313 298h-106v-70h152v-5h-152v-108q0 -61 11.5 -85.5t51.5 -24.5v-5h-214v5q40 0 51.5 24.5t11.5 85.5v108h-104v5h104v70h-104v5h104v283q0 61 -11.5 85t-51.5 24v5h257q95 0 162.5 -53.5t67.5 -147.5q0 -93 -67.5 -147t-162.5 -54zM302 695h-32q-40 0 -51.5 -24
t-11.5 -85v-283h95q56 0 100 51.5t44 144.5q0 94 -44 145t-100 51z" />
    <glyph glyph-name="bitcoin" unicode="&#x20bf;" horiz-adv-x="625" 
d="M380 356q83 0 146.5 -46t63.5 -133q0 -88 -64.5 -132.5t-155.5 -44.5h-18v-106h-5v106h-53v-106h-5v106h-239v5q40 0 51.5 24.5t11.5 85.5v471q0 61 -11.5 85t-51.5 24v5h215v107h5v-107h53v107h5v-107h3q38 0 74 -10t67.5 -29.5t50.5 -54.5t19 -80q0 -73 -45.5 -115.5
t-116.5 -54.5zM308 695h-44q-40 0 -51.5 -24t-11.5 -85v-230h107q61 0 99 40.5t38 129.5q0 86 -42.5 127.5t-94.5 41.5zM349 5q55 0 100 43t45 129t-46.5 130.5t-98.5 44.5h-148v-237q0 -61 11.5 -85.5t51.5 -24.5h85z" />
    <glyph glyph-name="afii61352" unicode="&#x2116;" horiz-adv-x="1093" 
d="M514 700h252v-5q-53 0 -88.5 -51t-35.5 -138v-506h-12q-5 7 -232.5 297.5t-244.5 310.5v-414q0 -87 35.5 -138t88.5 -51v-5h-252v5q53 0 88 51t35 138v420q-69 81 -116 81v5h167l438 -568v374q0 87 -35 138t-88 51v5zM787 349h281v-5h-281v5zM928 709q55 0 92 -35.5
t37 -104.5q0 -68 -37 -104t-93 -36q-55 0 -92 36t-37 104q0 69 37 105t93 35zM927 432q38 0 57.5 42.5t19.5 94.5t-19 94.5t-57 42.5t-57.5 -42t-19.5 -95q0 -52 19 -94.5t57 -42.5z" />
    <glyph glyph-name="minus" unicode="&#x2212;" horiz-adv-x="381" 
d="M50 277h281v-5h-281v5z" />
    <glyph glyph-name="approxequal" unicode="&#x2248;" horiz-adv-x="485" 
d="M351 333q-36 0 -102 36q-70 38 -111 38q-31 0 -52 -18.5t-26 -33t-5 -19.5l-5 1q0 5 5.5 20.5t27.5 35t55 19.5q41 0 113 -39q64 -35 100 -35q43 0 61 26t18 48h5q0 -12 -5.5 -28.5t-26 -33.5t-52.5 -17zM351 222q-39 0 -102 36q-70 38 -111 38q-31 0 -52 -18t-26 -36
l-5 -17l-5 1q1 3 2 8t7.5 18t15.5 23t25.5 18t37.5 8q41 0 113 -39q66 -36 100 -36q43 0 61 26.5t18 47.5h5q0 -12 -5.5 -28t-26 -33t-52.5 -17z" />
    <glyph glyph-name="notequal" unicode="&#x2260;" horiz-adv-x="381" 
d="M331 330h-82l-111 -111h193v-5h-198l-40 -41l-4 4l37 37h-76v5h81l112 111h-193v5h197l41 40l3 -3l-37 -37h77v-5z" />
    <glyph glyph-name="lessequal" unicode="&#x2264;" horiz-adv-x="381" 
d="M79 396l208 170v-5l-205 -167l205 -167v-5l-208 169v5zM50 134h281v-5h-281v5z" />
    <glyph glyph-name="greaterequal" unicode="&#x2265;" horiz-adv-x="381" 
d="M94 566l208 -170v-5l-208 -169v5l205 167l-205 167v5zM50 134h281v-5h-281v5z" />
    <glyph glyph-name="commaaccent" unicode="&#xf6c3;" horiz-adv-x="198" 
d="M147 237q1 -23 -1.5 -41t-9.5 -37.5t-24.5 -30t-43.5 -9.5v4q23 -2 39.5 7.5t23.5 25.5t9 29t2 25q-14 -23 -47 -19q-20 2 -33 17.5t-11 34.5q1 20 16.5 33t35.5 11q42 -3 44 -50z" />
    </font>
</defs>
</svg>
